<?xml version="1.0" encoding="UTF-8"?> <svg xmlns="http://www.w3.org/2000/svg" width="47" height="22" viewBox="0 0 47 22" fill="none"><circle cx="44.5275" cy="19.5822" r="1.56234" transform="rotate(-180 44.5275 19.5822)" fill="#269FBD"></circle><circle cx="44.5275" cy="10.9904" r="1.56234" transform="rotate(-180 44.5275 10.9904)" fill="#269FBD"></circle><circle cx="44.5275" cy="2.39665" r="1.56234" transform="rotate(-180 44.5275 2.39665)" fill="#269FBD"></circle><circle cx="35.9377" cy="19.5822" r="1.56234" transform="rotate(-180 35.9377 19.5822)" fill="#269FBD"></circle><circle cx="35.9338" cy="10.9884" r="1.56234" transform="rotate(-180 35.9338 10.9884)" fill="#269FBD"></circle><circle cx="35.9338" cy="2.39665" r="1.56234" transform="rotate(-180 35.9338 2.39665)" fill="#269FBD"></circle><circle cx="27.34" cy="19.5822" r="1.56234" transform="rotate(-180 27.34 19.5822)" fill="#269FBD"></circle><circle cx="27.34" cy="10.9884" r="1.56234" transform="rotate(-180 27.34 10.9884)" fill="#269FBD"></circle><circle cx="27.34" cy="2.39665" r="1.56234" transform="rotate(-180 27.34 2.39665)" fill="#269FBD"></circle><circle cx="18.7463" cy="19.5822" r="1.56234" transform="rotate(-180 18.7463 19.5822)" fill="#269FBD"></circle><circle cx="18.7463" cy="10.9904" r="1.56234" transform="rotate(-180 18.7463 10.9904)" fill="#269FBD"></circle><circle cx="18.7463" cy="2.39665" r="1.56234" transform="rotate(-180 18.7463 2.39665)" fill="#269FBD"></circle><circle cx="10.1564" cy="19.5822" r="1.56234" transform="rotate(-180 10.1564 19.5822)" fill="#269FBD"></circle><circle cx="10.1564" cy="10.9884" r="1.56234" transform="rotate(-180 10.1564 10.9884)" fill="#269FBD"></circle><circle cx="10.1564" cy="2.39665" r="1.56234" transform="rotate(-180 10.1564 2.39665)" fill="#269FBD"></circle><circle cx="1.56266" cy="19.5822" r="1.56234" transform="rotate(-180 1.56266 19.5822)" fill="#269FBD"></circle><circle cx="1.56266" cy="10.9904" r="1.56234" transform="rotate(-180 1.56266 10.9904)" fill="#269FBD"></circle><circle cx="1.56266" cy="2.39469" r="1.56234" transform="rotate(-180 1.56266 2.39469)" fill="#269FBD"></circle></svg> 