<?xml version="1.0" encoding="UTF-8"?> <svg xmlns="http://www.w3.org/2000/svg" width="30" height="33" viewBox="0 0 30 33" fill="none"><path d="M25 3.04883H5C2.23858 3.04883 0 5.2874 0 8.04883V27.0488C0 29.8103 2.23858 32.0488 5 32.0488H25C27.7614 32.0488 30 29.8103 30 27.0488V8.04883C30 5.2874 27.7614 3.04883 25 3.04883Z" fill="#F5DCED"></path><path d="M25 3.04883H5C4.34339 3.04883 3.69321 3.17816 3.08658 3.42943C2.47995 3.6807 1.92876 4.049 1.46447 4.51329C0.526784 5.45098 0 6.72275 0 8.04883V10.0488H30V8.04883C30 6.72275 29.4732 5.45098 28.5355 4.51329C27.5979 3.57561 26.3261 3.04883 25 3.04883Z" fill="#FAEEF6"></path><path d="M7 22.0488H5C4.73478 22.0488 4.48043 21.9435 4.29289 21.7559C4.10536 21.5684 4 21.314 4 21.0488C4 20.7836 4.10536 20.5293 4.29289 20.3417C4.48043 20.1542 4.73478 20.0488 5 20.0488H7C7.26522 20.0488 7.51957 20.1542 7.70711 20.3417C7.89464 20.5293 8 20.7836 8 21.0488C8 21.314 7.89464 21.5684 7.70711 21.7559C7.51957 21.9435 7.26522 22.0488 7 22.0488Z" fill="#CC52A3"></path><path d="M13 22.0488H11C10.7348 22.0488 10.4804 21.9435 10.2929 21.7559C10.1054 21.5684 10 21.314 10 21.0488C10 20.7836 10.1054 20.5293 10.2929 20.3417C10.4804 20.1542 10.7348 20.0488 11 20.0488H13C13.2652 20.0488 13.5196 20.1542 13.7071 20.3417C13.8946 20.5293 14 20.7836 14 21.0488C14 21.314 13.8946 21.5684 13.7071 21.7559C13.5196 21.9435 13.2652 22.0488 13 22.0488Z" fill="#CC52A3"></path><path d="M19 22.0488H17C16.7348 22.0488 16.4804 21.9435 16.2929 21.7559C16.1054 21.5684 16 21.314 16 21.0488C16 20.7836 16.1054 20.5293 16.2929 20.3417C16.4804 20.1542 16.7348 20.0488 17 20.0488H19C19.2652 20.0488 19.5196 20.1542 19.7071 20.3417C19.8946 20.5293 20 20.7836 20 21.0488C20 21.314 19.8946 21.5684 19.7071 21.7559C19.5196 21.9435 19.2652 22.0488 19 22.0488Z" fill="#CC52A3"></path><path d="M25 22.0488H23C22.7348 22.0488 22.4804 21.9435 22.2929 21.7559C22.1054 21.5684 22 21.314 22 21.0488C22 20.7836 22.1054 20.5293 22.2929 20.3417C22.4804 20.1542 22.7348 20.0488 23 20.0488H25C25.2652 20.0488 25.5196 20.1542 25.7071 20.3417C25.8946 20.5293 26 20.7836 26 21.0488C26 21.314 25.8946 21.5684 25.7071 21.7559C25.5196 21.9435 25.2652 22.0488 25 22.0488Z" fill="#CC52A3"></path><path d="M7 17.0488H5C4.73478 17.0488 4.48043 16.9435 4.29289 16.7559C4.10536 16.5684 4 16.314 4 16.0488C4 15.7836 4.10536 15.5293 4.29289 15.3417C4.48043 15.1542 4.73478 15.0488 5 15.0488H7C7.26522 15.0488 7.51957 15.1542 7.70711 15.3417C7.89464 15.5293 8 15.7836 8 16.0488C8 16.314 7.89464 16.5684 7.70711 16.7559C7.51957 16.9435 7.26522 17.0488 7 17.0488Z" fill="#CC52A3"></path><path d="M13 17.0488H11C10.7348 17.0488 10.4804 16.9435 10.2929 16.7559C10.1054 16.5684 10 16.314 10 16.0488C10 15.7836 10.1054 15.5293 10.2929 15.3417C10.4804 15.1542 10.7348 15.0488 11 15.0488H13C13.2652 15.0488 13.5196 15.1542 13.7071 15.3417C13.8946 15.5293 14 15.7836 14 16.0488C14 16.314 13.8946 16.5684 13.7071 16.7559C13.5196 16.9435 13.2652 17.0488 13 17.0488Z" fill="#CC52A3"></path><path d="M19 17.0488H17C16.7348 17.0488 16.4804 16.9435 16.2929 16.7559C16.1054 16.5684 16 16.314 16 16.0488C16 15.7836 16.1054 15.5293 16.2929 15.3417C16.4804 15.1542 16.7348 15.0488 17 15.0488H19C19.2652 15.0488 19.5196 15.1542 19.7071 15.3417C19.8946 15.5293 20 15.7836 20 16.0488C20 16.314 19.8946 16.5684 19.7071 16.7559C19.5196 16.9435 19.2652 17.0488 19 17.0488Z" fill="#CC52A3"></path><path d="M25 17.0488H23C22.7348 17.0488 22.4804 16.9435 22.2929 16.7559C22.1054 16.5684 22 16.314 22 16.0488C22 15.7836 22.1054 15.5293 22.2929 15.3417C22.4804 15.1542 22.7348 15.0488 23 15.0488H25C25.2652 15.0488 25.5196 15.1542 25.7071 15.3417C25.8946 15.5293 26 15.7836 26 16.0488C26 16.314 25.8946 16.5684 25.7071 16.7559C25.5196 16.9435 25.2652 17.0488 25 17.0488Z" fill="#CC52A3"></path><path d="M7 27.0488H5C4.73478 27.0488 4.48043 26.9435 4.29289 26.7559C4.10536 26.5684 4 26.314 4 26.0488C4 25.7836 4.10536 25.5293 4.29289 25.3417C4.48043 25.1542 4.73478 25.0488 5 25.0488H7C7.26522 25.0488 7.51957 25.1542 7.70711 25.3417C7.89464 25.5293 8 25.7836 8 26.0488C8 26.314 7.89464 26.5684 7.70711 26.7559C7.51957 26.9435 7.26522 27.0488 7 27.0488Z" fill="#CC52A3"></path><path d="M13 27.0488H11C10.7348 27.0488 10.4804 26.9435 10.2929 26.7559C10.1054 26.5684 10 26.314 10 26.0488C10 25.7836 10.1054 25.5293 10.2929 25.3417C10.4804 25.1542 10.7348 25.0488 11 25.0488H13C13.2652 25.0488 13.5196 25.1542 13.7071 25.3417C13.8946 25.5293 14 25.7836 14 26.0488C14 26.314 13.8946 26.5684 13.7071 26.7559C13.5196 26.9435 13.2652 27.0488 13 27.0488Z" fill="#CC52A3"></path><path d="M19 27.0488H17C16.7348 27.0488 16.4804 26.9435 16.2929 26.7559C16.1054 26.5684 16 26.314 16 26.0488C16 25.7836 16.1054 25.5293 16.2929 25.3417C16.4804 25.1542 16.7348 25.0488 17 25.0488H19C19.2652 25.0488 19.5196 25.1542 19.7071 25.3417C19.8946 25.5293 20 25.7836 20 26.0488C20 26.314 19.8946 26.5684 19.7071 26.7559C19.5196 26.9435 19.2652 27.0488 19 27.0488Z" fill="#CC52A3"></path><path d="M25 27.0488H23C22.7348 27.0488 22.4804 26.9435 22.2929 26.7559C22.1054 26.5684 22 26.314 22 26.0488C22 25.7836 22.1054 25.5293 22.2929 25.3417C22.4804 25.1542 22.7348 25.0488 23 25.0488H25C25.2652 25.0488 25.5196 25.1542 25.7071 25.3417C25.8946 25.5293 26 25.7836 26 26.0488C26 26.314 25.8946 26.5684 25.7071 26.7559C25.5196 26.9435 25.2652 27.0488 25 27.0488Z" fill="#CC52A3"></path><path d="M15 8.04883C14.7348 8.04883 14.4804 7.94347 14.2929 7.75593C14.1054 7.5684 14 7.31404 14 7.04883V1.04883C14 0.783612 14.1054 0.529258 14.2929 0.341721C14.4804 0.154185 14.7348 0.0488281 15 0.0488281C15.2652 0.0488281 15.5196 0.154185 15.7071 0.341721C15.8946 0.529258 16 0.783612 16 1.04883V7.04883C16 7.31404 15.8946 7.5684 15.7071 7.75593C15.5196 7.94347 15.2652 8.04883 15 8.04883Z" fill="#CC52A3"></path><path d="M23 8.04883C22.7348 8.04883 22.4804 7.94347 22.2929 7.75593C22.1054 7.5684 22 7.31404 22 7.04883V1.04883C22 0.783612 22.1054 0.529258 22.2929 0.341721C22.4804 0.154185 22.7348 0.0488281 23 0.0488281C23.2652 0.0488281 23.5196 0.154185 23.7071 0.341721C23.8946 0.529258 24 0.783612 24 1.04883V7.04883C24 7.31404 23.8946 7.5684 23.7071 7.75593C23.5196 7.94347 23.2652 8.04883 23 8.04883Z" fill="#CC52A3"></path><path d="M7 8.04883C6.73478 8.04883 6.48043 7.94347 6.29289 7.75593C6.10536 7.5684 6 7.31404 6 7.04883V1.04883C6 0.783612 6.10536 0.529258 6.29289 0.341721C6.48043 0.154185 6.73478 0.0488281 7 0.0488281C7.26522 0.0488281 7.51957 0.154185 7.70711 0.341721C7.89464 0.529258 8 0.783612 8 1.04883V7.04883C8 7.31404 7.89464 7.5684 7.70711 7.75593C7.51957 7.94347 7.26522 8.04883 7 8.04883Z" fill="#CC52A3"></path></svg> 