<?xml version="1.0" encoding="UTF-8"?> <svg xmlns="http://www.w3.org/2000/svg" width="50" height="52" viewBox="0 0 50 52" fill="none"><path d="M41.25 4.875H8.75C4.26269 4.875 0.625 8.51269 0.625 13V43.875C0.625 48.3623 4.26269 52 8.75 52H41.25C45.7373 52 49.375 48.3623 49.375 43.875V13C49.375 8.51269 45.7373 4.875 41.25 4.875Z" fill="#F5DCED"></path><path d="M41.25 4.875H8.75C7.68301 4.875 6.62647 5.08516 5.6407 5.49348C4.65493 5.9018 3.75923 6.50028 3.00476 7.25476C1.48102 8.77849 0.625 10.8451 0.625 13V16.25H49.375V13C49.375 10.8451 48.519 8.77849 46.9952 7.25476C45.4715 5.73102 43.4049 4.875 41.25 4.875Z" fill="#FAEEF6"></path><path d="M12 35.75H8.75C8.31902 35.75 7.9057 35.5788 7.60095 35.274C7.29621 34.9693 7.125 34.556 7.125 34.125C7.125 33.694 7.29621 33.2807 7.60095 32.976C7.9057 32.6712 8.31902 32.5 8.75 32.5H12C12.431 32.5 12.8443 32.6712 13.149 32.976C13.4538 33.2807 13.625 33.694 13.625 34.125C13.625 34.556 13.4538 34.9693 13.149 35.274C12.8443 35.5788 12.431 35.75 12 35.75Z" fill="#CC52A3"></path><path d="M21.75 35.75H18.5C18.069 35.75 17.6557 35.5788 17.351 35.274C17.0462 34.9693 16.875 34.556 16.875 34.125C16.875 33.694 17.0462 33.2807 17.351 32.976C17.6557 32.6712 18.069 32.5 18.5 32.5H21.75C22.181 32.5 22.5943 32.6712 22.899 32.976C23.2038 33.2807 23.375 33.694 23.375 34.125C23.375 34.556 23.2038 34.9693 22.899 35.274C22.5943 35.5788 22.181 35.75 21.75 35.75Z" fill="#CC52A3"></path><path d="M31.5 35.75H28.25C27.819 35.75 27.4057 35.5788 27.101 35.274C26.7962 34.9693 26.625 34.556 26.625 34.125C26.625 33.694 26.7962 33.2807 27.101 32.976C27.4057 32.6712 27.819 32.5 28.25 32.5H31.5C31.931 32.5 32.3443 32.6712 32.649 32.976C32.9538 33.2807 33.125 33.694 33.125 34.125C33.125 34.556 32.9538 34.9693 32.649 35.274C32.3443 35.5788 31.931 35.75 31.5 35.75Z" fill="#CC52A3"></path><path d="M41.25 35.75H38C37.569 35.75 37.1557 35.5788 36.851 35.274C36.5462 34.9693 36.375 34.556 36.375 34.125C36.375 33.694 36.5462 33.2807 36.851 32.976C37.1557 32.6712 37.569 32.5 38 32.5H41.25C41.681 32.5 42.0943 32.6712 42.399 32.976C42.7038 33.2807 42.875 33.694 42.875 34.125C42.875 34.556 42.7038 34.9693 42.399 35.274C42.0943 35.5788 41.681 35.75 41.25 35.75Z" fill="#CC52A3"></path><path d="M12 27.625H8.75C8.31902 27.625 7.9057 27.4538 7.60095 27.149C7.29621 26.8443 7.125 26.431 7.125 26C7.125 25.569 7.29621 25.1557 7.60095 24.851C7.9057 24.5462 8.31902 24.375 8.75 24.375H12C12.431 24.375 12.8443 24.5462 13.149 24.851C13.4538 25.1557 13.625 25.569 13.625 26C13.625 26.431 13.4538 26.8443 13.149 27.149C12.8443 27.4538 12.431 27.625 12 27.625Z" fill="#CC52A3"></path><path d="M21.75 27.625H18.5C18.069 27.625 17.6557 27.4538 17.351 27.149C17.0462 26.8443 16.875 26.431 16.875 26C16.875 25.569 17.0462 25.1557 17.351 24.851C17.6557 24.5462 18.069 24.375 18.5 24.375H21.75C22.181 24.375 22.5943 24.5462 22.899 24.851C23.2038 25.1557 23.375 25.569 23.375 26C23.375 26.431 23.2038 26.8443 22.899 27.149C22.5943 27.4538 22.181 27.625 21.75 27.625Z" fill="#CC52A3"></path><path d="M31.5 27.625H28.25C27.819 27.625 27.4057 27.4538 27.101 27.149C26.7962 26.8443 26.625 26.431 26.625 26C26.625 25.569 26.7962 25.1557 27.101 24.851C27.4057 24.5462 27.819 24.375 28.25 24.375H31.5C31.931 24.375 32.3443 24.5462 32.649 24.851C32.9538 25.1557 33.125 25.569 33.125 26C33.125 26.431 32.9538 26.8443 32.649 27.149C32.3443 27.4538 31.931 27.625 31.5 27.625Z" fill="#CC52A3"></path><path d="M41.25 27.625H38C37.569 27.625 37.1557 27.4538 36.851 27.149C36.5462 26.8443 36.375 26.431 36.375 26C36.375 25.569 36.5462 25.1557 36.851 24.851C37.1557 24.5462 37.569 24.375 38 24.375H41.25C41.681 24.375 42.0943 24.5462 42.399 24.851C42.7038 25.1557 42.875 25.569 42.875 26C42.875 26.431 42.7038 26.8443 42.399 27.149C42.0943 27.4538 41.681 27.625 41.25 27.625Z" fill="#CC52A3"></path><path d="M12 43.875H8.75C8.31902 43.875 7.9057 43.7038 7.60095 43.399C7.29621 43.0943 7.125 42.681 7.125 42.25C7.125 41.819 7.29621 41.4057 7.60095 41.101C7.9057 40.7962 8.31902 40.625 8.75 40.625H12C12.431 40.625 12.8443 40.7962 13.149 41.101C13.4538 41.4057 13.625 41.819 13.625 42.25C13.625 42.681 13.4538 43.0943 13.149 43.399C12.8443 43.7038 12.431 43.875 12 43.875Z" fill="#CC52A3"></path><path d="M21.75 43.875H18.5C18.069 43.875 17.6557 43.7038 17.351 43.399C17.0462 43.0943 16.875 42.681 16.875 42.25C16.875 41.819 17.0462 41.4057 17.351 41.101C17.6557 40.7962 18.069 40.625 18.5 40.625H21.75C22.181 40.625 22.5943 40.7962 22.899 41.101C23.2038 41.4057 23.375 41.819 23.375 42.25C23.375 42.681 23.2038 43.0943 22.899 43.399C22.5943 43.7038 22.181 43.875 21.75 43.875Z" fill="#CC52A3"></path><path d="M31.5 43.875H28.25C27.819 43.875 27.4057 43.7038 27.101 43.399C26.7962 43.0943 26.625 42.681 26.625 42.25C26.625 41.819 26.7962 41.4057 27.101 41.101C27.4057 40.7962 27.819 40.625 28.25 40.625H31.5C31.931 40.625 32.3443 40.7962 32.649 41.101C32.9538 41.4057 33.125 41.819 33.125 42.25C33.125 42.681 32.9538 43.0943 32.649 43.399C32.3443 43.7038 31.931 43.875 31.5 43.875Z" fill="#CC52A3"></path><path d="M41.25 43.875H38C37.569 43.875 37.1557 43.7038 36.851 43.399C36.5462 43.0943 36.375 42.681 36.375 42.25C36.375 41.819 36.5462 41.4057 36.851 41.101C37.1557 40.7962 37.569 40.625 38 40.625H41.25C41.681 40.625 42.0943 40.7962 42.399 41.101C42.7038 41.4057 42.875 41.819 42.875 42.25C42.875 42.681 42.7038 43.0943 42.399 43.399C42.0943 43.7038 41.681 43.875 41.25 43.875Z" fill="#CC52A3"></path><path d="M25 13C24.569 13 24.1557 12.8288 23.851 12.524C23.5462 12.2193 23.375 11.806 23.375 11.375V1.625C23.375 1.19402 23.5462 0.780698 23.851 0.475951C24.1557 0.171205 24.569 0 25 0C25.431 0 25.8443 0.171205 26.149 0.475951C26.4538 0.780698 26.625 1.19402 26.625 1.625V11.375C26.625 11.806 26.4538 12.2193 26.149 12.524C25.8443 12.8288 25.431 13 25 13Z" fill="#CC52A3"></path><path d="M38 13C37.569 13 37.1557 12.8288 36.851 12.524C36.5462 12.2193 36.375 11.806 36.375 11.375V1.625C36.375 1.19402 36.5462 0.780698 36.851 0.475951C37.1557 0.171205 37.569 0 38 0C38.431 0 38.8443 0.171205 39.149 0.475951C39.4538 0.780698 39.625 1.19402 39.625 1.625V11.375C39.625 11.806 39.4538 12.2193 39.149 12.524C38.8443 12.8288 38.431 13 38 13Z" fill="#CC52A3"></path><path d="M12 13C11.569 13 11.1557 12.8288 10.851 12.524C10.5462 12.2193 10.375 11.806 10.375 11.375V1.625C10.375 1.19402 10.5462 0.780698 10.851 0.475951C11.1557 0.171205 11.569 0 12 0C12.431 0 12.8443 0.171205 13.149 0.475951C13.4538 0.780698 13.625 1.19402 13.625 1.625V11.375C13.625 11.806 13.4538 12.2193 13.149 12.524C12.8443 12.8288 12.431 13 12 13Z" fill="#CC52A3"></path></svg> 