<?xml version="1.0" encoding="UTF-8"?> <svg xmlns="http://www.w3.org/2000/svg" width="44" height="40" viewBox="0 0 44 40" fill="none"><path d="M23.3753 0.75C12.0027 0.75 2.75031 8.76831 2.75031 18.625C2.76736 22.2192 3.98854 25.7039 6.21875 28.5225C4.4706 31.4928 2.49811 34.3252 0.318485 36.995C0.151228 37.1958 0.0446611 37.4401 0.0112702 37.6993C-0.0221207 37.9585 0.0190473 38.2219 0.129951 38.4585C0.240855 38.6951 0.416901 38.8953 0.637463 39.0355C0.858026 39.1756 1.11397 39.2501 1.37531 39.25C6.57909 39.1565 11.688 37.8408 16.2895 35.4089C18.5812 36.1352 20.9713 36.5033 23.3753 36.5C34.7479 36.5 44.0003 28.4817 44.0003 18.625C44.0003 8.76831 34.7479 0.75 23.3753 0.75Z" fill="#F5DCED"></path><path d="M23.375 20C24.1344 20 24.75 19.3844 24.75 18.625C24.75 17.8656 24.1344 17.25 23.375 17.25C22.6156 17.25 22 17.8656 22 18.625C22 19.3844 22.6156 20 23.375 20Z" fill="#CC52A3"></path><path d="M31.625 20C32.3844 20 33 19.3844 33 18.625C33 17.8656 32.3844 17.25 31.625 17.25C30.8656 17.25 30.25 17.8656 30.25 18.625C30.25 19.3844 30.8656 20 31.625 20Z" fill="#CC52A3"></path><path d="M15.125 20C15.8844 20 16.5 19.3844 16.5 18.625C16.5 17.8656 15.8844 17.25 15.125 17.25C14.3656 17.25 13.75 17.8656 13.75 18.625C13.75 19.3844 14.3656 20 15.125 20Z" fill="#CC52A3"></path></svg> 