<?xml version="1.0" encoding="UTF-8"?> <svg xmlns="http://www.w3.org/2000/svg" width="32" height="33" viewBox="0 0 32 33" fill="none"><path d="M24 7.5L17 0.5H4C2.93913 0.5 1.92172 0.921427 1.17157 1.67157C0.421427 2.42172 0 3.43913 0 4.5L0 28.5C0 29.5609 0.421427 30.5783 1.17157 31.3284C1.92172 32.0786 2.93913 32.5 4 32.5H20C21.0609 32.5 22.0783 32.0786 22.8284 31.3284C23.5786 30.5783 24 29.5609 24 28.5V7.5Z" fill="#F5DCED"></path><path d="M31.8945 5.05324L29.8945 1.05324C29.8022 0.898293 29.6712 0.769983 29.5144 0.680877C29.3576 0.59177 29.1804 0.544922 29 0.544922C28.8196 0.544922 28.6424 0.59177 28.4856 0.680877C28.3288 0.769983 28.1978 0.898293 28.1055 1.05324L26.1055 5.05324C26.0361 5.19212 26 5.34527 26 5.50054V29.5005C26 30.2962 26.3161 31.0592 26.8787 31.6219C27.4413 32.1845 28.2044 32.5005 29 32.5005C29.7956 32.5005 30.5587 32.1845 31.1213 31.6219C31.6839 31.0592 32 30.2962 32 29.5005V5.50054C32 5.34527 31.9639 5.19212 31.8945 5.05324Z" fill="#CC52A3"></path><path d="M17 0.5V6.5C17 6.76522 17.1054 7.01957 17.2929 7.20711C17.4804 7.39464 17.7348 7.5 18 7.5H24L17 0.5Z" fill="#F5DCED"></path><path d="M13 8.5H5C4.73478 8.5 4.48043 8.39464 4.29289 8.20711C4.10536 8.01957 4 7.76522 4 7.5C4 7.23478 4.10536 6.98043 4.29289 6.79289C4.48043 6.60536 4.73478 6.5 5 6.5H13C13.2652 6.5 13.5196 6.60536 13.7071 6.79289C13.8946 6.98043 14 7.23478 14 7.5C14 7.76522 13.8946 8.01957 13.7071 8.20711C13.5196 8.39464 13.2652 8.5 13 8.5Z" fill="#CC52A3"></path><path d="M19 14.5H5C4.73478 14.5 4.48043 14.3946 4.29289 14.2071C4.10536 14.0196 4 13.7652 4 13.5C4 13.2348 4.10536 12.9804 4.29289 12.7929C4.48043 12.6054 4.73478 12.5 5 12.5H19C19.2652 12.5 19.5196 12.6054 19.7071 12.7929C19.8946 12.9804 20 13.2348 20 13.5C20 13.7652 19.8946 14.0196 19.7071 14.2071C19.5196 14.3946 19.2652 14.5 19 14.5Z" fill="#CC52A3"></path><path d="M19 20.5H5C4.73478 20.5 4.48043 20.3946 4.29289 20.2071C4.10536 20.0196 4 19.7652 4 19.5C4 19.2348 4.10536 18.9804 4.29289 18.7929C4.48043 18.6054 4.73478 18.5 5 18.5H19C19.2652 18.5 19.5196 18.6054 19.7071 18.7929C19.8946 18.9804 20 19.2348 20 19.5C20 19.7652 19.8946 20.0196 19.7071 20.2071C19.5196 20.3946 19.2652 20.5 19 20.5Z" fill="#CC52A3"></path><path d="M19 26.5H5C4.73478 26.5 4.48043 26.3946 4.29289 26.2071C4.10536 26.0196 4 25.7652 4 25.5C4 25.2348 4.10536 24.9804 4.29289 24.7929C4.48043 24.6054 4.73478 24.5 5 24.5H19C19.2652 24.5 19.5196 24.6054 19.7071 24.7929C19.8946 24.9804 20 25.2348 20 25.5C20 25.7652 19.8946 26.0196 19.7071 26.2071C19.5196 26.3946 19.2652 26.5 19 26.5Z" fill="#CC52A3"></path></svg> 