<?xml version="1.0" encoding="UTF-8"?> <svg xmlns="http://www.w3.org/2000/svg" width="44" height="99" viewBox="0 0 44 99" fill="none"><circle cx="3.42636" cy="95.4917" r="3.34953" transform="rotate(-90.0431 3.42636 95.4917)" fill="#F5DCED"></circle><circle cx="21.8502" cy="95.478" r="3.34953" transform="rotate(-90.0431 21.8502 95.478)" fill="#F5DCED"></circle><circle cx="40.2721" cy="95.4643" r="3.34953" transform="rotate(-90.0431 40.2721 95.4643)" fill="#F5DCED"></circle><circle cx="3.41269" cy="77.0679" r="3.34953" transform="rotate(-90.0431 3.41269 77.0679)" fill="#F5DCED"></circle><circle cx="21.8337" cy="77.0542" r="3.34953" transform="rotate(-90.0431 21.8337 77.0542)" fill="#F5DCED"></circle><circle cx="40.2575" cy="77.0405" r="3.34953" transform="rotate(-90.0431 40.2575 77.0405)" fill="#F5DCED"></circle><circle cx="3.39901" cy="58.646" r="3.34953" transform="rotate(-90.0431 3.39901 58.646)" fill="#F5DCED"></circle><circle cx="21.822" cy="58.6323" r="3.34953" transform="rotate(-90.0431 21.822 58.6323)" fill="#F5DCED"></circle><circle cx="40.2447" cy="58.6186" r="3.34953" transform="rotate(-90.0431 40.2447 58.6186)" fill="#F5DCED"></circle><circle cx="3.38534" cy="40.2241" r="3.34953" transform="rotate(-90.0431 3.38534 40.2241)" fill="#F5DCED"></circle><circle cx="21.8072" cy="40.2104" r="3.34953" transform="rotate(-90.0431 21.8072 40.2104)" fill="#F5DCED"></circle><circle cx="40.231" cy="40.1968" r="3.34953" transform="rotate(-90.0431 40.231 40.1968)" fill="#F5DCED"></circle><circle cx="3.36972" cy="21.8022" r="3.34953" transform="rotate(-90.0431 3.36972 21.8022)" fill="#F5DCED"></circle><circle cx="21.7946" cy="21.7886" r="3.34953" transform="rotate(-90.0431 21.7946 21.7886)" fill="#F5DCED"></circle><circle cx="40.2154" cy="21.7749" r="3.34953" transform="rotate(-90.0431 40.2154 21.7749)" fill="#F5DCED"></circle><circle cx="3.35604" cy="3.38037" r="3.34953" transform="rotate(-90.0431 3.35604 3.38037)" fill="#F5DCED"></circle><circle cx="21.779" cy="3.36669" r="3.34953" transform="rotate(-90.0431 21.779 3.36669)" fill="#F5DCED"></circle><circle cx="40.2009" cy="3.35302" r="3.34953" transform="rotate(-90.0431 40.2009 3.35302)" fill="#F5DCED"></circle></svg> 