<?xml version="1.0" encoding="UTF-8"?> <svg xmlns="http://www.w3.org/2000/svg" width="110" height="49" viewBox="0 0 110 49" fill="none"><ellipse cx="106.128" cy="44.9677" rx="3.70323" ry="3.70227" transform="rotate(-180 106.128 44.9677)" fill="#A34282"></ellipse><ellipse cx="106.128" cy="24.6063" rx="3.70323" ry="3.70227" transform="rotate(-180 106.128 24.6063)" fill="#A34282"></ellipse><ellipse cx="106.128" cy="4.24304" rx="3.70323" ry="3.70227" transform="rotate(-180 106.128 4.24304)" fill="#A34282"></ellipse><ellipse cx="85.7605" cy="44.9677" rx="3.70323" ry="3.70227" transform="rotate(-180 85.7605 44.9677)" fill="#A34282"></ellipse><ellipse cx="85.7605" cy="24.6063" rx="3.70323" ry="3.70227" transform="rotate(-180 85.7605 24.6063)" fill="#A34282"></ellipse><ellipse cx="85.7605" cy="4.24304" rx="3.70323" ry="3.70227" transform="rotate(-180 85.7605 4.24304)" fill="#A34282"></ellipse><ellipse cx="65.3932" cy="44.9677" rx="3.70323" ry="3.70227" transform="rotate(-180 65.3932 44.9677)" fill="#A34282"></ellipse><ellipse cx="65.3932" cy="24.6063" rx="3.70323" ry="3.70227" transform="rotate(-180 65.3932 24.6063)" fill="#A34282"></ellipse><ellipse cx="65.3932" cy="4.24304" rx="3.70323" ry="3.70227" transform="rotate(-180 65.3932 4.24304)" fill="#A34282"></ellipse><ellipse cx="45.0258" cy="44.9677" rx="3.70323" ry="3.70227" transform="rotate(-180 45.0258 44.9677)" fill="#A34282"></ellipse><ellipse cx="45.0258" cy="24.6063" rx="3.70323" ry="3.70227" transform="rotate(-180 45.0258 24.6063)" fill="#A34282"></ellipse><ellipse cx="45.0258" cy="4.24304" rx="3.70323" ry="3.70227" transform="rotate(-180 45.0258 4.24304)" fill="#A34282"></ellipse><ellipse cx="24.6585" cy="44.9677" rx="3.70323" ry="3.70227" transform="rotate(-180 24.6585 44.9677)" fill="#A34282"></ellipse><ellipse cx="24.6585" cy="24.6063" rx="3.70323" ry="3.70227" transform="rotate(-180 24.6585 24.6063)" fill="#A34282"></ellipse><ellipse cx="24.6585" cy="4.24304" rx="3.70323" ry="3.70227" transform="rotate(-180 24.6585 4.24304)" fill="#A34282"></ellipse><ellipse cx="4.2911" cy="44.9677" rx="3.70323" ry="3.70227" transform="rotate(-180 4.2911 44.9677)" fill="#A34282"></ellipse><ellipse cx="4.28722" cy="24.6063" rx="3.70323" ry="3.70227" transform="rotate(-180 4.28722 24.6063)" fill="#A34282"></ellipse><ellipse cx="4.28722" cy="4.24109" rx="3.70323" ry="3.70227" transform="rotate(-180 4.28722 4.24109)" fill="#A34282"></ellipse></svg> 