<?xml version="1.0" encoding="UTF-8"?> <svg xmlns="http://www.w3.org/2000/svg" width="107" height="48" viewBox="0 0 107 48" fill="none"><circle cx="103.114" cy="44.1399" r="3.61793" transform="rotate(-180 103.114 44.1399)" fill="#80DAE0"></circle><circle cx="103.114" cy="24.2414" r="3.61793" transform="rotate(-180 103.114 24.2414)" fill="#80DAE0"></circle><circle cx="103.114" cy="4.34301" r="3.61793" transform="rotate(-180 103.114 4.34301)" fill="#80DAE0"></circle><circle cx="83.2156" cy="44.1399" r="3.61793" transform="rotate(-180 83.2156 44.1399)" fill="#80DAE0"></circle><circle cx="83.2117" cy="24.2414" r="3.61793" transform="rotate(-180 83.2117 24.2414)" fill="#80DAE0"></circle><circle cx="83.2117" cy="4.34301" r="3.61793" transform="rotate(-180 83.2117 4.34301)" fill="#80DAE0"></circle><circle cx="63.3132" cy="44.1399" r="3.61793" transform="rotate(-180 63.3132 44.1399)" fill="#80DAE0"></circle><circle cx="63.3132" cy="24.2414" r="3.61793" transform="rotate(-180 63.3132 24.2414)" fill="#80DAE0"></circle><circle cx="63.3132" cy="4.34301" r="3.61793" transform="rotate(-180 63.3132 4.34301)" fill="#80DAE0"></circle><circle cx="43.4187" cy="44.1399" r="3.61793" transform="rotate(-180 43.4187 44.1399)" fill="#80DAE0"></circle><circle cx="43.4187" cy="24.2414" r="3.61793" transform="rotate(-180 43.4187 24.2414)" fill="#80DAE0"></circle><circle cx="43.4187" cy="4.34301" r="3.61793" transform="rotate(-180 43.4187 4.34301)" fill="#80DAE0"></circle><circle cx="23.5201" cy="44.1399" r="3.61793" transform="rotate(-180 23.5201 44.1399)" fill="#80DAE0"></circle><circle cx="23.5201" cy="24.2414" r="3.61793" transform="rotate(-180 23.5201 24.2414)" fill="#80DAE0"></circle><circle cx="23.5201" cy="4.34301" r="3.61793" transform="rotate(-180 23.5201 4.34301)" fill="#80DAE0"></circle><circle cx="3.62181" cy="44.1399" r="3.61793" transform="rotate(-180 3.62181 44.1399)" fill="#80DAE0"></circle><circle cx="3.61791" cy="24.2414" r="3.61793" transform="rotate(-180 3.61791 24.2414)" fill="#80DAE0"></circle><circle cx="3.61791" cy="4.34105" r="3.61793" transform="rotate(-180 3.61791 4.34105)" fill="#80DAE0"></circle></svg> 