<?xml version="1.0" encoding="UTF-8"?> <svg xmlns="http://www.w3.org/2000/svg" width="38" height="86" viewBox="0 0 38 86" fill="none"><circle cx="2.91527" cy="83.0828" r="2.91527" transform="rotate(-90 2.91527 83.0828)" fill="#9ADFED"></circle><circle cx="18.9504" cy="83.0828" r="2.91527" transform="rotate(-90 18.9504 83.0828)" fill="#9ADFED"></circle><circle cx="34.9836" cy="83.0828" r="2.91527" transform="rotate(-90 34.9836 83.0828)" fill="#9ADFED"></circle><circle cx="2.91527" cy="67.0476" r="2.91527" transform="rotate(-90 2.91527 67.0476)" fill="#9ADFED"></circle><circle cx="18.9504" cy="67.0476" r="2.91527" transform="rotate(-90 18.9504 67.0476)" fill="#9ADFED"></circle><circle cx="34.9836" cy="67.0476" r="2.91527" transform="rotate(-90 34.9836 67.0476)" fill="#9ADFED"></circle><circle cx="2.91527" cy="51.0144" r="2.91527" transform="rotate(-90 2.91527 51.0144)" fill="#9ADFED"></circle><circle cx="18.9504" cy="51.0144" r="2.91527" transform="rotate(-90 18.9504 51.0144)" fill="#9ADFED"></circle><circle cx="34.9836" cy="51.0144" r="2.91527" transform="rotate(-90 34.9836 51.0144)" fill="#9ADFED"></circle><circle cx="2.91527" cy="34.9812" r="2.91527" transform="rotate(-90 2.91527 34.9812)" fill="#9ADFED"></circle><circle cx="18.9504" cy="34.9812" r="2.91527" transform="rotate(-90 18.9504 34.9812)" fill="#9ADFED"></circle><circle cx="34.9836" cy="34.9812" r="2.91527" transform="rotate(-90 34.9836 34.9812)" fill="#9ADFED"></circle><circle cx="2.91527" cy="18.9461" r="2.91527" transform="rotate(-90 2.91527 18.9461)" fill="#9ADFED"></circle><circle cx="18.9504" cy="18.9461" r="2.91527" transform="rotate(-90 18.9504 18.9461)" fill="#9ADFED"></circle><circle cx="34.9836" cy="18.9461" r="2.91527" transform="rotate(-90 34.9836 18.9461)" fill="#9ADFED"></circle><circle cx="2.91527" cy="2.91481" r="2.91527" transform="rotate(-90 2.91527 2.91481)" fill="#9ADFED"></circle><circle cx="18.9504" cy="2.91481" r="2.91527" transform="rotate(-90 18.9504 2.91481)" fill="#9ADFED"></circle><circle cx="34.9836" cy="2.91481" r="2.91527" transform="rotate(-90 34.9836 2.91481)" fill="#9ADFED"></circle></svg> 