<?xml version="1.0" encoding="UTF-8"?> <svg xmlns="http://www.w3.org/2000/svg" width="220" height="270" viewBox="0 0 220.25 269.85"><defs><style>.cls-1{fill:#cc52a3;}.cls-2{fill:#d4ecf2;}</style></defs><g id="Warstwa_2" data-name="Warstwa 2"><g id="Warstwa_1-2" data-name="Warstwa 1"><path class="cls-1" d="M173.64,223.3a45.31,45.31,0,0,0,45.57-45L220.25,1,44.4,0A43.11,43.11,0,0,0,1.05,42.85L0,222.29Z"></path><circle class="cls-2" cx="12.4" cy="266.45" r="3.4"></circle><circle class="cls-2" cx="31.07" cy="266.45" r="3.4"></circle><circle class="cls-2" cx="49.75" cy="266.45" r="3.4"></circle><circle class="cls-2" cx="12.4" cy="247.78" r="3.4"></circle><circle class="cls-2" cx="31.07" cy="247.78" r="3.4"></circle><circle class="cls-2" cx="49.75" cy="247.78" r="3.4"></circle><circle class="cls-2" cx="12.4" cy="229.11" r="3.4"></circle><circle class="cls-2" cx="31.07" cy="229.11" r="3.4"></circle><circle class="cls-2" cx="49.75" cy="229.11" r="3.4"></circle><circle class="cls-2" cx="12.4" cy="210.43" r="3.4"></circle><circle class="cls-2" cx="31.07" cy="210.43" r="3.4"></circle><circle class="cls-2" cx="49.75" cy="210.43" r="3.4"></circle><circle class="cls-2" cx="12.4" cy="191.76" r="3.4"></circle><circle class="cls-2" cx="31.07" cy="191.76" r="3.4"></circle><circle class="cls-2" cx="49.75" cy="191.76" r="3.4"></circle><circle class="cls-2" cx="12.4" cy="173.09" r="3.4"></circle><circle class="cls-2" cx="31.07" cy="173.08" r="3.4"></circle><circle class="cls-2" cx="49.75" cy="173.08" r="3.4"></circle></g></g></svg> 