<?xml version="1.0" encoding="UTF-8"?> <svg xmlns="http://www.w3.org/2000/svg" width="34" height="76" viewBox="0 0 34 76" fill="none"><circle cx="30.4719" cy="2.54875" r="2.53846" transform="rotate(89.7673 30.4719 2.54875)" fill="#80DAE0"></circle><circle cx="16.5109" cy="2.60539" r="2.53846" transform="rotate(89.7673 16.5109 2.60539)" fill="#80DAE0"></circle><circle cx="2.54999" cy="2.66203" r="2.53846" transform="rotate(89.7673 2.54999 2.66203)" fill="#80DAE0"></circle><circle cx="30.5266" cy="16.5097" r="2.53846" transform="rotate(89.7673 30.5266 16.5097)" fill="#80DAE0"></circle><circle cx="16.5695" cy="16.5683" r="2.53846" transform="rotate(89.7673 16.5695 16.5683)" fill="#80DAE0"></circle><circle cx="2.60859" cy="16.6249" r="2.53846" transform="rotate(89.7673 2.60859 16.6249)" fill="#80DAE0"></circle><circle cx="30.5851" cy="30.4706" r="2.53846" transform="rotate(89.7673 30.5851 30.4706)" fill="#80DAE0"></circle><circle cx="16.6242" cy="30.5273" r="2.53846" transform="rotate(89.7673 16.6242 30.5273)" fill="#80DAE0"></circle><circle cx="2.66327" cy="30.5839" r="2.53846" transform="rotate(89.7673 2.66327 30.5839)" fill="#80DAE0"></circle><circle cx="30.6398" cy="44.4316" r="2.53846" transform="rotate(89.7673 30.6398 44.4316)" fill="#80DAE0"></circle><circle cx="16.6789" cy="44.4902" r="2.53846" transform="rotate(89.7673 16.6789 44.4902)" fill="#80DAE0"></circle><circle cx="2.71796" cy="44.5468" r="2.53846" transform="rotate(89.7673 2.71796 44.5468)" fill="#80DAE0"></circle><circle cx="30.6984" cy="58.3945" r="2.53846" transform="rotate(89.7673 30.6984 58.3945)" fill="#80DAE0"></circle><circle cx="16.7375" cy="58.4511" r="2.53846" transform="rotate(89.7673 16.7375 58.4511)" fill="#80DAE0"></circle><circle cx="2.77656" cy="58.5077" r="2.53846" transform="rotate(89.7673 2.77656 58.5077)" fill="#80DAE0"></circle><circle cx="30.7531" cy="72.3554" r="2.53846" transform="rotate(89.7673 30.7531 72.3554)" fill="#80DAE0"></circle><circle cx="16.7961" cy="72.414" r="2.53846" transform="rotate(89.7673 16.7961 72.414)" fill="#80DAE0"></circle><circle cx="2.83124" cy="72.4706" r="2.53846" transform="rotate(89.7673 2.83124 72.4706)" fill="#80DAE0"></circle></svg> 