<?xml version="1.0" encoding="UTF-8"?> <svg xmlns="http://www.w3.org/2000/svg" width="147" height="112" viewBox="0 0 147 112" fill="none"><g filter="url(#filter0_d_9503_25622)"><path d="M97.7534 73.8464C97.7534 82.7678 90.5212 90 81.5998 90H21V34.3597C21 26.4295 27.4286 20.0009 35.3588 20.0009H97.7534V73.8464Z" fill="#1C8AA0"></path></g><circle cx="76.4746" cy="37.4746" r="2.47459" fill="#80DAE0"></circle><circle cx="76.4746" cy="51.084" r="2.47459" fill="#80DAE0"></circle><circle cx="76.4746" cy="64.6953" r="2.47459" fill="#80DAE0"></circle><circle cx="90.0859" cy="37.4746" r="2.47459" fill="#80DAE0"></circle><circle cx="90.0859" cy="51.084" r="2.47459" fill="#80DAE0"></circle><circle cx="90.0859" cy="64.6953" r="2.47459" fill="#80DAE0"></circle><circle cx="103.695" cy="37.4746" r="2.47459" fill="#80DAE0"></circle><circle cx="103.695" cy="51.084" r="2.47459" fill="#80DAE0"></circle><circle cx="103.695" cy="64.6953" r="2.47459" fill="#80DAE0"></circle><circle cx="117.305" cy="37.4746" r="2.47459" fill="#80DAE0"></circle><circle cx="117.305" cy="51.084" r="2.47459" fill="#80DAE0"></circle><circle cx="117.305" cy="64.6953" r="2.47459" fill="#80DAE0"></circle><circle cx="130.916" cy="37.4746" r="2.47459" fill="#80DAE0"></circle><circle cx="130.916" cy="51.084" r="2.47459" fill="#80DAE0"></circle><circle cx="130.916" cy="64.6953" r="2.47459" fill="#80DAE0"></circle><circle cx="144.525" cy="37.4746" r="2.47459" fill="#80DAE0"></circle><circle cx="144.525" cy="51.084" r="2.47459" fill="#80DAE0"></circle><circle cx="144.525" cy="64.6953" r="2.47459" fill="#80DAE0"></circle><defs><filter id="filter0_d_9503_25622" x="0.737097" y="0.965152" width="117.279" height="110.526" filterUnits="userSpaceOnUse" color-interpolation-filters="sRGB"><feFlood flood-opacity="0" result="BackgroundImageFix"></feFlood><feColorMatrix in="SourceAlpha" type="matrix" values="0 0 0 0 0 0 0 0 0 0 0 0 0 0 0 0 0 0 127 0" result="hardAlpha"></feColorMatrix><feOffset dy="1.22805"></feOffset><feGaussianBlur stdDeviation="10.1315"></feGaussianBlur><feComposite in2="hardAlpha" operator="out"></feComposite><feColorMatrix type="matrix" values="0 0 0 0 0 0 0 0 0 0 0 0 0 0 0 0 0 0 0.02 0"></feColorMatrix><feBlend mode="normal" in2="BackgroundImageFix" result="effect1_dropShadow_9503_25622"></feBlend><feBlend mode="normal" in="SourceGraphic" in2="effect1_dropShadow_9503_25622" result="shape"></feBlend></filter></defs></svg> 