<?xml version="1.0" encoding="UTF-8"?> <svg xmlns="http://www.w3.org/2000/svg" width="33" height="75" viewBox="0 0 33 75" fill="none"><circle cx="30.4606" cy="2.53846" r="2.53846" transform="rotate(90 30.4606 2.53846)" fill="#2DB4BC"></circle><circle cx="16.4996" cy="2.53846" r="2.53846" transform="rotate(90 16.4996 2.53846)" fill="#2DB4BC"></circle><circle cx="2.53869" cy="2.53846" r="2.53846" transform="rotate(90 2.53869 2.53846)" fill="#2DB4BC"></circle><circle cx="30.4606" cy="16.4994" r="2.53846" transform="rotate(90 30.4606 16.4994)" fill="#2DB4BC"></circle><circle cx="16.4996" cy="16.4994" r="2.53846" transform="rotate(90 16.4996 16.4994)" fill="#2DB4BC"></circle><circle cx="2.53869" cy="16.4994" r="2.53846" transform="rotate(90 2.53869 16.4994)" fill="#2DB4BC"></circle><circle cx="30.4606" cy="30.4623" r="2.53846" transform="rotate(90 30.4606 30.4623)" fill="#2DB4BC"></circle><circle cx="16.4996" cy="30.4603" r="2.53846" transform="rotate(90 16.4996 30.4603)" fill="#2DB4BC"></circle><circle cx="2.53869" cy="30.4603" r="2.53846" transform="rotate(90 2.53869 30.4603)" fill="#2DB4BC"></circle><circle cx="30.4606" cy="44.423" r="2.53846" transform="rotate(90 30.4606 44.423)" fill="#2DB4BC"></circle><circle cx="16.4996" cy="44.4232" r="2.53846" transform="rotate(90 16.4996 44.4232)" fill="#2DB4BC"></circle><circle cx="2.53869" cy="44.4232" r="2.53846" transform="rotate(90 2.53869 44.4232)" fill="#2DB4BC"></circle><circle cx="30.4606" cy="58.3842" r="2.53846" transform="rotate(90 30.4606 58.3842)" fill="#2DB4BC"></circle><circle cx="16.4996" cy="58.3842" r="2.53846" transform="rotate(90 16.4996 58.3842)" fill="#2DB4BC"></circle><circle cx="2.53869" cy="58.3842" r="2.53846" transform="rotate(90 2.53869 58.3842)" fill="#2DB4BC"></circle><circle cx="30.4606" cy="72.3471" r="2.53846" transform="rotate(90 30.4606 72.3471)" fill="#2DB4BC"></circle><circle cx="16.4996" cy="72.3471" r="2.53846" transform="rotate(90 16.4996 72.3471)" fill="#2DB4BC"></circle><circle cx="2.53869" cy="72.3471" r="2.53846" transform="rotate(90 2.53869 72.3471)" fill="#2DB4BC"></circle></svg> 