<?xml version="1.0" encoding="UTF-8"?> <svg xmlns="http://www.w3.org/2000/svg" width="109" height="108" viewBox="0 0 109 108" fill="none"><g filter="url(#filter0_d_8402_22410)"><path d="M93.0537 49.7433C93.0537 35.7166 81.6828 24.3457 67.6561 24.3457H15.9999V66.2806C15.9999 80.2082 27.2905 91.4987 41.218 91.4987H93.0537V49.7433Z" fill="#CC52A3"></path></g><circle cx="59.0526" cy="1.63245" r="1.62586" transform="rotate(89.7673 59.0526 1.63245)" fill="#80DAE0"></circle><circle cx="50.1109" cy="1.66956" r="1.62586" transform="rotate(89.7673 50.1109 1.66956)" fill="#80DAE0"></circle><circle cx="41.1688" cy="1.70472" r="1.62586" transform="rotate(89.7673 41.1688 1.70472)" fill="#80DAE0"></circle><circle cx="59.0875" cy="10.5739" r="1.62586" transform="rotate(89.7673 59.0875 10.5739)" fill="#80DAE0"></circle><circle cx="50.1483" cy="10.611" r="1.62586" transform="rotate(89.7673 50.1483 10.611)" fill="#80DAE0"></circle><circle cx="41.2064" cy="10.6481" r="1.62586" transform="rotate(89.7673 41.2064 10.6481)" fill="#80DAE0"></circle><circle cx="59.1253" cy="19.5172" r="1.62586" transform="rotate(89.7673 59.1253 19.5172)" fill="#80DAE0"></circle><circle cx="50.1834" cy="19.5524" r="1.62586" transform="rotate(89.7673 50.1834 19.5524)" fill="#80DAE0"></circle><circle cx="41.2415" cy="19.5875" r="1.62586" transform="rotate(89.7673 41.2415 19.5875)" fill="#80DAE0"></circle><circle cx="59.1602" cy="28.4586" r="1.62586" transform="rotate(89.7673 59.1602 28.4586)" fill="#80DAE0"></circle><circle cx="50.2184" cy="28.4957" r="1.62586" transform="rotate(89.7673 50.2184 28.4957)" fill="#80DAE0"></circle><circle cx="41.2765" cy="28.5328" r="1.62586" transform="rotate(89.7673 41.2765 28.5328)" fill="#80DAE0"></circle><circle cx="59.1979" cy="37.4" r="1.62586" transform="rotate(89.7673 59.1979 37.4)" fill="#80DAE0"></circle><circle cx="50.2559" cy="37.4371" r="1.62586" transform="rotate(89.7673 50.2559 37.4371)" fill="#80DAE0"></circle><circle cx="41.314" cy="37.4742" r="1.62586" transform="rotate(89.7673 41.314 37.4742)" fill="#80DAE0"></circle><circle cx="59.2327" cy="46.3414" r="1.62586" transform="rotate(89.7673 59.2327 46.3414)" fill="#80DAE0"></circle><circle cx="50.2934" cy="46.3805" r="1.62586" transform="rotate(89.7673 50.2934 46.3805)" fill="#80DAE0"></circle><circle cx="41.349" cy="46.4176" r="1.62586" transform="rotate(89.7673 41.349 46.4176)" fill="#80DAE0"></circle><defs><filter id="filter0_d_8402_22410" x="0.718629" y="9.99048" width="107.616" height="97.7151" filterUnits="userSpaceOnUse" color-interpolation-filters="sRGB"><feFlood flood-opacity="0" result="BackgroundImageFix"></feFlood><feColorMatrix in="SourceAlpha" type="matrix" values="0 0 0 0 0 0 0 0 0 0 0 0 0 0 0 0 0 0 127 0" result="hardAlpha"></feColorMatrix><feOffset dy="0.926144"></feOffset><feGaussianBlur stdDeviation="7.64069"></feGaussianBlur><feComposite in2="hardAlpha" operator="out"></feComposite><feColorMatrix type="matrix" values="0 0 0 0 0 0 0 0 0 0 0 0 0 0 0 0 0 0 0.02 0"></feColorMatrix><feBlend mode="normal" in2="BackgroundImageFix" result="effect1_dropShadow_8402_22410"></feBlend><feBlend mode="normal" in="SourceGraphic" in2="effect1_dropShadow_8402_22410" result="shape"></feBlend></filter></defs></svg> 