<?xml version="1.0" encoding="UTF-8"?> <svg xmlns="http://www.w3.org/2000/svg" width="57" height="126" viewBox="0 0 57 126" fill="none"><circle cx="51.7139" cy="4.33858" r="4.23158" transform="rotate(89.7673 51.7139 4.33858)" fill="#80DAE0"></circle><circle cx="28.4398" cy="4.43233" r="4.23158" transform="rotate(89.7673 28.4398 4.43233)" fill="#80DAE0"></circle><circle cx="5.16561" cy="4.52998" r="4.23158" transform="rotate(89.7673 5.16561 4.52998)" fill="#80DAE0"></circle><circle cx="51.8085" cy="27.612" r="4.23158" transform="rotate(89.7673 51.8085 27.612)" fill="#80DAE0"></circle><circle cx="28.538" cy="27.7097" r="4.23158" transform="rotate(89.7673 28.538 27.7097)" fill="#80DAE0"></circle><circle cx="5.26379" cy="27.8015" r="4.23158" transform="rotate(89.7673 5.26379 27.8015)" fill="#80DAE0"></circle><circle cx="51.9031" cy="50.8874" r="4.23158" transform="rotate(89.7673 51.9031 50.8874)" fill="#80DAE0"></circle><circle cx="28.6289" cy="50.9792" r="4.23158" transform="rotate(89.7673 28.6289 50.9792)" fill="#80DAE0"></circle><circle cx="5.35467" cy="51.0749" r="4.23158" transform="rotate(89.7673 5.35467 51.0749)" fill="#80DAE0"></circle><circle cx="51.9976" cy="74.1589" r="4.23158" transform="rotate(89.7673 51.9976 74.1589)" fill="#80DAE0"></circle><circle cx="28.7234" cy="74.2546" r="4.23158" transform="rotate(89.7673 28.7234 74.2546)" fill="#80DAE0"></circle><circle cx="5.44555" cy="74.3483" r="4.23158" transform="rotate(89.7673 5.44555 74.3483)" fill="#80DAE0"></circle><circle cx="52.0921" cy="97.4343" r="4.23158" transform="rotate(89.7673 52.0921 97.4343)" fill="#80DAE0"></circle><circle cx="28.8179" cy="97.528" r="4.23158" transform="rotate(89.7673 28.8179 97.528)" fill="#80DAE0"></circle><circle cx="5.54369" cy="97.6218" r="4.23158" transform="rotate(89.7673 5.54369 97.6218)" fill="#80DAE0"></circle><circle cx="52.1866" cy="120.706" r="4.23158" transform="rotate(89.7673 52.1866 120.706)" fill="#80DAE0"></circle><circle cx="28.9161" cy="120.801" r="4.23158" transform="rotate(89.7673 28.9161 120.801)" fill="#80DAE0"></circle><circle cx="5.6346" cy="120.895" r="4.23158" transform="rotate(89.7673 5.6346 120.895)" fill="#80DAE0"></circle></svg> 