<?xml version="1.0" encoding="UTF-8"?> <svg xmlns="http://www.w3.org/2000/svg" width="59" height="27" viewBox="0 0 59 27" fill="none"><circle cx="56.1773" cy="24.2945" r="1.97114" transform="rotate(-180 56.1773 24.2945)" fill="#CC52A3"></circle><circle cx="56.1773" cy="13.4546" r="1.97114" transform="rotate(-180 56.1773 13.4546)" fill="#CC52A3"></circle><circle cx="56.1773" cy="2.61284" r="1.97114" transform="rotate(-180 56.1773 2.61284)" fill="#CC52A3"></circle><circle cx="45.3375" cy="24.2945" r="1.97114" transform="rotate(-180 45.3375 24.2945)" fill="#CC52A3"></circle><circle cx="45.3335" cy="13.4546" r="1.97114" transform="rotate(-180 45.3335 13.4546)" fill="#CC52A3"></circle><circle cx="45.3335" cy="2.61284" r="1.97114" transform="rotate(-180 45.3335 2.61284)" fill="#CC52A3"></circle><circle cx="34.4937" cy="24.2945" r="1.97114" transform="rotate(-180 34.4937 24.2945)" fill="#CC52A3"></circle><circle cx="34.4937" cy="13.4546" r="1.97114" transform="rotate(-180 34.4937 13.4546)" fill="#CC52A3"></circle><circle cx="34.4937" cy="2.61089" r="1.97114" transform="rotate(-180 34.4937 2.61089)" fill="#CC52A3"></circle><circle cx="23.65" cy="24.2945" r="1.97114" transform="rotate(-180 23.65 24.2945)" fill="#CC52A3"></circle><circle cx="23.65" cy="13.4546" r="1.97114" transform="rotate(-180 23.65 13.4546)" fill="#CC52A3"></circle><circle cx="23.65" cy="2.61089" r="1.97114" transform="rotate(-180 23.65 2.61089)" fill="#CC52A3"></circle><circle cx="12.8101" cy="24.2945" r="1.97114" transform="rotate(-180 12.8101 24.2945)" fill="#CC52A3"></circle><circle cx="12.8101" cy="13.4546" r="1.97114" transform="rotate(-180 12.8101 13.4546)" fill="#CC52A3"></circle><circle cx="12.8101" cy="2.61089" r="1.97114" transform="rotate(-180 12.8101 2.61089)" fill="#CC52A3"></circle><circle cx="1.97026" cy="24.2945" r="1.97114" transform="rotate(-180 1.97026 24.2945)" fill="#CC52A3"></circle><circle cx="1.97026" cy="13.4546" r="1.97114" transform="rotate(-180 1.97026 13.4546)" fill="#CC52A3"></circle><circle cx="1.97026" cy="2.61089" r="1.97114" transform="rotate(-180 1.97026 2.61089)" fill="#CC52A3"></circle></svg> 