<?xml version="1.0" encoding="UTF-8"?> <svg xmlns="http://www.w3.org/2000/svg" width="32" height="32" viewBox="0 0 32 32" fill="none"><path d="M12 12C11.7348 12 11.4804 11.8946 11.2929 11.7071C11.1054 11.5196 11 11.2652 11 11V7C11 6.73478 11.1054 6.48043 11.2929 6.29289C11.4804 6.10536 11.7348 6 12 6C12.2652 6 12.5196 6.10536 12.7071 6.29289C12.8946 6.48043 13 6.73478 13 7V11C13 11.2652 12.8946 11.5196 12.7071 11.7071C12.5196 11.8946 12.2652 12 12 12Z" fill="#269FBD"></path><path d="M31.8837 30.5322L22.8837 13.5322C22.7987 13.3716 22.6715 13.2372 22.5159 13.1435C22.3603 13.0497 22.1821 13.0001 22.0004 13C21.8188 13 21.6406 13.0495 21.485 13.1431C21.3294 13.2367 21.2022 13.3709 21.1171 13.5313L17.0171 21.2613C16.9392 21.4079 16.8991 21.5716 16.9004 21.7376C16.9017 21.9036 16.9443 22.0666 17.0244 22.212L22.1244 31.482C22.2105 31.6388 22.3372 31.7697 22.4913 31.8608C22.6453 31.9519 22.8209 32 22.9999 32H30.9999C31.1723 32 31.3418 31.9554 31.4919 31.8706C31.642 31.7857 31.7676 31.6635 31.8565 31.5158C31.9455 31.3681 31.9947 31.1999 31.9995 31.0276C32.0042 30.8552 31.9643 30.6846 31.8837 30.5322Z" fill="#81BFCE"></path><path d="M23.8763 30.5181L12.8763 10.5181C12.79 10.3612 12.6632 10.2304 12.509 10.1392C12.3549 10.0481 12.1791 10 12 10C11.821 10 11.6452 10.0481 11.491 10.1392C11.3369 10.2304 11.2101 10.3612 11.1238 10.5181L0.123774 30.5181C0.0400202 30.6704 -0.00259753 30.8419 0.000122505 31.0157C0.00284254 31.1895 0.0508064 31.3595 0.139285 31.5091C0.227764 31.6587 0.353702 31.7827 0.504683 31.8688C0.655665 31.9548 0.826475 32.0001 1.00027 32H23.0003C23.174 32 23.3448 31.9547 23.4957 31.8686C23.6466 31.7824 23.7725 31.6585 23.8609 31.5089C23.9493 31.3593 23.9972 31.1893 23.9999 31.0156C24.0026 30.8418 23.96 30.6704 23.8763 30.5181Z" fill="#A8D9E5"></path><path d="M12.0003 19C13.6899 19.0033 15.3368 18.4691 16.7028 17.4747L12.8768 10.5181C12.7905 10.3612 12.6637 10.2304 12.5096 10.1392C12.3554 10.0481 12.1796 10 12.0006 10C11.8215 10 11.6457 10.0481 11.4916 10.1392C11.3374 10.2304 11.2106 10.3612 11.1243 10.5181L7.29883 17.4735C8.66456 18.4679 10.311 19.0025 12.0003 19Z" fill="#269FBD"></path><path d="M19.9815 2C18.7437 2.03112 17.5212 1.7217 16.4473 1.1055C15.0909 0.348747 13.5574 -0.0328473 12.0045 2.08686e-06C11.7391 0.000129406 11.4845 0.105247 11.2963 0.292411C11.1081 0.479576 11.0016 0.733587 11 0.999002V8.039C12.5704 7.81661 14.1703 8.11735 15.5527 8.8948C16.9091 9.65145 18.4427 10.0329 19.9955 10C20.2609 9.99987 20.5155 9.89476 20.7037 9.70759C20.8919 9.52043 20.9984 9.26642 21 9.001V2.9965C20.9987 2.86415 20.9713 2.73336 20.9194 2.61162C20.8675 2.48987 20.792 2.37956 20.6974 2.287C20.6028 2.19444 20.4909 2.12145 20.3681 2.0722C20.2452 2.02295 20.1138 1.99842 19.9815 2Z" fill="#269FBD"></path></svg> 