<?xml version="1.0" encoding="UTF-8"?> <svg xmlns="http://www.w3.org/2000/svg" width="64" height="64" viewBox="0 0 64 64" fill="none"><path opacity="0.4" fill-rule="evenodd" clip-rule="evenodd" d="M10.667 32.5334L34.667 37.3334V10.832C38.7173 11.3436 42.5357 13.0066 45.669 15.6236C48.8023 18.2406 51.119 21.7017 52.3439 25.5961C53.5689 29.4904 53.6507 33.6545 52.5797 37.5939C51.5087 41.5334 49.3298 45.0828 46.3017 47.8209C43.2736 50.5589 39.5235 52.3707 35.4964 53.041C31.4694 53.7113 27.3346 53.2121 23.5828 51.6025C19.831 49.993 16.6198 47.3408 14.3304 43.9607C12.0411 40.5806 10.7696 36.6145 10.667 32.5334Z" fill="#269FBD"></path><path fill-rule="evenodd" clip-rule="evenodd" d="M8.16016 26.6987C8.80263 21.5363 11.3093 16.7865 15.2087 13.3429C19.108 9.8993 24.1313 7.99919 29.3335 8V30.9333L8.16016 26.6987Z" fill="#269FBD"></path></svg> 