<?xml version="1.0" encoding="UTF-8"?> <svg xmlns="http://www.w3.org/2000/svg" width="32" height="32" viewBox="0 0 32 32" fill="none"><path d="M16.0001 5C13.0837 5.00331 10.2877 6.1633 8.22554 8.22548C6.16335 10.2877 5.00336 13.0836 5.00006 16C4.99485 17.6207 5.35121 19.2221 6.04318 20.6877C6.73515 22.1532 7.7453 23.4459 9.00006 24.4717V29C9.00093 29.7954 9.31728 30.5579 9.8797 31.1204C10.4421 31.6828 11.2047 31.9991 12.0001 32H20.0001C20.7954 31.9991 21.558 31.6828 22.1204 31.1204C22.6828 30.5579 22.9992 29.7954 23.0001 29V24.4717C24.2548 23.4459 25.265 22.1532 25.9569 20.6877C26.6489 19.2221 27.0053 17.6207 27.0001 16C26.9967 13.0836 25.8368 10.2877 23.7746 8.22548C21.7124 6.1633 18.9164 5.00331 16.0001 5Z" fill="#A8D9E5"></path><path d="M20 17.9994H19.0673C19.2469 16.7544 19.8218 15.5999 20.7073 14.7064C20.8895 14.5178 20.9903 14.2652 20.988 14.003C20.9857 13.7408 20.8805 13.49 20.6951 13.3046C20.5097 13.1192 20.2589 13.014 19.9967 13.0118C19.7345 13.0095 19.4819 13.1103 19.2933 13.2924C18.0328 14.5615 17.2409 16.2212 17.0476 17.9994H14.9524C14.7592 16.2213 13.9674 14.5615 12.707 13.2924C12.5184 13.1103 12.2658 13.0095 12.0036 13.0118C11.7414 13.014 11.4906 13.1192 11.3052 13.3046C11.1198 13.49 11.0146 13.7408 11.0123 14.003C11.01 14.2652 11.1108 14.5178 11.293 14.7064C12.1784 15.6 12.7532 16.7544 12.9327 17.9994H12C11.7348 17.9994 11.4804 18.1048 11.2929 18.2923C11.1054 18.4799 11 18.7342 11 18.9994C11 19.2646 11.1054 19.519 11.2929 19.7065C11.4804 19.8941 11.7348 19.9994 12 19.9994H13V26.9994C13 27.2646 13.1054 27.519 13.2929 27.7065C13.4804 27.8941 13.7348 27.9994 14 27.9994C14.2652 27.9994 14.5196 27.8941 14.7071 27.7065C14.8946 27.519 15 27.2646 15 26.9994V19.9994H17V26.9994C17 27.2646 17.1054 27.519 17.2929 27.7065C17.4804 27.8941 17.7348 27.9994 18 27.9994C18.2652 27.9994 18.5196 27.8941 18.7071 27.7065C18.8946 27.519 19 27.2646 19 26.9994V19.9994H20C20.2652 19.9994 20.5196 19.8941 20.7071 19.7065C20.8946 19.519 21 19.2646 21 18.9994C21 18.7342 20.8946 18.4799 20.7071 18.2923C20.5196 18.1048 20.2652 17.9994 20 17.9994Z" fill="#269FBD"></path><path d="M16 4C15.7348 4 15.4804 3.89464 15.2929 3.70711C15.1054 3.51957 15 3.26522 15 3V1C15 0.734784 15.1054 0.48043 15.2929 0.292893C15.4804 0.105357 15.7348 0 16 0C16.2652 0 16.5196 0.105357 16.7071 0.292893C16.8946 0.48043 17 0.734784 17 1V3C17 3.26522 16.8946 3.51957 16.7071 3.70711C16.5196 3.89464 16.2652 4 16 4Z" fill="#269FBD"></path><path d="M9.50115 5.7412C9.3254 5.74151 9.15267 5.69544 9.00041 5.60765C8.84815 5.51986 8.72174 5.39346 8.63395 5.2412L7.63395 3.5098C7.50135 3.28007 7.46543 3.00707 7.5341 2.75085C7.60278 2.49464 7.77042 2.27621 8.00015 2.1436C8.22988 2.01099 8.50288 1.97507 8.7591 2.04375C9.01531 2.11242 9.23375 2.28007 9.36635 2.5098L10.3664 4.2412C10.4541 4.39316 10.5003 4.56552 10.5003 4.74099C10.5004 4.91646 10.4542 5.08885 10.3666 5.24084C10.2789 5.39284 10.1528 5.51909 10.0009 5.60691C9.84896 5.69474 9.67662 5.74105 9.50115 5.7412Z" fill="#269FBD"></path><path d="M4.73837 10.5C4.56315 10.5002 4.39101 10.454 4.23937 10.3662L2.50797 9.36623C2.27824 9.23362 2.11059 9.01519 2.04192 8.75897C1.97324 8.50276 2.00916 8.22976 2.14177 8.00003C2.27437 7.7703 2.49281 7.60266 2.74902 7.53398C3.00524 7.46531 3.27824 7.50122 3.50797 7.63383L5.23937 8.63383C5.43017 8.7439 5.57929 8.91389 5.66357 9.11741C5.74786 9.32092 5.76259 9.54657 5.70547 9.75931C5.64836 9.97205 5.5226 10.16 5.34773 10.2939C5.17285 10.4279 4.95864 10.5003 4.73837 10.5Z" fill="#269FBD"></path><path d="M3 17H1C0.734784 17 0.48043 16.8946 0.292893 16.7071C0.105357 16.5196 0 16.2652 0 16C0 15.7348 0.105357 15.4804 0.292893 15.2929C0.48043 15.1054 0.734784 15 1 15H3C3.26522 15 3.51957 15.1054 3.70711 15.2929C3.89464 15.4804 4 15.7348 4 16C4 16.2652 3.89464 16.5196 3.70711 16.7071C3.51957 16.8946 3.26522 17 3 17Z" fill="#269FBD"></path><path d="M3.00882 24.5C2.78857 24.5002 2.5744 24.4278 2.39958 24.2938C2.22475 24.1598 2.09905 23.9719 2.04197 23.7592C1.9849 23.5464 1.99965 23.3208 2.08394 23.1173C2.16823 22.9139 2.31734 22.7439 2.50812 22.6338L4.23952 21.6338C4.35327 21.5682 4.47884 21.5256 4.60906 21.5084C4.73928 21.4913 4.8716 21.5 4.99846 21.534C5.12532 21.568 5.24425 21.6266 5.34844 21.7066C5.45263 21.7866 5.54006 21.8863 5.60572 22C5.67138 22.1138 5.71399 22.2394 5.73112 22.3696C5.74825 22.4998 5.73957 22.6321 5.70557 22.759C5.67156 22.8858 5.6129 23.0048 5.53294 23.109C5.45297 23.2131 5.35327 23.3006 5.23952 23.3662L3.50812 24.3662C3.35638 24.454 3.18413 24.5002 3.00882 24.5Z" fill="#269FBD"></path><path d="M22.4992 5.74119C22.3237 5.74105 22.1514 5.69474 21.9995 5.60691C21.8476 5.51908 21.7214 5.39283 21.6338 5.24084C21.5461 5.08884 21.5 4.91646 21.5 4.74099C21.5 4.56552 21.5462 4.39315 21.634 4.24119L22.634 2.50979C22.6996 2.39604 22.7871 2.29634 22.8913 2.21637C22.9954 2.13641 23.1144 2.07775 23.2412 2.04375C23.3681 2.00974 23.5004 2.00106 23.6306 2.01819C23.7609 2.03532 23.8864 2.07793 24.0002 2.14359C24.1139 2.20926 24.2136 2.29668 24.2936 2.40087C24.3736 2.50507 24.4322 2.62399 24.4662 2.75085C24.5002 2.87772 24.5089 3.01003 24.4918 3.14025C24.4746 3.27047 24.432 3.39604 24.3664 3.50979L23.3664 5.24119C23.2786 5.39346 23.1522 5.51986 22.9999 5.60765C22.8477 5.69544 22.6749 5.7415 22.4992 5.74119Z" fill="#269FBD"></path><path d="M27.2591 10.5C27.0388 10.5003 26.8246 10.4279 26.6498 10.2939C26.4749 10.16 26.3491 9.97205 26.292 9.75931C26.2349 9.54657 26.2496 9.32092 26.3339 9.11741C26.4182 8.91389 26.5673 8.7439 26.7581 8.63383L28.4895 7.63383C28.7192 7.50122 28.9922 7.46531 29.2485 7.53398C29.5047 7.60266 29.7231 7.7703 29.8557 8.00003C29.9883 8.22976 30.0242 8.50276 29.9556 8.75897C29.8869 9.01519 29.7192 9.23362 29.4895 9.36623L27.7581 10.3662C27.6065 10.454 27.4343 10.5002 27.2591 10.5Z" fill="#269FBD"></path><path d="M31 17H29C28.7348 17 28.4804 16.8946 28.2929 16.7071C28.1054 16.5196 28 16.2652 28 16C28 15.7348 28.1054 15.4804 28.2929 15.2929C28.4804 15.1054 28.7348 15 29 15H31C31.2652 15 31.5196 15.1054 31.7071 15.2929C31.8946 15.4804 32 15.7348 32 16C32 16.2652 31.8946 16.5196 31.7071 16.7071C31.5196 16.8946 31.2652 17 31 17Z" fill="#269FBD"></path><path d="M28.9885 24.5C28.8132 24.5002 28.641 24.454 28.4894 24.3662L26.758 23.3662C26.6442 23.3006 26.5445 23.2131 26.4645 23.109C26.3846 23.0048 26.3259 22.8858 26.2919 22.759C26.2579 22.6321 26.2492 22.4998 26.2664 22.3696C26.2835 22.2394 26.3261 22.1138 26.3918 22C26.5244 21.7703 26.7428 21.6027 26.999 21.534C27.1259 21.5 27.2582 21.4913 27.3884 21.5084C27.5186 21.5256 27.6442 21.5682 27.758 21.6338L29.4894 22.6338C29.6802 22.7439 29.8293 22.9139 29.9136 23.1174C29.9978 23.3209 30.0126 23.5465 29.9555 23.7593C29.8984 23.972 29.7726 24.1599 29.5978 24.2939C29.4229 24.4278 29.2087 24.5003 28.9885 24.5Z" fill="#269FBD"></path><path d="M9 27V29C9.00087 29.7954 9.31722 30.5579 9.87964 31.1204C10.4421 31.6828 11.2046 31.9991 12 32H20C20.7954 31.9991 21.5579 31.6828 22.1204 31.1204C22.6828 30.5579 22.9991 29.7954 23 29V27H9Z" fill="#269FBD"></path></svg> 