<?xml version="1.0" encoding="UTF-8"?> <svg xmlns="http://www.w3.org/2000/svg" width="24" height="31" viewBox="0 0 24 31" fill="none"><path d="M4.51998 18.7402L4.51338 18.7459C2.86704 20.1656 1.66138 22.0268 1.03881 24.1096C0.416242 26.1925 0.402768 28.41 0.999981 30.5002L5.99998 26.5002H18L23 30.5002C23.5972 28.41 23.5837 26.1925 22.9611 24.1096C22.3386 22.0268 21.1329 20.1656 19.4866 18.7459L19.48 18.7402H4.51998Z" fill="#269FBD"></path><path d="M5.99997 26.5L5.08137 22.596C4.14843 18.6309 4.29838 14.488 5.51553 10.6008C6.73269 6.71355 8.97229 3.22492 12 0.5C15.0277 3.22492 17.2673 6.71355 18.4844 10.6008C19.7016 14.488 19.8515 18.6309 18.9186 22.596L18 26.5H5.99997Z" fill="#D4ECF2"></path><path d="M15 26.5L12 30.5L9.25 26.5L12 20.5L15 26.5Z" fill="#269FBD"></path><path d="M12 17.5C14.2091 17.5 16 15.7091 16 13.5C16 11.2909 14.2091 9.5 12 9.5C9.79086 9.5 8 11.2909 8 13.5C8 15.7091 9.79086 17.5 12 17.5Z" fill="#269FBD"></path><path d="M16.7416 6.5C15.5117 4.24626 13.9084 2.21748 12 0.5C10.0915 2.21748 8.48823 4.24626 7.25836 6.5H16.7416Z" fill="#269FBD"></path></svg> 