<?xml version="1.0" encoding="UTF-8"?> <svg xmlns="http://www.w3.org/2000/svg" width="30" height="33" viewBox="0 0 30 33" fill="none"><path d="M7.7866 27.9057C6.19905 27.2997 4.81676 26.2544 3.8013 24.892C3.67562 24.7236 3.50011 24.5992 3.29969 24.5362C3.09926 24.4732 2.8841 24.475 2.68474 24.5412C2.48537 24.6075 2.31193 24.7348 2.18901 24.9052C2.0661 25.0755 1.99997 25.2803 2 25.4904V31.5004C2.00001 31.6773 2.04697 31.8511 2.13611 32.004C2.22525 32.1569 2.35336 32.2834 2.50737 32.3706C2.66137 32.4578 2.83576 32.5025 3.01271 32.5003C3.18967 32.498 3.36286 32.4488 3.5146 32.3578L7.9446 29.6978C8.10553 29.6012 8.23605 29.4614 8.32125 29.2942C8.40644 29.127 8.44287 28.9392 8.42637 28.7523C8.40986 28.5653 8.3411 28.3868 8.22793 28.2371C8.11476 28.0874 7.96195 27.9725 7.7866 27.9057Z" fill="#F5DCED"></path><path d="M19.3154 24.541C19.1161 24.475 18.901 24.4733 18.7007 24.5362C18.5004 24.5991 18.3249 24.7235 18.1992 24.8916C17.1833 26.2541 15.8007 27.2993 14.2129 27.9053C14.0376 27.9722 13.8846 28.0871 13.7715 28.2368C13.6583 28.3865 13.5896 28.565 13.5732 28.752C13.5567 28.9389 13.5932 29.1267 13.6784 29.2938C13.7637 29.461 13.8942 29.6008 14.0552 29.6973L18.4852 32.3573C18.6369 32.4484 18.8101 32.4976 18.9871 32.4999C19.1641 32.5022 19.3385 32.4575 19.4925 32.3703C19.6465 32.2831 19.7747 32.1566 19.8638 32.0037C19.953 31.8508 20 31.677 20 31.5V25.49C19.9998 25.28 19.9336 25.0754 19.8108 24.9051C19.6879 24.7348 19.5146 24.6074 19.3154 24.541Z" fill="#F5DCED"></path><path d="M11 30.5C17.0751 30.5 22 25.5751 22 19.5C22 13.4249 17.0751 8.5 11 8.5C4.92487 8.5 0 13.4249 0 19.5C0 25.5751 4.92487 30.5 11 30.5Z" fill="#F5DCED"></path><path d="M11 26.5C14.866 26.5 18 23.366 18 19.5C18 15.634 14.866 12.5 11 12.5C7.13401 12.5 4 15.634 4 19.5C4 23.366 7.13401 26.5 11 26.5Z" fill="#FAEEF6"></path><path d="M11 22.5C12.6569 22.5 14 21.1569 14 19.5C14 17.8431 12.6569 16.5 11 16.5C9.34315 16.5 8 17.8431 8 19.5C8 21.1569 9.34315 22.5 11 22.5Z" fill="#A34282"></path><path d="M11 20.4994C10.8022 20.4994 10.6089 20.4407 10.4445 20.3308C10.2801 20.2209 10.152 20.0648 10.0763 19.8821C10.0006 19.6994 9.98082 19.4984 10.0194 19.3044C10.058 19.1104 10.1532 18.9323 10.293 18.7924L20.293 8.79243C20.4816 8.61027 20.7342 8.50948 20.9964 8.51176C21.2586 8.51403 21.5094 8.6192 21.6948 8.80461C21.8802 8.99002 21.9854 9.24083 21.9876 9.50303C21.9899 9.76523 21.8891 10.0178 21.707 10.2064L11.707 20.2064C11.6142 20.2994 11.504 20.3732 11.3827 20.4235C11.2614 20.4738 11.1313 20.4996 11 20.4994Z" fill="#CC52A3"></path><path d="M29.9238 5.11699C29.8482 4.93422 29.7201 4.778 29.5556 4.66812C29.3912 4.55825 29.1978 4.49966 29 4.49979H26V1.49979C26 1.30204 25.9413 1.10874 25.8314 0.944328C25.7215 0.779919 25.5654 0.651779 25.3827 0.576109C25.2 0.500439 24.9989 0.480636 24.805 0.519203C24.611 0.557771 24.4329 0.652977 24.293 0.792787L20.293 4.79279C20.2001 4.8856 20.1264 4.99581 20.0761 5.11713C20.0259 5.23844 20 5.36847 20 5.49979V9.49979C20 9.765 20.1054 10.0194 20.2929 10.2069C20.4804 10.3944 20.7348 10.4998 21 10.4998H25C25.1313 10.4998 25.2613 10.4739 25.3827 10.4237C25.504 10.3734 25.6142 10.2997 25.707 10.2068L29.707 6.20679C29.847 6.06704 29.9424 5.88885 29.981 5.69483C30.0196 5.5008 29.9997 5.29968 29.9238 5.11699Z" fill="#F5DCED"></path></svg> 