<?xml version="1.0" encoding="UTF-8"?> <svg xmlns="http://www.w3.org/2000/svg" width="32" height="33" viewBox="0 0 32 33" fill="none"><path d="M27 0.5H5C2.23858 0.5 0 2.73858 0 5.5V27.5C0 30.2614 2.23858 32.5 5 32.5H27C29.7614 32.5 32 30.2614 32 27.5V5.5C32 2.73858 29.7614 0.5 27 0.5Z" fill="#D4ECF2"></path><path d="M16 6.5C15.7348 6.5 15.4804 6.39464 15.2929 6.20711C15.1054 6.01957 15 5.76522 15 5.5V3.5C15 3.23478 15.1054 2.98043 15.2929 2.79289C15.4804 2.60536 15.7348 2.5 16 2.5C16.2652 2.5 16.5196 2.60536 16.7071 2.79289C16.8946 2.98043 17 3.23478 17 3.5V5.5C17 5.76522 16.8946 6.01957 16.7071 6.20711C16.5196 6.39464 16.2652 6.5 16 6.5Z" fill="#269FBD"></path><path d="M11 7.84007C10.8863 7.90582 10.7608 7.94851 10.6306 7.9657C10.5003 7.98289 10.368 7.97424 10.2411 7.94025C10.1143 7.90626 9.99535 7.84759 9.89118 7.7676C9.787 7.68761 9.69962 7.58786 9.63402 7.47407L8.63402 5.74207C8.56732 5.6283 8.52379 5.50246 8.50592 5.3718C8.48806 5.24113 8.49621 5.10823 8.52992 4.98073C8.56363 4.85323 8.62223 4.73365 8.70233 4.62889C8.78244 4.52413 8.88248 4.43625 8.99669 4.37031C9.1109 4.30437 9.23703 4.26167 9.36781 4.24467C9.49859 4.22767 9.63144 4.23671 9.75871 4.27126C9.88599 4.30582 10.0052 4.3652 10.1094 4.44601C10.2136 4.52681 10.3008 4.62743 10.366 4.74207L11.366 6.47407C11.4318 6.58777 11.4745 6.71332 11.4917 6.84354C11.5088 6.97375 11.5002 7.10608 11.4662 7.23295C11.4322 7.35982 11.3735 7.47874 11.2935 7.58292C11.2136 7.68709 11.1138 7.77448 11 7.84007Z" fill="#269FBD"></path><path d="M7.34001 11.4994C7.27442 11.6132 7.18703 11.7129 7.08285 11.7929C6.97868 11.8729 6.85975 11.9316 6.73289 11.9656C6.60602 11.9996 6.47369 12.0082 6.34348 11.991C6.21326 11.9739 6.08771 11.9312 5.97401 11.8654L4.24201 10.8654C4.12737 10.8002 4.02675 10.713 3.94594 10.6088C3.86514 10.5046 3.80576 10.3854 3.7712 10.2581C3.73665 10.1308 3.72761 9.99798 3.74461 9.8672C3.76161 9.73642 3.80431 9.61029 3.87025 9.49608C3.93619 9.38187 4.02407 9.28183 4.12883 9.20172C4.23359 9.12162 4.35317 9.06302 4.48067 9.02931C4.60816 8.9956 4.74107 8.98745 4.87174 9.00531C5.0024 9.02318 5.12824 9.06671 5.24201 9.13341L6.97401 10.1334C7.0878 10.199 7.18755 10.2864 7.26754 10.3906C7.34753 10.4947 7.4062 10.6137 7.44019 10.7405C7.47418 10.8674 7.48283 10.9997 7.46564 11.1299C7.44845 11.2602 7.40576 11.3857 7.34001 11.4994Z" fill="#269FBD"></path><path d="M6 16.5C6 16.7652 5.89464 17.0196 5.70711 17.2071C5.51957 17.3946 5.26522 17.5 5 17.5H3C2.73478 17.5 2.48043 17.3946 2.29289 17.2071C2.10536 17.0196 2 16.7652 2 16.5C2 16.2348 2.10536 15.9804 2.29289 15.7929C2.48043 15.6054 2.73478 15.5 3 15.5H5C5.26522 15.5 5.51957 15.6054 5.70711 15.7929C5.89464 15.9804 6 16.2348 6 16.5Z" fill="#269FBD"></path><path d="M7.34001 21.5002C7.40576 21.6139 7.44845 21.7395 7.46564 21.8697C7.48283 21.9999 7.47418 22.1322 7.44019 22.2591C7.4062 22.386 7.34753 22.5049 7.26754 22.6091C7.18755 22.7132 7.0878 22.8006 6.97401 22.8662L5.24201 23.8662C5.12824 23.9329 5.0024 23.9765 4.87174 23.9943C4.74107 24.0122 4.60816 24.004 4.48067 23.9703C4.35317 23.9366 4.23359 23.878 4.12883 23.7979C4.02407 23.7178 3.93619 23.6178 3.87025 23.5036C3.80431 23.3893 3.76161 23.2632 3.74461 23.1324C3.72761 23.0017 3.73665 22.8688 3.7712 22.7415C3.80576 22.6143 3.86514 22.4951 3.94594 22.3909C4.02675 22.2866 4.12737 22.1994 4.24201 22.1342L5.97401 21.1342C6.08771 21.0685 6.21326 21.0258 6.34348 21.0086C6.47369 20.9914 6.60602 21.0001 6.73289 21.034C6.85975 21.068 6.97868 21.1267 7.08285 21.2067C7.18703 21.2867 7.27442 21.3864 7.34001 21.5002Z" fill="#269FBD"></path><path d="M11 25.1596C11.1138 25.2252 11.2136 25.3126 11.2935 25.4168C11.3735 25.521 11.4322 25.6399 11.4662 25.7667C11.5002 25.8936 11.5088 26.0259 11.4917 26.1562C11.4745 26.2864 11.4318 26.4119 11.366 26.5256L10.366 28.2576C10.3008 28.3723 10.2136 28.4729 10.1094 28.5537C10.0052 28.6345 9.88599 28.6939 9.75871 28.7284C9.63144 28.763 9.49859 28.772 9.36781 28.755C9.23703 28.738 9.1109 28.6953 8.99669 28.6294C8.88248 28.5634 8.78244 28.4756 8.70233 28.3708C8.62223 28.266 8.56363 28.1465 8.52992 28.019C8.49621 27.8915 8.48806 27.7586 8.50592 27.6279C8.52379 27.4972 8.56732 27.3714 8.63402 27.2576L9.63402 25.5256C9.69962 25.4118 9.787 25.3121 9.89118 25.2321C9.99535 25.1521 10.1143 25.0934 10.2411 25.0594C10.368 25.0254 10.5003 25.0168 10.6306 25.034C10.7608 25.0512 10.8863 25.0939 11 25.1596Z" fill="#269FBD"></path><path d="M16 26.5C16.2652 26.5 16.5196 26.6054 16.7071 26.7929C16.8946 26.9804 17 27.2348 17 27.5V29.5C17 29.7652 16.8946 30.0196 16.7071 30.2071C16.5196 30.3946 16.2652 30.5 16 30.5C15.7348 30.5 15.4804 30.3946 15.2929 30.2071C15.1054 30.0196 15 29.7652 15 29.5V27.5C15 27.2348 15.1054 26.9804 15.2929 26.7929C15.4804 26.6054 15.7348 26.5 16 26.5Z" fill="#269FBD"></path><path d="M21 25.1596C21.1137 25.0939 21.2392 25.0512 21.3694 25.034C21.4997 25.0168 21.632 25.0254 21.7589 25.0594C21.8857 25.0934 22.0046 25.1521 22.1088 25.2321C22.213 25.3121 22.3004 25.4118 22.366 25.5256L23.366 27.2576C23.4327 27.3714 23.4762 27.4972 23.4941 27.6279C23.5119 27.7586 23.5038 27.8915 23.4701 28.019C23.4364 28.1465 23.3778 28.266 23.2977 28.3708C23.2176 28.4756 23.1175 28.5634 23.0033 28.6294C22.8891 28.6953 22.763 28.738 22.6322 28.755C22.5014 28.772 22.3686 28.763 22.2413 28.7284C22.114 28.6939 21.9948 28.6345 21.8906 28.5537C21.7864 28.4729 21.6992 28.3723 21.634 28.2576L20.634 26.5256C20.5682 26.4119 20.5255 26.2864 20.5084 26.1562C20.4912 26.0259 20.4998 25.8936 20.5338 25.7667C20.5678 25.6399 20.6265 25.521 20.7065 25.4168C20.7864 25.3126 20.8862 25.2252 21 25.1596Z" fill="#269FBD"></path><path d="M24.66 21.5002C24.7256 21.3864 24.813 21.2867 24.9171 21.2067C25.0213 21.1267 25.1402 21.068 25.2671 21.034C25.394 21.0001 25.5263 20.9914 25.6565 21.0086C25.7867 21.0258 25.9123 21.0685 26.026 21.1342L27.758 22.1342C27.8726 22.1994 27.9732 22.2866 28.0541 22.3909C28.1349 22.4951 28.1942 22.6143 28.2288 22.7415C28.2633 22.8688 28.2724 23.0017 28.2554 23.1324C28.2384 23.2632 28.1957 23.3893 28.1297 23.5036C28.0638 23.6178 27.9759 23.7178 27.8712 23.7979C27.7664 23.878 27.6468 23.9366 27.5193 23.9703C27.3918 24.004 27.2589 24.0122 27.1283 23.9943C26.9976 23.9765 26.8718 23.9329 26.758 23.8662L25.026 22.8662C24.9122 22.8006 24.8124 22.7132 24.7325 22.6091C24.6525 22.5049 24.5938 22.386 24.5598 22.2591C24.5258 22.1322 24.5172 21.9999 24.5344 21.8697C24.5515 21.7395 24.5942 21.6139 24.66 21.5002Z" fill="#269FBD"></path><path d="M26 16.5C26 16.2348 26.1054 15.9804 26.2929 15.7929C26.4804 15.6054 26.7348 15.5 27 15.5H29C29.2652 15.5 29.5196 15.6054 29.7071 15.7929C29.8946 15.9804 30 16.2348 30 16.5C30 16.7652 29.8946 17.0196 29.7071 17.2071C29.5196 17.3946 29.2652 17.5 29 17.5H27C26.7348 17.5 26.4804 17.3946 26.2929 17.2071C26.1054 17.0196 26 16.7652 26 16.5Z" fill="#269FBD"></path><path d="M24.66 11.4994C24.5942 11.3857 24.5515 11.2602 24.5344 11.1299C24.5172 10.9997 24.5258 10.8674 24.5598 10.7405C24.5938 10.6137 24.6525 10.4947 24.7325 10.3906C24.8124 10.2864 24.9122 10.199 25.026 10.1334L26.758 9.13341C26.8718 9.06671 26.9976 9.02318 27.1283 9.00531C27.2589 8.98745 27.3918 8.9956 27.5193 9.02931C27.6468 9.06302 27.7664 9.12162 27.8712 9.20172C27.9759 9.28183 28.0638 9.38187 28.1297 9.49608C28.1957 9.61029 28.2384 9.73642 28.2554 9.8672C28.2724 9.99798 28.2633 10.1308 28.2288 10.2581C28.1942 10.3854 28.1349 10.5046 28.0541 10.6088C27.9732 10.713 27.8726 10.8002 27.758 10.8654L26.026 11.8654C25.9123 11.9312 25.7867 11.9739 25.6565 11.991C25.5263 12.0082 25.394 11.9996 25.2671 11.9656C25.1402 11.9316 25.0213 11.8729 24.9171 11.7929C24.813 11.7129 24.7256 11.6132 24.66 11.4994Z" fill="#269FBD"></path><path d="M21 7.84007C20.8862 7.77448 20.7864 7.68709 20.7065 7.58292C20.6265 7.47874 20.5678 7.35982 20.5338 7.23295C20.4998 7.10608 20.4912 6.97375 20.5084 6.84354C20.5255 6.71332 20.5682 6.58777 20.634 6.47407L21.634 4.74207C21.6992 4.62743 21.7864 4.52681 21.8906 4.44601C21.9948 4.3652 22.114 4.30582 22.2413 4.27126C22.3686 4.23671 22.5014 4.22767 22.6322 4.24467C22.763 4.26167 22.8891 4.30437 23.0033 4.37031C23.1175 4.43625 23.2176 4.52413 23.2977 4.62889C23.3778 4.73365 23.4364 4.85323 23.4701 4.98073C23.5038 5.10823 23.5119 5.24113 23.4941 5.3718C23.4762 5.50246 23.4327 5.6283 23.366 5.74207L22.366 7.47407C22.3004 7.58786 22.213 7.68761 22.1088 7.7676C22.0046 7.84759 21.8857 7.90626 21.7589 7.94025C21.632 7.97424 21.4997 7.98289 21.3694 7.9657C21.2392 7.94851 21.1137 7.90582 21 7.84007Z" fill="#269FBD"></path><path d="M17.9912 20.9473C17.8154 20.9476 17.6427 20.9015 17.4905 20.8137C17.3382 20.726 17.2118 20.5996 17.124 20.4473L15.1338 17C15.046 16.848 14.9999 16.6755 15 16.5V10.5C15 10.2348 15.1054 9.98043 15.2929 9.79289C15.4804 9.60536 15.7348 9.5 16 9.5C16.2652 9.5 16.5196 9.60536 16.7071 9.79289C16.8946 9.98043 17 10.2348 17 10.5V16.2324L18.8564 19.4473C18.9441 19.5993 18.9903 19.7716 18.9904 19.9471C18.9904 20.1226 18.9443 20.2949 18.8566 20.4469C18.7689 20.5989 18.6428 20.7252 18.4909 20.813C18.339 20.9008 18.1667 20.9472 17.9912 20.9473Z" fill="#269FBD"></path></svg> 