<?xml version="1.0" encoding="UTF-8"?> <svg xmlns="http://www.w3.org/2000/svg" width="53" height="53" viewBox="0 0 53 53" fill="none"><path d="M44.7188 0H8.28125C3.70764 0 0 3.70764 0 8.28125V44.7188C0 49.2924 3.70764 53 8.28125 53H44.7188C49.2924 53 53 49.2924 53 44.7188V8.28125C53 3.70764 49.2924 0 44.7188 0Z" fill="#D4ECF2"></path><path d="M26.5 9.9375C26.0607 9.9375 25.6395 9.763 25.3289 9.4524C25.0182 9.14179 24.8438 8.72051 24.8438 8.28125V4.96875C24.8438 4.52949 25.0182 4.10821 25.3289 3.7976C25.6395 3.487 26.0607 3.3125 26.5 3.3125C26.9393 3.3125 27.3605 3.487 27.6711 3.7976C27.9818 4.10821 28.1562 4.52949 28.1562 4.96875V8.28125C28.1562 8.72051 27.9818 9.14179 27.6711 9.4524C27.3605 9.763 26.9393 9.9375 26.5 9.9375Z" fill="#269FBD"></path><path d="M18.2184 12.1562C18.0301 12.2651 17.8221 12.3358 17.6065 12.3643C17.3908 12.3927 17.1716 12.3784 16.9615 12.3221C16.7514 12.2658 16.5544 12.1687 16.3819 12.0362C16.2093 11.9037 16.0646 11.7385 15.9559 11.55L14.2997 8.68139C14.1892 8.49296 14.1171 8.28453 14.0875 8.06812C14.0579 7.85171 14.0715 7.63158 14.1273 7.42041C14.1831 7.20924 14.2802 7.0112 14.4128 6.83769C14.5455 6.66417 14.7112 6.51862 14.9004 6.40941C15.0895 6.30019 15.2984 6.22947 15.515 6.20132C15.7316 6.17316 15.9517 6.18813 16.1625 6.24536C16.3733 6.30259 16.5707 6.40095 16.7433 6.53478C16.9159 6.66861 17.0604 6.83526 17.1683 7.02514L18.8246 9.89376C18.9335 10.0821 19.0042 10.29 19.0326 10.5057C19.0611 10.7214 19.0468 10.9405 18.9905 11.1506C18.9342 11.3608 18.837 11.5577 18.7045 11.7303C18.5721 11.9028 18.4069 12.0476 18.2184 12.1562Z" fill="#269FBD"></path><path d="M12.1572 18.2184C12.0485 18.4069 11.9038 18.5721 11.7313 18.7045C11.5587 18.837 11.3618 18.9342 11.1516 18.9905C10.9415 19.0468 10.7223 19.0611 10.5067 19.0326C10.291 19.0042 10.0831 18.9335 9.89474 18.8246L7.02612 17.1683C6.83623 17.0604 6.66958 16.9159 6.53575 16.7433C6.40193 16.5707 6.30357 16.3733 6.24634 16.1625C6.18911 15.9517 6.17414 15.7316 6.20229 15.515C6.23045 15.2984 6.30117 15.0895 6.41038 14.9004C6.5196 14.7112 6.66515 14.5455 6.83866 14.4128C7.01217 14.2802 7.21022 14.1831 7.42139 14.1273C7.63256 14.0715 7.85269 14.0579 8.0691 14.0875C8.28551 14.1171 8.49393 14.1892 8.68237 14.2997L11.551 15.9559C11.7395 16.0646 11.9047 16.2093 12.0371 16.3819C12.1696 16.5544 12.2668 16.7514 12.3231 16.9615C12.3794 17.1716 12.3937 17.3908 12.3653 17.6065C12.3368 17.8221 12.2661 18.0301 12.1572 18.2184Z" fill="#269FBD"></path><path d="M9.9375 26.5C9.9375 26.9393 9.763 27.3605 9.4524 27.6711C9.14179 27.9818 8.72051 28.1562 8.28125 28.1562H4.96875C4.52949 28.1562 4.10821 27.9818 3.7976 27.6711C3.487 27.3605 3.3125 26.9393 3.3125 26.5C3.3125 26.0607 3.487 25.6395 3.7976 25.3289C4.10821 25.0182 4.52949 24.8438 4.96875 24.8438H8.28125C8.72051 24.8438 9.14179 25.0182 9.4524 25.3289C9.763 25.6395 9.9375 26.0607 9.9375 26.5Z" fill="#269FBD"></path><path d="M12.1572 34.7816C12.2661 34.9699 12.3368 35.1779 12.3653 35.3936C12.3937 35.6092 12.3794 35.8284 12.3231 36.0385C12.2668 36.2486 12.1696 36.4456 12.0371 36.6181C11.9047 36.7907 11.7395 36.9354 11.551 37.0441L8.68237 38.7003C8.49393 38.8108 8.28551 38.8829 8.0691 38.9125C7.85269 38.9421 7.63256 38.9286 7.42139 38.8727C7.21022 38.8169 7.01217 38.7198 6.83866 38.5872C6.66515 38.4545 6.5196 38.2888 6.41038 38.0996C6.30117 37.9105 6.23045 37.7016 6.20229 37.485C6.17414 37.2684 6.18911 37.0483 6.24634 36.8375C6.30357 36.6267 6.40193 36.4293 6.53575 36.2567C6.66958 36.0841 6.83623 35.9396 7.02612 35.8317L9.89474 34.1754C10.0831 34.0665 10.291 33.9958 10.5067 33.9674C10.7223 33.9389 10.9415 33.9532 11.1516 34.0095C11.3618 34.0658 11.5587 34.163 11.7313 34.2955C11.9038 34.428 12.0485 34.5932 12.1572 34.7816Z" fill="#269FBD"></path><path d="M18.2184 40.8434C18.4069 40.9521 18.5721 41.0968 18.7045 41.2693C18.837 41.4419 18.9342 41.6388 18.9905 41.849C19.0468 42.0591 19.0611 42.2783 19.0326 42.4939C19.0042 42.7096 18.9335 42.9175 18.8246 43.1058L17.1683 45.9745C17.0604 46.1644 16.9159 46.331 16.7433 46.4648C16.5707 46.5987 16.3733 46.697 16.1625 46.7542C15.9517 46.8115 15.7316 46.8264 15.515 46.7983C15.2984 46.7701 15.0895 46.6994 14.9004 46.5902C14.7112 46.481 14.5455 46.3354 14.4128 46.1619C14.2802 45.9884 14.1831 45.7904 14.1273 45.5792C14.0715 45.368 14.0579 45.1479 14.0875 44.9315C14.1171 44.7151 14.1892 44.5067 14.2997 44.3182L15.9559 41.4496C16.0646 41.2611 16.2093 41.0959 16.3819 40.9634C16.5544 40.831 16.7514 40.7338 16.9615 40.6775C17.1716 40.6212 17.3908 40.6069 17.6065 40.6353C17.8221 40.6638 18.0301 40.7345 18.2184 40.8434Z" fill="#269FBD"></path><path d="M26.5 43.0625C26.9393 43.0625 27.3605 43.237 27.6711 43.5476C27.9818 43.8582 28.1562 44.2795 28.1562 44.7188V48.0312C28.1562 48.4705 27.9818 48.8918 27.6711 49.2024C27.3605 49.513 26.9393 49.6875 26.5 49.6875C26.0607 49.6875 25.6395 49.513 25.3289 49.2024C25.0182 48.8918 24.8438 48.4705 24.8438 48.0312V44.7188C24.8438 44.2795 25.0182 43.8582 25.3289 43.5476C25.6395 43.237 26.0607 43.0625 26.5 43.0625Z" fill="#269FBD"></path><path d="M34.7816 40.8434C34.9699 40.7345 35.1779 40.6638 35.3936 40.6353C35.6092 40.6069 35.8284 40.6212 36.0385 40.6775C36.2486 40.7338 36.4456 40.831 36.6181 40.9634C36.7907 41.0959 36.9354 41.2611 37.0441 41.4496L38.7003 44.3182C38.8108 44.5067 38.8829 44.7151 38.9125 44.9315C38.9421 45.1479 38.9286 45.368 38.8727 45.5792C38.8169 45.7904 38.7198 45.9884 38.5872 46.1619C38.4545 46.3354 38.2888 46.481 38.0996 46.5902C37.9105 46.6994 37.7016 46.7701 37.485 46.7983C37.2684 46.8264 37.0483 46.8115 36.8375 46.7542C36.6267 46.697 36.4293 46.5987 36.2567 46.4648C36.0841 46.331 35.9396 46.1644 35.8317 45.9745L34.1754 43.1058C34.0665 42.9175 33.9958 42.7096 33.9674 42.4939C33.9389 42.2783 33.9532 42.0591 34.0095 41.849C34.0658 41.6388 34.163 41.4419 34.2955 41.2693C34.428 41.0968 34.5932 40.9521 34.7816 40.8434Z" fill="#269FBD"></path><path d="M40.8434 34.7816C40.9521 34.5932 41.0968 34.428 41.2693 34.2955C41.4419 34.163 41.6388 34.0658 41.849 34.0095C42.0591 33.9532 42.2783 33.9389 42.4939 33.9674C42.7096 33.9958 42.9175 34.0665 43.1058 34.1754L45.9745 35.8317C46.1644 35.9396 46.331 36.0841 46.4648 36.2567C46.5987 36.4293 46.697 36.6267 46.7542 36.8375C46.8115 37.0483 46.8264 37.2684 46.7983 37.485C46.7701 37.7016 46.6994 37.9105 46.5902 38.0996C46.481 38.2888 46.3354 38.4545 46.1619 38.5872C45.9884 38.7198 45.7904 38.8169 45.5792 38.8727C45.368 38.9286 45.1479 38.9421 44.9315 38.9125C44.7151 38.8829 44.5067 38.8108 44.3182 38.7003L41.4496 37.0441C41.2611 36.9354 41.0959 36.7907 40.9634 36.6181C40.831 36.4456 40.7338 36.2486 40.6775 36.0385C40.6212 35.8284 40.6069 35.6092 40.6353 35.3936C40.6638 35.1779 40.7345 34.9699 40.8434 34.7816Z" fill="#269FBD"></path><path d="M43.0625 26.5C43.0625 26.0607 43.237 25.6395 43.5476 25.3289C43.8582 25.0182 44.2795 24.8438 44.7188 24.8438H48.0312C48.4705 24.8438 48.8918 25.0182 49.2024 25.3289C49.513 25.6395 49.6875 26.0607 49.6875 26.5C49.6875 26.9393 49.513 27.3605 49.2024 27.6711C48.8918 27.9818 48.4705 28.1562 48.0312 28.1562H44.7188C44.2795 28.1562 43.8582 27.9818 43.5476 27.6711C43.237 27.3605 43.0625 26.9393 43.0625 26.5Z" fill="#269FBD"></path><path d="M40.8434 18.2184C40.7345 18.0301 40.6638 17.8221 40.6353 17.6065C40.6069 17.3908 40.6212 17.1716 40.6775 16.9615C40.7338 16.7514 40.831 16.5544 40.9634 16.3819C41.0959 16.2093 41.2611 16.0646 41.4496 15.9559L44.3182 14.2997C44.5067 14.1892 44.7151 14.1171 44.9315 14.0875C45.1479 14.0579 45.368 14.0715 45.5792 14.1273C45.7904 14.1831 45.9884 14.2802 46.1619 14.4128C46.3354 14.5455 46.481 14.7112 46.5902 14.9004C46.6994 15.0895 46.7701 15.2984 46.7983 15.515C46.8264 15.7316 46.8115 15.9517 46.7542 16.1625C46.697 16.3733 46.5987 16.5707 46.4648 16.7433C46.331 16.9159 46.1644 17.0604 45.9745 17.1683L43.1058 18.8246C42.9175 18.9335 42.7096 19.0042 42.4939 19.0326C42.2783 19.0611 42.0591 19.0468 41.849 18.9905C41.6388 18.9342 41.4419 18.837 41.2693 18.7045C41.0968 18.5721 40.9521 18.4069 40.8434 18.2184Z" fill="#269FBD"></path><path d="M34.7816 12.1562C34.5932 12.0476 34.428 11.9028 34.2955 11.7303C34.163 11.5577 34.0658 11.3608 34.0095 11.1506C33.9532 10.9405 33.9389 10.7214 33.9674 10.5057C33.9958 10.29 34.0665 10.0821 34.1754 9.89376L35.8317 7.02514C35.9396 6.83526 36.0841 6.66861 36.2567 6.53478C36.4293 6.40095 36.6267 6.30259 36.8375 6.24536C37.0483 6.18813 37.2684 6.17316 37.485 6.20132C37.7016 6.22947 37.9105 6.30019 38.0996 6.40941C38.2888 6.51862 38.4545 6.66417 38.5872 6.83769C38.7198 7.0112 38.8169 7.20924 38.8727 7.42041C38.9286 7.63158 38.9421 7.85171 38.9125 8.06812C38.8829 8.28453 38.8108 8.49296 38.7003 8.68139L37.0441 11.55C36.9354 11.7385 36.7907 11.9037 36.6181 12.0362C36.4456 12.1687 36.2486 12.2658 36.0385 12.3221C35.8284 12.3784 35.6092 12.3927 35.3936 12.3643C35.1779 12.3358 34.9699 12.2651 34.7816 12.1562Z" fill="#269FBD"></path><path d="M29.7979 33.8658C29.5068 33.8663 29.2208 33.79 28.9686 33.6446C28.7164 33.4992 28.507 33.2899 28.3616 33.0377L25.0654 27.3281C24.92 27.0764 24.8435 26.7907 24.8438 26.5V16.5625C24.8438 16.1232 25.0182 15.702 25.3289 15.3914C25.6395 15.0807 26.0607 14.9062 26.5 14.9062C26.9393 14.9062 27.3605 15.0807 27.6711 15.3914C27.9818 15.702 28.1563 16.1232 28.1563 16.5625V26.0568L31.2309 31.3815C31.3762 31.6331 31.4527 31.9186 31.4528 32.2092C31.4529 32.4999 31.3765 32.7854 31.2313 33.0371C31.0861 33.2889 30.8772 33.498 30.6256 33.6434C30.374 33.7889 30.0885 33.8656 29.7979 33.8658Z" fill="#269FBD"></path></svg> 