<?xml version="1.0" encoding="UTF-8"?> <svg xmlns="http://www.w3.org/2000/svg" width="35" height="79" viewBox="0 0 35 79" fill="none"><circle cx="32.023" cy="2.67835" r="2.66754" transform="rotate(89.7673 32.023 2.67835)" fill="#80DAE0"></circle><circle cx="17.3511" cy="2.73889" r="2.66754" transform="rotate(89.7673 17.3511 2.73889)" fill="#80DAE0"></circle><circle cx="2.67926" cy="2.79749" r="2.66754" transform="rotate(89.7673 2.67926 2.79749)" fill="#80DAE0"></circle><circle cx="32.0796" cy="17.3483" r="2.66754" transform="rotate(89.7673 32.0796 17.3483)" fill="#80DAE0"></circle><circle cx="17.4117" cy="17.4108" r="2.66754" transform="rotate(89.7673 17.4117 17.4108)" fill="#80DAE0"></circle><circle cx="2.74176" cy="17.4713" r="2.66754" transform="rotate(89.7673 2.74176 17.4713)" fill="#80DAE0"></circle><circle cx="32.1421" cy="32.0201" r="2.66754" transform="rotate(89.7673 32.1421 32.0201)" fill="#80DAE0"></circle><circle cx="17.4683" cy="32.0807" r="2.66754" transform="rotate(89.7673 17.4683 32.0807)" fill="#80DAE0"></circle><circle cx="2.7984" cy="32.1373" r="2.66754" transform="rotate(89.7673 2.7984 32.1373)" fill="#80DAE0"></circle><circle cx="32.1988" cy="46.6901" r="2.66754" transform="rotate(89.7673 32.1988 46.6901)" fill="#80DAE0"></circle><circle cx="17.5289" cy="46.7526" r="2.66754" transform="rotate(89.7673 17.5289 46.7526)" fill="#80DAE0"></circle><circle cx="2.85699" cy="46.8131" r="2.66754" transform="rotate(89.7673 2.85699 46.8131)" fill="#80DAE0"></circle><circle cx="32.2613" cy="61.3639" r="2.66754" transform="rotate(89.7673 32.2613 61.3639)" fill="#80DAE0"></circle><circle cx="17.5894" cy="61.4225" r="2.66754" transform="rotate(89.7673 17.5894 61.4225)" fill="#80DAE0"></circle><circle cx="2.91949" cy="61.483" r="2.66754" transform="rotate(89.7673 2.91949 61.483)" fill="#80DAE0"></circle><circle cx="32.3179" cy="76.0338" r="2.66754" transform="rotate(89.7673 32.3179 76.0338)" fill="#80DAE0"></circle><circle cx="17.6519" cy="76.0963" r="2.66754" transform="rotate(89.7673 17.6519 76.0963)" fill="#80DAE0"></circle><circle cx="2.97613" cy="76.1549" r="2.66754" transform="rotate(89.7673 2.97613 76.1549)" fill="#80DAE0"></circle></svg> 