<?xml version="1.0" encoding="UTF-8"?> <svg xmlns="http://www.w3.org/2000/svg" width="152" height="122" viewBox="0 0 152 122" fill="none"><path d="M75.9947 11.645C73.6251 5.70323 67.8525 -0.713801 57.0408 0.167724C43.2683 1.67135 38.9764 14.9265 41.0582 22.834C35.5727 19.1038 26.2457 17.4636 18.1046 24.467C7.59309 35.049 13.2156 49.3599 18.9941 52.7926C12.6257 52.2005 2.56052 56.5221 0.3339 67.8271C-2.03479 81.8631 8.61943 90.0455 18.9941 90.0455H134.037C146.034 90.0455 152.69 79.6226 151.943 69.7927C150.766 56.9639 139.077 52.0418 132.701 53.0964C138.028 50.1114 145.143 36.0898 134.324 25.0667C125.736 16.8631 114.788 19.8481 110.939 23.4261C113.014 16.573 109.611 2.40671 95.6825 0.166198C94.7195 0.0579407 93.7925 0 92.9091 0C82.2763 0.00152475 77.4951 7.80739 75.9947 11.645Z" fill="white"></path><path d="M20.021 26.7004C13.9473 32.2222 11.7368 44.7339 22.6858 52.0479L66.3661 82.1441L45.1869 33.4145C40.7488 21.9155 28.6076 19.408 20.021 26.7004Z" fill="#F37021"></path><path d="M57.6205 3.00927C50.5203 3.15456 39.8585 11.6459 44.6032 24.6124L66.5084 76.4945L74.2057 21.9245C75.9868 8.36507 65.7692 2.10575 57.6205 3.00927Z" fill="#CC004C"></path><path d="M77.6241 19.8427H81.7661C81.7661 19.8427 83.9779 19.8427 84.279 20.8906C82.649 22.2274 78.2125 22.3949 78.8016 29.5353L85.7645 76.4866L107.52 24.4684C111.97 12.8537 102.629 3.15363 94.3439 2.85717C93.957 2.82929 93.5685 2.80664 93.1664 2.80664C85.7298 2.80642 77.2076 8.23432 77.6241 19.8427Z" fill="#6460AA"></path><path d="M106.643 33.8562L86.0664 82.0011L129.734 51.7461C139.8 44.5759 138.176 33.1123 132.542 27.4459C130.18 24.7789 125.842 22.7188 121.248 22.7188C115.82 22.7177 110.011 25.609 106.643 33.8562Z" fill="#0089D0"></path><path d="M124.845 58.5972L83.8359 87.3642H134.33C144.689 87.3642 151.347 76.6374 148.387 66.7936C146.405 60.6061 140.541 55.7492 133.734 55.7422C130.869 55.7433 127.83 56.61 124.845 58.5972Z" fill="#0DB14B"></path><path d="M18.8434 87.3642H68.5924L27.5729 58.5972C18.0964 52.4825 7.44087 56.0604 3.59406 66.2076C0.333284 77.8234 8.4748 87.3642 18.8434 87.3642Z" fill="#FCB711"></path><path d="M0.160156 108.184C0.160156 113.084 4.14817 122.002 19.3758 122.002C33.4153 122.002 37.8495 115.532 37.8495 112.565H26.9803C26.9803 112.565 26.4641 116.485 20.3327 116.485C14.1975 116.485 12.5382 111.342 12.5382 108.368C12.5382 105.405 14.1975 100.54 20.3327 100.54C26.4641 100.54 26.9803 103.952 26.9803 103.952H37.8495C37.8495 100.982 34.5961 94.6035 19.3758 94.6035C4.14817 94.6035 0.160156 104.101 0.160156 108.184Z" fill="#292526"></path><path d="M114.15 108.184C114.15 113.084 118.143 122.002 133.366 122.002C147.404 122.002 151.84 115.532 151.84 112.565H140.979C140.979 112.565 140.46 116.485 134.327 116.485C128.191 116.485 126.53 111.342 126.53 108.368C126.53 105.405 128.191 100.54 134.327 100.54C140.46 100.54 140.979 103.952 140.979 103.952H151.84C151.84 100.982 148.59 94.6035 133.366 94.6035C118.143 94.6035 114.15 104.101 114.15 108.184Z" fill="#292526"></path><path d="M67.5547 95.0605V111.646L54.9053 95.0605H40.6758V121.33H50.431V104.554L62.859 121.33H77.3105V95.0605H67.5547Z" fill="#292526"></path><path d="M98.8151 115.054V115.089H90.6869V110.265H98.8151V110.281C100.551 110.281 101.953 111.352 101.953 112.671C101.953 113.987 100.551 115.054 98.8151 115.054ZM90.7615 100.17H98.5935V100.181C99.9204 100.181 100.996 101.058 100.996 102.137C100.996 103.22 99.9204 104.089 98.5935 104.089V104.101H90.7615V100.17ZM106.798 107.364C108.574 107.364 112.287 105.294 112.287 101.283C112.287 95.5713 101.697 95.0605 100.073 95.0605H80.5605V121.33H100.073C109.457 121.33 113.227 118.353 113.227 113.381C113.227 108.409 106.798 107.364 106.798 107.364Z" fill="#292526"></path></svg> 