<?xml version="1.0" encoding="UTF-8"?> <svg xmlns="http://www.w3.org/2000/svg" class="Icons__StyledSVG-sc-1kwxf6n-0 lbnfDX icon icon__nowstaBrandMark" viewBox="0 0 1600 310"><path fill="#ffffff" fill-rule="evenodd" clip-rule="evenodd" d="M32.323 0C14.472 0 0 14.472 0 32.323v261.75c0 12.694 13.963 20.433 24.727 13.705l298.505-186.566-138.528 115.44 113.801 71.126c10.765 6.728 24.727-1.011 24.727-13.705V121.212C323.232 54.268 268.964 0 202.02 0H32.323zm629.161 261.345h-21.553a3.667 3.667 0 01-3.688-3.677V153.944c0-27.126-15.16-47.022-43.351-47.022-26.838 0-46.465 19.896-46.465 46.327v104.419a3.667 3.667 0 01-3.687 3.677h-21.881a3.667 3.667 0 01-3.687-3.677V88.294a3.667 3.667 0 013.687-3.677h20.856a3.667 3.667 0 013.688 3.677v6.291c0 3.187 3.811 4.902 6.146 2.737 11.719-10.826 27.535-17.158 45.523-17.158 43.351 0 68.14 30.885 68.14 74.801v102.703c-.041 2.043-1.721 3.677-3.728 3.677zm129.276 4.126c50.603 0 89.16-41.179 89.16-91.959 0-51.474-38.557-93.348-89.16-93.348-50.276 0-89.16 41.874-89.16 93.348 0 50.78 38.925 91.959 89.16 91.959zm0-158.549c33.066 0 59.905 29.864 59.905 66.59 0 36.032-26.839 65.201-59.905 65.201-32.698 0-59.536-29.169-59.536-65.201 0-36.726 26.838-66.59 59.536-66.59zm272.43 98.005l33.23-117.614a3.7 3.7 0 013.57-2.697h22.9c2.46 0 4.22 2.37 3.53 4.74l-50.81 169.374c-.45 1.552-1.89 2.614-3.52 2.614h-25.08a3.737 3.737 0 01-3.57-2.696l-33.55-119.82c-.99-3.595-6.11-3.595-7.09 0l-33.56 119.82a3.687 3.687 0 01-3.565 2.696h-24.749c-1.639 0-3.073-1.062-3.523-2.614L886.594 89.355c-.696-2.37 1.066-4.739 3.524-4.739h22.905c1.639 0 3.114 1.103 3.565 2.656l33.558 117.696c1.024 3.554 6.064 3.554 7.088 0l33.558-117.696c.451-1.594 1.885-2.656 3.565-2.656h24.703c1.64 0 3.12 1.103 3.57 2.656l33.52 117.614c.94 3.595 6.02 3.595 7.04.041zm70.52 4.74c6.6 34.888 37.17 56.131 78.51 56.131 42.37 0 72.65-22.306 72.69-57.643 0-40.158-32.33-47.716-71.58-53.884-34.75-5.475-44.75-9.928-44.75-22.633 0-13.726 16.89-24.716 40.28-24.716 20.61 0 36.84 8.702 41.96 25.738.49 1.593 1.88 2.737 3.56 2.737h22.5c2.21 0 4.01-1.961 3.65-4.167-5.49-32.11-32.41-51.066-71.71-51.066-47.49 0-69.53 27.085-69.53 52.496 0 33.294 26.14 43.589 69.16 49.758 43.35 5.842 48.19 15.115 48.19 27.453 0 15.442-16.88 28.842-44.42 28.842-24.26 0-43.84-11.521-48.92-30.435-.45-1.635-1.89-2.86-3.61-2.86h-22.33c-2.25 0-4.05 2.042-3.65 4.249zm462.6 51.678h-20.85a3.668 3.668 0 01-3.69-3.677v-14.257c0-3.35-4.14-4.943-6.39-2.451-13.03 14.298-32.74 24.879-54.87 24.879-50.93 0-88.79-41.506-88.79-92.654 0-51.147 37.86-92.98 88.79-92.98 22.17 0 41.88 10.58 54.91 24.675 2.25 2.451 6.35.858 6.35-2.492V88.335a3.668 3.668 0 013.69-3.677h20.85c2.05 0 3.69 1.634 3.69 3.677v169.374c0 2.002-1.64 3.636-3.69 3.636zm-85.8-153.401c-33.39 0-59.53 29.495-59.53 65.527 0 35.338 26.14 64.506 59.53 64.506 32.7 0 60.23-29.168 60.23-64.506 0-35.991-27.53-65.527-60.23-65.527zm-112.1 153.727c1.89-.163 3.36-1.797 3.36-3.676h.04v-19.65c0-2.043-1.64-3.718-3.69-3.677-3.89.041-7.7-.245-11.26-.94-14.88-2.941-26.02-13.195-26.02-36.93v-80.725a3.666 3.666 0 013.68-3.677h32.91a3.66 3.66 0 003.68-3.677V88.293a3.66 3.66 0 00-3.68-3.677h-32.91a3.666 3.666 0 01-3.68-3.676V50.545a3.668 3.668 0 00-3.69-3.676h-21.55a3.668 3.668 0 00-3.69 3.676V80.94a3.668 3.668 0 01-3.69 3.676h-16.72a3.66 3.66 0 00-3.68 3.677v20.426a3.66 3.66 0 003.68 3.677h16.72c2.05 0 3.69 1.634 3.69 3.677v80.765c0 43.713 27 67.979 66.5 64.833z"></path></svg> 