<?xml version="1.0" encoding="UTF-8"?> <svg xmlns="http://www.w3.org/2000/svg" width="44" height="43" viewBox="0 0 44 43" fill="none"><path d="M23.0101 0.0136719C11.8151 0.0136719 2.70734 8.80058 2.70734 19.6021C2.72412 23.5408 3.92622 27.3596 6.12158 30.4483C4.40075 33.7033 2.45908 36.8072 0.313509 39.7329C0.148865 39.953 0.0439633 40.2207 0.0110941 40.5048C-0.021775 40.7888 0.0187497 41.0774 0.127921 41.3367C0.237091 41.596 0.410387 41.8154 0.627503 41.969C0.84462 42.1226 1.09656 42.2041 1.35382 42.2041C6.47629 42.1017 11.5054 40.6598 16.035 37.9948C18.2909 38.7907 20.6436 39.194 23.0101 39.1905C34.205 39.1905 43.3128 30.4036 43.3128 19.6021C43.3128 8.80058 34.205 0.0136719 23.0101 0.0136719Z" fill="#D4ECF2"></path><path d="M23.0098 21.1093C23.7573 21.1093 24.3633 20.4347 24.3633 19.6025C24.3633 18.7703 23.7573 18.0957 23.0098 18.0957C22.2622 18.0957 21.6562 18.7703 21.6562 19.6025C21.6562 20.4347 22.2622 21.1093 23.0098 21.1093Z" fill="#269FBD"></path><path d="M31.1309 21.1093C31.8784 21.1093 32.4844 20.4347 32.4844 19.6025C32.4844 18.7703 31.8784 18.0957 31.1309 18.0957C30.3833 18.0957 29.7773 18.7703 29.7773 19.6025C29.7773 20.4347 30.3833 21.1093 31.1309 21.1093Z" fill="#269FBD"></path><path d="M14.8887 21.1093C15.6362 21.1093 16.2422 20.4347 16.2422 19.6025C16.2422 18.7703 15.6362 18.0957 14.8887 18.0957C14.1411 18.0957 13.5352 18.7703 13.5352 19.6025C13.5352 20.4347 14.1411 21.1093 14.8887 21.1093Z" fill="#269FBD"></path></svg> 