<?xml version="1.0" encoding="UTF-8"?> <svg xmlns="http://www.w3.org/2000/svg" width="420" height="217" viewBox="0 0 420 217" fill="none"><path d="M124.494 31.3394C101.905 31.3394 83.522 49.7214 83.522 72.3118C83.522 94.9011 101.904 113.284 124.494 113.284C147.084 113.284 165.467 94.9023 165.467 72.3118C165.467 49.7225 147.085 31.3394 124.494 31.3394ZM144.266 72.3118C144.266 83.7192 135.401 93.0042 124.494 93.0042C113.588 93.0042 104.716 83.7192 104.716 72.3118C104.716 60.9045 113.588 51.6195 124.494 51.6195C135.401 51.6195 144.266 60.9045 144.266 72.3118Z" fill="#02A9CE"></path><path d="M268.435 32.6884C268.035 32.294 267.503 32.0686 266.939 32.0686H250.385C249.221 32.0686 248.269 33.014 248.269 34.1848L248.206 109.077C248.206 109.64 248.426 110.179 248.826 110.573C249.221 110.974 249.759 111.193 250.323 111.193H266.87C268.041 111.193 268.986 110.248 268.986 109.083L269.055 34.1841C269.055 33.6269 268.83 33.0829 268.435 32.6884Z" fill="#02A9CE"></path><path d="M258.805 22.8722C265.135 22.8722 270.288 17.7821 270.288 11.5211C270.288 5.19125 265.135 0.0386117 258.805 0.0386117C252.544 0.0386117 247.454 5.19125 247.454 11.5211C247.454 17.7819 252.544 22.8722 258.805 22.8722Z" fill="#02A9CE"></path><path d="M236.358 1.35549L176.179 1.28663C175.014 1.28663 174.063 2.2383 174.063 3.40285L174 109.067C174 109.631 174.219 110.169 174.62 110.57C175.014 110.964 175.553 111.19 176.116 111.19H192.664C193.835 111.19 194.78 110.238 194.78 109.074L194.811 66.5054L231.887 66.5555C232.451 66.5555 232.989 66.33 233.384 65.9356C233.785 65.5412 234.004 65.0027 234.004 64.4392V48.9058C234.004 47.7412 233.058 46.7896 231.894 46.7896L194.822 46.7459L194.836 21.07L236.353 21.12H236.36C236.917 21.12 237.456 20.8947 237.85 20.5002C238.251 20.1058 238.47 19.5674 238.47 19.0039V3.47043C238.47 2.29964 237.524 1.35428 236.36 1.35428" fill="#02A9CE"></path><path d="M44.4522 47.157C28.0237 40.364 22.9085 37.2272 22.9085 30.8662C22.9085 22.821 30.6157 19.947 37.8283 19.947C45.4415 19.947 53.5746 23.9915 53.5746 35.3363C53.5746 36.1126 54.2069 36.745 54.9833 36.745H72.9645C73.7409 36.745 74.3733 36.1126 74.3733 35.3363C74.3733 14.5251 59.3472 0 37.8274 0C16.1021 0 2.06546 12.115 2.06546 30.8655C2.06546 53.2545 18.6819 59.6397 34.7546 65.8086L35.6061 66.1404C50.3254 71.8004 55.8853 74.6178 55.8853 81.8428C55.8853 91.7914 45.8304 93.2753 39.8387 93.2753C28.8696 93.2753 20.9056 85.6118 20.9056 75.0561V73.9166C20.9056 73.134 20.2796 72.5016 19.4969 72.5016H1.44056C0.676726 72.5016 0.0506436 73.1089 0.0255911 73.8727L0.0186343 74.1607C0.00467754 74.4613 0 74.7555 0 75.0561C0 97.5639 16.3785 113.286 39.8373 113.286C61.9007 113.286 76.7275 100.652 76.7275 81.8437C76.7275 63.4743 67.2108 56.575 44.4524 47.1588" fill="#02A9CE"></path><path d="M400.234 4.86794C407.459 4.86794 413.338 10.747 413.338 17.972C413.338 25.2032 407.459 31.0823 400.234 31.0823C393.009 31.0823 387.13 25.2032 387.13 17.972C387.13 10.7468 393.009 4.86794 400.234 4.86794ZM400.234 0.0218746C390.323 0.0218746 382.284 8.061 382.284 17.972C382.284 27.8892 390.323 35.922 400.234 35.922C410.145 35.922 418.184 27.8892 418.184 17.972C418.184 8.061 410.145 0.0218746 400.234 0.0218746Z" fill="#02A9CE"></path><path d="M418.192 56.6476C418.192 46.7367 410.153 38.6976 400.242 38.6976C390.331 38.6976 382.292 46.7367 382.292 56.6476C382.292 66.5586 390.331 74.5977 400.242 74.5977C410.153 74.5977 418.192 66.5586 418.192 56.6476Z" fill="#02A9CE"></path><path d="M418.192 95.3312C418.192 85.4203 410.153 77.3812 400.242 77.3812C390.331 77.3812 382.292 85.4203 382.292 95.3312C382.292 105.242 390.331 113.281 400.242 113.281C410.153 113.281 418.192 105.242 418.192 95.3312Z" fill="#02A9CE"></path><path d="M361.574 43.5515C365.074 43.5515 368.367 44.9164 370.84 47.3894C373.319 49.8686 374.678 53.1556 374.678 56.6555C374.678 63.887 368.799 69.7658 361.574 69.7658C358.074 69.7658 354.781 68.401 352.308 65.928C349.829 63.4486 348.47 60.1617 348.47 56.6555C348.47 49.4303 354.349 43.5515 361.574 43.5515ZM361.574 38.7055C351.663 38.7055 343.624 46.7446 343.624 56.6555C343.624 66.5728 351.663 74.6056 361.574 74.6056C371.485 74.6056 379.524 66.5728 379.524 56.6555C379.524 46.7446 371.485 38.7055 361.574 38.7055Z" fill="#02A9CE"></path><path d="M322.89 74.6054C332.801 74.6054 340.84 66.5663 340.84 56.6553C340.84 46.7444 332.807 38.7053 322.89 38.7053C312.979 38.7053 304.94 46.7444 304.94 56.6553C304.94 66.5663 312.979 74.6054 322.89 74.6054Z" fill="#02A9CE"></path><path d="M361.574 35.9218C371.485 35.9218 379.524 27.8827 379.524 17.9718C379.524 8.06082 371.485 0.0216915 361.574 0.0216915C351.663 0.0216915 343.624 8.06082 343.624 17.9718C343.624 27.8827 351.663 35.9218 361.574 35.9218Z" fill="#02A9CE"></path><path d="M322.89 35.9218C332.801 35.9218 340.84 27.8827 340.84 17.9718C340.84 8.06082 332.807 0.0216915 322.89 0.0216915C312.979 0.0216915 304.94 8.06082 304.94 17.9718C304.94 27.8827 312.979 35.9218 322.89 35.9218Z" fill="#02A9CE"></path><path d="M361.574 113.266C371.485 113.266 379.524 105.227 379.524 95.3157C379.524 85.4047 371.485 77.3656 361.574 77.3656C351.663 77.3656 343.624 85.4047 343.624 95.3157C343.624 105.227 351.663 113.266 361.574 113.266Z" fill="#02A9CE"></path><path d="M322.89 82.2118C326.39 82.2118 329.684 83.5767 332.156 86.0497C334.636 88.5291 335.994 91.8159 335.994 95.3158C335.994 102.547 330.115 108.426 322.89 108.426C315.665 108.426 309.78 102.547 309.78 95.3158C309.787 88.0909 315.665 82.2118 322.89 82.2118ZM322.89 77.3658C312.979 77.3658 304.94 85.4049 304.94 95.3158C304.94 105.233 312.979 113.266 322.89 113.266C332.801 113.266 340.84 105.233 340.84 95.3158C340.84 85.4049 332.801 77.3658 322.89 77.3658Z" fill="#02A9CE"></path><path d="M54.1098 155.077H37.6875C37.4536 148.46 33.3173 144.798 27.6483 144.798C21.8561 144.798 18.3108 147.986 18.3108 153.661C18.3108 159.921 22.804 161.934 32.8434 165.473C50.4473 171.382 56.707 178.707 56.707 191.109C56.707 207.057 44.7782 216.155 29.1799 216.155C10.277 216.155 0.472716 205.051 0.00390625 189.337H16.42C16.777 197.492 21.1472 201.863 29.42 201.863C36.2708 201.863 40.2902 197.96 40.2902 192.531C40.2902 186.973 35.9138 183.785 25.6407 180.362C10.6342 175.518 1.89378 168.901 1.89378 155.076C1.89378 140.667 11.693 130.38 27.9985 130.38C43.479 130.38 53.4009 138.654 54.1098 155.077Z" fill="#02A9CE"></path><path d="M86.4915 154.711H100.199V168.653H86.3745L86.1407 192.869C86.1407 199.018 88.0304 201.498 93.9394 201.498C96.8877 201.498 98.5435 201.141 100.199 200.674V214.141C98.3096 214.849 95.2381 215.434 90.5109 215.434C77.3941 215.434 70.6663 210.122 70.7834 196.537L71.0173 168.653H61.2121V154.711H71.0173L71.1342 140.179H86.6086L86.4915 154.711Z" fill="#02A9CE"></path><path d="M156.837 175.27V214.614H143.726L142.778 207.289C139.59 212.133 134.155 215.912 125.648 215.912C115.012 215.912 107.454 209.412 107.454 198.665C107.454 186.964 115.369 182.477 125.999 180.704L141.48 177.867V175.62C141.48 169.717 138.525 166.523 133.09 166.523C128.012 166.523 124.109 169.6 124.109 174.444H109.226C109.934 162.275 118.914 153.412 133.089 153.412C147.265 153.412 156.836 160.62 156.836 175.269L156.837 175.27ZM129.545 190.627C125.532 191.574 122.811 193.347 122.811 197.361C122.811 200.906 125.291 203.27 129.778 203.27C133.564 203.27 137.226 201.38 139.35 197.835C140.649 195.828 141.48 192.873 141.48 189.919V188.146L129.545 190.627Z" fill="#02A9CE"></path><path d="M227.272 214.627H214.038L212.856 206.595C209.551 211.439 204.116 215.926 193.836 215.926C177.771 215.926 166.076 202.224 166.076 184.621C166.076 167.017 177.771 153.426 193.953 153.426C202.46 153.426 208.726 156.971 211.914 161.224V128.387H227.271L227.272 214.627ZM181.907 184.621C181.907 194.9 188.524 201.517 197.03 201.517C204.589 201.517 212.148 195.725 212.148 184.972V184.264C212.031 173.634 204.472 167.842 197.03 167.842C188.641 167.842 181.907 174.459 181.907 184.621Z" fill="#02A9CE"></path><path d="M259.425 137.125C259.425 142.32 255.172 146.222 250.088 146.222C244.893 146.222 240.756 142.32 240.756 137.125C240.756 132.047 244.893 128.028 250.088 128.028C255.172 128.028 259.425 132.047 259.425 137.125ZM257.769 214.625H242.412V154.727H257.769V214.625Z" fill="#02A9CE"></path><path d="M321.583 214.627H308.472L307.284 206.829C304.569 212.03 299.251 215.926 291.453 215.926C278.576 215.926 272.199 207.186 272.199 193.601V154.731H287.556V190.173C287.556 197.258 290.388 201.043 296.063 201.043C301.615 201.043 306.342 196.556 306.342 186.867V154.73H321.582L321.583 214.627Z" fill="#02A9CE"></path><path d="M419.004 175.75V214.62H403.647V179.062C403.647 172.088 400.932 168.309 395.257 168.309C389.588 168.309 384.978 172.796 384.744 182.25V214.621H369.38V179.062C369.38 172.089 366.549 168.309 360.997 168.309C355.088 168.309 350.484 173.03 350.484 182.959V214.621H335.243V154.723H348.354L349.536 162.515C352.25 157.437 357.685 153.418 365.484 153.418C373.991 153.418 379.777 157.32 382.614 163.937C385.452 158.262 391.361 153.418 399.867 153.418C412.621 153.418 419.004 162.165 419.004 175.749" fill="#02A9CE"></path></svg> 