<?xml version="1.0" encoding="UTF-8"?> <svg xmlns="http://www.w3.org/2000/svg" width="172" height="67" viewBox="0 0 172 67" fill="none"><path d="M52.066 21.1194C52.066 19.2098 50.6369 18.1855 47.9509 18.1855H45.6953V28.8446H46.7973V24.3484C47.09 24.3831 47.5204 24.4178 47.9509 24.4178C50.4647 24.4178 52.066 23.1158 52.066 21.1194ZM46.8145 18.5501H47.8992C49.8104 18.5501 50.8779 19.5223 50.8779 21.293C50.8779 23.0811 49.8104 24.0532 47.882 24.0532C47.4688 24.0532 47.1072 24.0185 46.8317 23.9491V18.5501H46.8145Z" fill="black"></path><path d="M56.3891 18.1855H55.2871V28.8446H56.3891V18.1855Z" fill="black"></path><path d="M66.6343 28.0113H66.4966C65.2741 28.2891 63.7245 28.4453 62.2437 28.4453H61.3828V23.4977H62.1404C63.9655 23.4977 64.8264 23.6192 65.188 23.6887H65.2913V22.9422H65.188C64.6542 23.0464 63.6384 23.0984 62.1404 23.0984H61.3828V18.5848H62.2265C63.5006 18.5848 64.8436 18.7237 66.2211 18.9841H66.3416L66.135 18.1855H60.2637V28.8446H66.3588L66.6343 28.0113Z" fill="black"></path><path d="M76.0152 20.9458C76.0152 19.1403 74.5689 18.1855 71.8484 18.1855H69.6445V28.8446H70.7465V24.1053H71.9345C72.3822 24.1053 72.5027 24.1921 72.7093 24.4178L76.7383 29.0703H76.9105V27.6294L73.6047 23.8102C74.655 23.3762 76.0152 22.6297 76.0152 20.9458ZM70.7465 18.5501H71.8312C73.7596 18.5501 74.8271 19.4355 74.8271 21.0326C74.8271 22.595 73.6907 23.7407 72.1411 23.7407C71.8312 23.7407 71.1081 23.706 70.7465 23.6539V18.5501Z" fill="black"></path><path d="M87.7073 28.6554C86.5881 28.6554 85.2967 28.1346 84.608 27.4054L84.5219 27.3186L84.2637 28.1866L84.3153 28.204C85.0557 28.5859 86.3987 29.0026 87.604 29.0026C89.6185 29.0026 91.0303 27.77 91.0303 25.9993C91.0303 24.1938 89.6012 23.5168 88.3443 22.9092L87.6212 22.5794C86.3126 21.9544 85.4001 21.3989 85.4001 20.2184C85.4001 19.1247 86.261 18.3782 87.5351 18.3782C88.5165 18.3782 89.5496 18.8122 90.3072 19.5587L90.3933 19.6455L90.5999 18.847L90.5482 18.8122C89.9456 18.4477 88.8264 18.0137 87.6384 18.0137C85.7616 18.0137 84.4531 19.1247 84.4531 20.7045C84.4531 22.3884 86.0027 23.1349 87.1391 23.673L87.8622 24.0029C88.9986 24.541 90.1178 25.2007 90.1178 26.5548C90.1178 27.77 89.1019 28.6554 87.7073 28.6554Z" fill="black"></path><path d="M95.4223 18.1855H94.3203V28.8446H95.4223V18.1855Z" fill="black"></path><path d="M106.664 18.2897L106.75 18.1855H105.631L105.614 18.2203C105.287 19.0709 104.563 20.3035 103.479 21.8832L102.928 22.6471L99.4841 18.1855H98.0723L102.205 23.4977L101.223 24.9212C99.8801 26.7961 98.9332 28.046 98.365 28.7404L98.2789 28.8446H99.5358L99.553 28.8099C99.8457 28.046 100.431 26.7788 101.568 25.1643L102.497 23.8449L106.526 29.0356L106.543 29.0529H106.698V27.4905L103.203 22.9943L103.823 22.1263C104.891 20.5812 105.906 19.2098 106.664 18.2897Z" fill="black"></path><path d="M113.259 28.8446V18.5848H113.586C114.464 18.5848 115.359 18.7237 116.461 19.0362H116.599L116.375 18.1855H109.023L108.816 19.0362H108.902H108.954C110.073 18.7237 110.951 18.5848 111.812 18.5848H112.139V28.8446H113.259Z" fill="black"></path><path d="M125.639 18.2203C125.33 19.2098 124.675 20.5639 123.642 22.3693L122.936 23.6192L119.889 18.2203L119.871 18.1855H118.58L122.024 24.1748V28.8446H123.126V24.1053L123.987 22.5776C124.847 21.0499 125.639 19.6959 126.483 18.2897L126.552 18.1855H125.657L125.639 18.2203Z" fill="black"></path><path d="M45.3341 45.0598C44.4732 46.3965 43.1647 47.143 41.6667 47.143C39.1529 47.143 37.3967 45.0598 37.3967 42.0739C37.3967 39.2095 39.1012 37.1436 41.4257 37.1436C42.7859 37.1436 43.9567 37.8207 44.8176 39.088L44.8693 39.1574L45.5408 38.5498L45.5063 38.4977C44.611 37.404 43.1647 36.7617 41.529 36.7617C38.3953 36.7617 36.1914 39.0532 36.1914 42.3343C36.1914 45.5285 38.2748 47.768 41.2707 47.768C43.1302 47.768 44.5938 46.9173 45.6613 45.216L45.6957 45.164L45.403 44.9904L45.3341 45.0598Z" fill="black"></path><path d="M53.4609 36.7793C50.2756 36.7793 47.9512 39.1229 47.9512 42.3692C47.9512 45.5635 50.1379 47.7855 53.2887 47.7855C56.4741 47.7855 58.7985 45.4419 58.7985 42.1956C58.7813 39.0014 56.5946 36.7793 53.4609 36.7793ZM57.5588 42.3519C57.5588 45.3378 55.8542 47.4383 53.4265 47.4383C50.9643 47.4383 49.1736 45.251 49.1736 42.2477C49.1736 39.2618 50.8782 37.1612 53.3404 37.1612C55.7853 37.1439 57.5588 39.3312 57.5588 42.3519Z" fill="black"></path><path d="M63.5165 47.2129H63.2582V36.9531H62.1562V47.6122H66.9256L67.2183 46.7615H67.0806C65.8409 47.074 64.6529 47.2129 63.5165 47.2129Z" fill="black"></path><path d="M71.5067 47.2129H71.2484V36.9531H70.1465V47.6122H74.9159L75.2086 46.7615H75.0708C73.8311 47.074 72.6431 47.2129 71.5067 47.2129Z" fill="black"></path><path d="M80.0953 47.2129H79.2344V42.2653H79.992C81.8171 42.2653 82.678 42.3868 83.0396 42.4562H83.1429V41.7098H83.0396C82.5058 41.8139 81.49 41.866 79.992 41.866H79.2344V37.3524H80.0781C81.3522 37.3524 82.6952 37.4913 84.0726 37.7517H84.1932L83.9866 36.9531H78.1152V47.6122H84.176L84.4687 46.7789H84.3309C83.1084 47.0567 81.5588 47.2129 80.0953 47.2129Z" fill="black"></path><path d="M95.713 45.0598C94.8521 46.3965 93.5436 47.143 92.0456 47.143C89.5318 47.143 87.7756 45.0598 87.7756 42.0739C87.7756 39.2095 89.4801 37.1436 91.8046 37.1436C93.1648 37.1436 94.3356 37.8207 95.1965 39.088L95.2482 39.1574L95.9197 38.5498L95.8852 38.4977C94.9899 37.404 93.5436 36.7617 91.9079 36.7617C88.7742 36.7617 86.5703 39.0532 86.5703 42.3343C86.5703 45.5285 88.6537 47.768 91.6496 47.768C93.5091 47.768 94.9727 46.9173 96.0402 45.216L96.0746 45.164L95.7819 44.9904L95.713 45.0598Z" fill="black"></path><path d="M98.0562 36.9531L97.8496 37.8038H97.9357H97.9874C99.1065 37.4913 99.9846 37.3524 100.846 37.3524H101.173V47.6122H102.292V37.3524H102.619C103.497 37.3524 104.392 37.4913 105.494 37.8038H105.632L105.408 36.9531H98.0562Z" fill="black"></path><path d="M109.661 36.9531H108.559V47.6122H109.661V36.9531Z" fill="black"></path><path d="M118.527 36.7793C115.342 36.7793 113.018 39.1229 113.018 42.3692C113.018 45.5635 115.204 47.7855 118.355 47.7855C121.54 47.7855 123.865 45.4419 123.865 42.1956C123.865 39.0014 121.678 36.7793 118.527 36.7793ZM122.642 42.3519C122.642 45.3378 120.938 47.4383 118.51 47.4383C116.048 47.4383 114.257 45.251 114.257 42.2477C114.257 39.2618 115.962 37.1612 118.424 37.1612C120.869 37.1439 122.642 39.3312 122.642 42.3519Z" fill="black"></path><path d="M133.679 36.9529L133.697 37.0223C133.834 38.0813 133.886 39.418 133.886 41.6054V45.5461L128.032 36.9703L128.015 36.9355H126.758V37.0744L127.309 37.873V42.9421C127.309 44.9559 127.257 46.3794 127.119 47.5252V47.5946H127.929L127.911 47.5252C127.774 46.4662 127.722 45.1295 127.722 42.9421V38.4806L134.093 47.7508L134.11 47.7856H134.316V41.6227C134.316 39.609 134.368 38.1855 134.506 37.0397V36.9703H133.679V36.9529Z" fill="black"></path><path d="M79.1896 9.74998V6.59046H77.9844V6.01758H81.032V6.60782H79.8267V9.76734H79.1896V9.74998Z" fill="black"></path><path d="M85.7299 9.74976V8.13528H83.8187V9.74976H83.1816V6H83.8187V7.54504H85.7299V6H86.367V9.74976H85.7299Z" fill="black"></path><path d="M88.9004 9.74998V6.01758H91.1732V6.60782H89.5375V7.5279H90.8632V8.11814H89.5375V9.19446H91.3453V9.7847H88.9004V9.74998Z" fill="black"></path><path d="M15.0664 60.3036V57.1094H15.8068C16.5816 57.1094 17.2014 57.3351 17.2014 58.0815C17.2014 58.7412 16.8054 59.1579 15.9273 59.1579H15.6174V60.2863H15.0664V60.3036ZM15.8584 58.6891C16.4955 58.6891 16.6332 58.394 16.6332 58.1163C16.6332 57.8559 16.4611 57.6128 16.065 57.6128H15.6174V58.6891H15.8584Z" fill="black"></path><path d="M19.0918 60.3036V57.1094H19.6428V60.3036H19.0918Z" fill="black"></path><path d="M21.7969 60.3019V57.125H23.7425V57.6284H22.3478V58.4096H23.467V58.9131H22.3478V59.8332H23.8802V60.3366H21.7969V60.3019Z" fill="black"></path><path d="M27.7562 60.3036L26.3615 59.0363V60.3036H25.8105V57.1094H26.5509C27.3602 57.1094 27.9456 57.3524 27.9456 58.0815C27.9456 58.5676 27.7045 58.9669 27.1191 59.0884L28.531 60.3036H27.7562ZM26.6198 58.6891C27.1535 58.6891 27.3774 58.4635 27.3774 58.1163C27.3774 57.8038 27.1708 57.6128 26.7403 57.6128H26.3615V58.6891H26.6198Z" fill="black"></path><path d="M32.7673 59.5042C32.9223 59.6778 33.2494 59.8861 33.6282 59.8861C33.9726 59.8861 34.2308 59.7299 34.2308 59.4521C34.2308 58.723 32.6812 58.9139 32.6812 57.8897C32.6812 57.3342 33.1978 57.0391 33.766 57.0391C34.2308 57.0391 34.5408 57.23 34.7129 57.4036L34.4547 57.7855C34.2825 57.6293 34.0587 57.5078 33.7832 57.5078C33.5077 57.5078 33.2839 57.6293 33.2839 57.8723C33.2839 58.532 34.8335 58.289 34.8335 59.4521C34.8335 59.9035 34.403 60.3548 33.6282 60.3548C33.1289 60.3548 32.6468 60.0944 32.4746 59.8687L32.7673 59.5042Z" fill="black"></path><path d="M36.7598 60.3036V57.1094H37.3107V60.3036H36.7598Z" fill="black"></path><path d="M41.5673 60.3019L40.6719 59.0867L39.7766 60.3019H39.0879L40.3792 58.67L39.1912 57.125H39.8799L40.7064 58.236L41.5328 57.125H42.2216L40.9991 58.67L42.256 60.3019H41.5673Z" fill="black"></path><path d="M44.7131 60.3036V57.6128H43.6973V57.1094H46.28V57.6128H45.2641V60.3036H44.7131Z" fill="black"></path><path d="M48.8123 60.3019V58.9825L47.5898 57.125H48.2613L49.0878 58.4791L49.9315 57.125H50.5858L49.3461 58.9825V60.3019H48.8123Z" fill="black"></path><path d="M54.8887 60.8747V56.6562H55.4052V60.8747H54.8887Z" fill="black"></path><path d="M55.5271 60.9793H54.7695V56.5352H55.5271V60.9793ZM55.0106 60.7536H55.2861V56.7782H55.0106V60.7536Z" fill="black"></path><path d="M60.9006 60.3036V57.6128H59.8848V57.1094H62.4675V57.6128H61.4516V60.3036H60.9006Z" fill="black"></path><path d="M66.4425 60.3036V58.9322H64.8068V60.3036H64.2559V57.1094H64.8068V58.4287H66.4425V57.1094H66.9935V60.3036H66.4425Z" fill="black"></path><path d="M69.1486 60.3019V57.125H71.0942V57.6284H69.6995V58.4096H70.8187V58.9131H69.6995V59.8332H71.2319V60.3366H69.1486V60.3019Z" fill="black"></path><path d="M75.791 60.3019V57.125H76.342V59.8158H77.7711V60.3192H75.791V60.3019Z" fill="black"></path><path d="M79.5781 60.3036V57.1094H80.1291V60.3036H79.5781Z" fill="black"></path><path d="M84.0754 59.1049V58.6015H85.5045C85.5045 59.834 84.6953 60.3722 83.886 60.3722C82.9046 60.3722 82.0781 59.6431 82.0781 58.723C82.0781 57.7855 82.8529 57.0391 83.8688 57.0391C84.678 57.0391 85.1257 57.4383 85.1429 57.4557L84.8674 57.855C84.8502 57.8376 84.5059 57.5251 83.9204 57.5251C83.094 57.5251 82.6635 58.0459 82.6635 58.723C82.6635 59.3132 83.1801 59.8687 83.886 59.8687C84.4542 59.8687 84.8847 59.5215 84.9363 59.0875H84.0754V59.1049Z" fill="black"></path><path d="M89.5695 60.3036V58.9322H87.9338V60.3036H87.3828V57.1094H87.9338V58.4287H89.5695V57.1094H90.1205V60.3036H89.5695Z" fill="black"></path><path d="M92.9592 60.3036V57.6128H91.9434V57.1094H94.5261V57.6128H93.5102V60.3036H92.9592Z" fill="black"></path><path d="M98.5207 60.3036V58.9322H96.885V60.3036H96.334V57.1094H96.885V58.4287H98.5207V57.1094H99.0716V60.3036H98.5207Z" fill="black"></path><path d="M102.776 60.3722C101.777 60.3722 101.02 59.6257 101.02 58.7056C101.02 57.7855 101.777 57.0391 102.776 57.0391C103.774 57.0391 104.515 57.7682 104.515 58.723C104.515 59.6257 103.723 60.3722 102.776 60.3722ZM102.776 57.5425C102.087 57.5425 101.588 58.0459 101.588 58.7056C101.588 59.3479 102.087 59.8861 102.759 59.8861C103.447 59.8861 103.964 59.3827 103.964 58.723C103.947 58.0459 103.447 57.5425 102.776 57.5425Z" fill="black"></path><path d="M108.576 57.1094H109.127V59.9217C108.886 60.1821 108.438 60.3557 107.767 60.3557C106.923 60.3557 106.424 59.9391 106.424 59.1231V57.1094H106.975V58.7759C106.975 59.5745 107.164 59.8696 107.818 59.8696C108.111 59.8696 108.387 59.8175 108.559 59.6787V57.1094H108.576Z" fill="black"></path><path d="M111.26 59.5042C111.414 59.6778 111.742 59.8861 112.12 59.8861C112.465 59.8861 112.723 59.7299 112.723 59.4521C112.723 58.723 111.173 58.9139 111.173 57.8897C111.173 57.3342 111.69 57.0391 112.258 57.0391C112.723 57.0391 113.033 57.23 113.205 57.4036L112.947 57.7855C112.775 57.6293 112.551 57.5078 112.275 57.5078C112 57.5078 111.776 57.6293 111.776 57.8723C111.776 58.532 113.326 58.289 113.326 59.4521C113.326 59.9035 112.895 60.3548 112.12 60.3548C111.621 60.3548 111.139 60.0944 110.967 59.8687L111.26 59.5042Z" fill="black"></path><path d="M115.273 60.3019V57.125H117.219V57.6284H115.824V58.4096H116.943V58.9131H115.824V59.8332H117.357V60.3366H115.273V60.3019Z" fill="black"></path><path d="M121.937 60.8747V56.6562H122.454V60.8747H121.937Z" fill="black"></path><path d="M122.574 60.9793H121.834V56.5352H122.574V60.9793ZM122.058 60.7536H122.333V56.7782H122.058V60.7536Z" fill="black"></path><path d="M130.114 59.9555C129.856 60.1812 129.477 60.3722 128.926 60.3722C127.858 60.3722 127.066 59.6083 127.066 58.7056C127.066 57.8029 127.807 57.0391 128.874 57.0391C129.546 57.0391 129.976 57.3689 130.097 57.4904L129.804 57.8723C129.58 57.664 129.288 57.5425 128.857 57.5425C128.151 57.5425 127.652 58.0459 127.652 58.7403C127.652 59.3827 128.22 59.8861 128.926 59.8861C129.408 59.8861 129.701 59.7299 129.873 59.591L130.114 59.9555Z" fill="black"></path><path d="M134.144 57.1094H134.695V59.9217C134.454 60.1821 134.007 60.3557 133.335 60.3557C132.492 60.3557 131.992 59.9391 131.992 59.1231V57.1094H132.543V58.7759C132.543 59.5745 132.733 59.8696 133.387 59.8696C133.68 59.8696 133.955 59.8175 134.127 59.6787V57.1094H134.144Z" fill="black"></path><path d="M138.778 60.3036L137.383 59.0363V60.3036H136.832V57.1094H137.572C138.364 57.1094 138.967 57.3524 138.967 58.0815C138.967 58.5676 138.726 58.9669 138.141 59.0884L139.552 60.3036H138.778ZM137.624 58.6891C138.158 58.6891 138.382 58.4635 138.382 58.1163C138.382 57.8038 138.175 57.6128 137.745 57.6128H137.366V58.6891H137.624Z" fill="black"></path><path d="M143.116 60.3036L141.721 59.0363V60.3036H141.17V57.1094H141.91C142.702 57.1094 143.305 57.3524 143.305 58.0815C143.305 58.5676 143.064 58.9669 142.478 59.0884L143.89 60.3036H143.116ZM141.962 58.6891C142.496 58.6891 142.72 58.4635 142.72 58.1163C142.72 57.8038 142.513 57.6128 142.082 57.6128H141.704V58.6891H141.962Z" fill="black"></path><path d="M145.508 60.3019V57.125H147.453V57.6284H146.059V58.4096H147.178V58.9131H146.059V59.8332H147.591V60.3366H145.508V60.3019Z" fill="black"></path><path d="M150.055 58.2367L150.072 60.3025H149.521V57.0215L152.001 59.2088L151.984 57.1083H152.535V60.4067L150.055 58.2367Z" fill="black"></path><path d="M155.373 60.3036V57.6128H154.357V57.1094H156.94V57.6128H155.924V60.3036H155.373Z" fill="black"></path></svg> 