<?xml version="1.0" encoding="UTF-8"?> <svg xmlns="http://www.w3.org/2000/svg" width="38" height="84" viewBox="0 0 38 84" fill="none"><circle cx="34.0576" cy="2.84822" r="2.83672" transform="rotate(89.7673 34.0576 2.84822)" fill="#80DAE0"></circle><circle cx="18.4561" cy="2.91267" r="2.83672" transform="rotate(89.7673 18.4561 2.91267)" fill="#80DAE0"></circle><circle cx="2.8506" cy="2.97517" r="2.83672" transform="rotate(89.7673 2.8506 2.97517)" fill="#80DAE0"></circle><circle cx="34.1162" cy="18.4478" r="2.83672" transform="rotate(89.7673 34.1162 18.4478)" fill="#80DAE0"></circle><circle cx="18.5225" cy="18.5142" r="2.83672" transform="rotate(89.7673 18.5225 18.5142)" fill="#80DAE0"></circle><circle cx="2.92091" cy="18.5787" r="2.83672" transform="rotate(89.7673 2.92091 18.5787)" fill="#80DAE0"></circle><circle cx="34.1826" cy="34.0513" r="2.83672" transform="rotate(89.7673 34.1826 34.0513)" fill="#80DAE0"></circle><circle cx="18.5811" cy="34.1158" r="2.83672" transform="rotate(89.7673 18.5811 34.1158)" fill="#80DAE0"></circle><circle cx="2.97951" cy="34.1763" r="2.83672" transform="rotate(89.7673 2.97951 34.1763)" fill="#80DAE0"></circle><circle cx="34.2451" cy="49.651" r="2.83672" transform="rotate(89.7673 34.2451 49.651)" fill="#80DAE0"></circle><circle cx="18.6475" cy="49.7174" r="2.83672" transform="rotate(89.7673 18.6475 49.7174)" fill="#80DAE0"></circle><circle cx="3.0381" cy="49.7818" r="2.83672" transform="rotate(89.7673 3.0381 49.7818)" fill="#80DAE0"></circle><circle cx="34.3115" cy="65.2564" r="2.83672" transform="rotate(89.7673 34.3115 65.2564)" fill="#80DAE0"></circle><circle cx="18.71" cy="65.3189" r="2.83672" transform="rotate(89.7673 18.71 65.3189)" fill="#80DAE0"></circle><circle cx="3.10451" cy="65.3834" r="2.83672" transform="rotate(89.7673 3.10451 65.3834)" fill="#80DAE0"></circle><circle cx="34.374" cy="80.856" r="2.83672" transform="rotate(89.7673 34.374 80.856)" fill="#80DAE0"></circle><circle cx="18.7764" cy="80.9224" r="2.83672" transform="rotate(89.7673 18.7764 80.9224)" fill="#80DAE0"></circle><circle cx="3.16701" cy="80.9849" r="2.83672" transform="rotate(89.7673 3.16701 80.9849)" fill="#80DAE0"></circle></svg> 