<?xml version="1.0" encoding="UTF-8"?> <svg xmlns="http://www.w3.org/2000/svg" width="42" height="42" viewBox="0 0 42 42" fill="none"><path d="M15.7499 15.7515C15.4018 15.7515 15.068 15.6132 14.8219 15.3671C14.5758 15.1209 14.4375 14.7871 14.4375 14.4391V9.18937C14.4375 8.8413 14.5758 8.50748 14.8219 8.26135C15.068 8.01523 15.4018 7.87695 15.7499 7.87695C16.098 7.87695 16.4318 8.01523 16.6779 8.26135C16.9241 8.50748 17.0623 8.8413 17.0623 9.18937V14.4391C17.0623 14.7871 16.9241 15.1209 16.6779 15.3671C16.4318 15.6132 16.098 15.7515 15.7499 15.7515Z" fill="#CC52A3"></path><path d="M41.8421 40.0741L30.0303 17.7629C29.9188 17.5522 29.7519 17.3758 29.5477 17.2527C29.3434 17.1297 29.1095 17.0646 28.8711 17.0645C28.6327 17.0645 28.3989 17.1294 28.1947 17.2522C27.9904 17.3751 27.8235 17.5512 27.7118 17.7617L22.3309 27.9067C22.2287 28.0992 22.1761 28.314 22.1778 28.5318C22.1794 28.7497 22.2354 28.9636 22.3405 29.1545L29.0338 41.3206C29.1469 41.5264 29.3132 41.6981 29.5153 41.8177C29.7174 41.9373 29.948 42.0004 30.1828 42.0004H40.6822C40.9085 42.0004 41.1309 41.9419 41.3279 41.8306C41.5249 41.7192 41.6897 41.5589 41.8065 41.365C41.9232 41.1711 41.9878 40.9504 41.994 40.7242C42.0003 40.498 41.9479 40.2741 41.8421 40.0741Z" fill="#EBC9E0"></path><path d="M31.3357 40.0554L16.8991 13.807C16.7858 13.601 16.6194 13.4293 16.4171 13.3097C16.2148 13.1901 15.9841 13.127 15.7491 13.127C15.5141 13.127 15.2834 13.1901 15.0811 13.3097C14.8788 13.4293 14.7123 13.601 14.5991 13.807L0.162443 40.0554C0.0525233 40.2552 -0.00340905 40.4803 0.000160778 40.7084C0.00373061 40.9364 0.0666794 41.1596 0.182801 41.356C0.298922 41.5523 0.464206 41.715 0.662356 41.8279C0.860507 41.9409 1.08468 42.0003 1.31278 42.0002H30.186C30.4141 42.0002 30.6381 41.9407 30.8362 41.8277C31.0343 41.7147 31.1995 41.552 31.3155 41.3557C31.4315 41.1594 31.4944 40.9362 31.498 40.7082C31.5015 40.4802 31.4456 40.2552 31.3357 40.0554Z" fill="#F5DCED"></path><path d="M15.7465 24.9388C17.964 24.943 20.1253 24.2419 21.9182 22.937L16.8968 13.807C16.7836 13.601 16.6171 13.4293 16.4149 13.3097C16.2126 13.1901 15.9819 13.127 15.7468 13.127C15.5118 13.127 15.2811 13.1901 15.0788 13.3097C14.8765 13.4293 14.7101 13.601 14.5968 13.807L9.57617 22.9354C11.3686 24.2404 13.5294 24.9419 15.7465 24.9388Z" fill="#CC52A3"></path><path d="M26.225 2.62741C24.6005 2.66824 22.9961 2.26216 21.5866 1.45345C19.8065 0.460266 17.7938 -0.0405461 15.7558 0.00256606C15.4075 0.00273316 15.0734 0.140692 14.8264 0.38633C14.5794 0.631968 14.4396 0.965338 14.4375 1.31367V10.5531C16.4985 10.2612 18.5982 10.6559 20.4126 11.6763C22.1927 12.6693 24.2054 13.17 26.2434 13.1268C26.5917 13.1266 26.9258 12.9886 27.1728 12.743C27.4198 12.4974 27.5596 12.164 27.5617 11.8157V3.93523C27.56 3.76154 27.524 3.58988 27.4559 3.4301C27.3878 3.27032 27.2888 3.12555 27.1646 3.00407C27.0404 2.88259 26.8935 2.78679 26.7323 2.72216C26.5711 2.65752 26.3987 2.62533 26.225 2.62741Z" fill="#CC52A3"></path></svg> 