<?xml version="1.0" encoding="UTF-8"?> <svg xmlns="http://www.w3.org/2000/svg" width="128" height="35" viewBox="0 0 128 35" fill="none"><g clip-path="url(#clip0_9796_26598)"><path fill-rule="evenodd" clip-rule="evenodd" d="M17.542 24.7645V24.7715C17.5437 24.7701 17.5458 24.7688 17.5479 24.768C17.5502 24.7688 17.5519 24.7701 17.5544 24.7715V24.7645C18.6054 24.1871 19.4538 23.4432 20.1384 22.6074H14.957C15.6417 23.4432 16.4905 24.1871 17.542 24.7645Z" fill="#97A49F"></path><path fill-rule="evenodd" clip-rule="evenodd" d="M15.1706 13.7823C15.1706 12.5059 14.3678 12.5059 14.3678 12.5059H12.1575C12.1575 12.5059 11.6928 18.4131 14.7974 22.4117C14.981 22.1987 15.1706 21.7562 15.1706 20.8514V13.7823Z" fill="#97A49F"></path><path fill-rule="evenodd" clip-rule="evenodd" d="M16.8867 21.494H19.1095C20.5032 21.494 20.9547 21.3297 21.4559 20.5187C23.2665 16.7806 22.9305 12.5059 22.9305 12.5059H17.5385C16.8867 12.5059 16.8867 13.1281 16.8867 13.7823V21.494Z" fill="#97A49F"></path><path fill-rule="evenodd" clip-rule="evenodd" d="M21.0446 24.7913C20.7979 24.7913 20.5977 24.5922 20.5977 24.3463C20.5977 24.1001 20.7979 23.9004 21.0446 23.9004C21.291 23.9004 21.491 24.1001 21.491 24.3463C21.491 24.5922 21.291 24.7913 21.0446 24.7913ZM21.0446 23.9657C20.8372 23.9657 20.6696 24.1366 20.6696 24.3463C20.6696 24.5551 20.8372 24.7266 21.0446 24.7266C21.2516 24.7266 21.4205 24.5551 21.4205 24.3463C21.4205 24.1366 21.2516 23.9657 21.0446 23.9657ZM21.1529 24.5895L21.0408 24.3904H20.9667V24.5895H20.8992V24.1013H21.0654C21.1503 24.1013 21.2196 24.1652 21.2196 24.2478C21.2196 24.3186 21.175 24.3631 21.1148 24.3816L21.2317 24.5895H21.1529ZM21.0581 24.1613H20.9667V24.3325H21.0581C21.1122 24.3325 21.1503 24.2966 21.1503 24.2478C21.1503 24.1986 21.1122 24.1613 21.0581 24.1613Z" fill="#97A49F"></path><mask id="mask0_9796_26598" style="mask-type:alpha" maskUnits="userSpaceOnUse" x="0" y="0" width="36" height="35"><path d="M0 0H35.0924V34.9165H0V0Z" fill="white"></path></mask><g mask="url(#mask0_9796_26598)"><path fill-rule="evenodd" clip-rule="evenodd" d="M33.2292 9.56445C34.0555 11.1407 34.6094 12.822 34.8693 14.5967C35.6934 20.224 34.2491 25.1999 30.3793 29.4125C28.2891 31.6884 25.7497 33.3261 22.7763 34.1855C20.8999 34.7278 19.2509 34.8743 18.3146 34.9102L16.7305 32.5802L18.3752 30.3609C25.1403 29.9108 30.4885 24.292 30.4885 17.4278C30.4885 15.5132 30.0697 13.6975 29.3227 12.0624L32.1076 12.2076L33.2292 9.56445Z" fill="#E3832D"></path><path fill-rule="evenodd" clip-rule="evenodd" d="M6.17393 11.0383C5.09868 12.9248 4.48375 15.106 4.48375 17.4316C4.48375 24.4844 10.129 30.2217 17.1565 30.3897L15.5478 32.5533L17.1604 34.9168C16.0596 34.8923 12.2821 34.6744 9.22565 32.8947C8.08498 32.23 6.98938 31.5068 5.99378 30.6305C4.56601 29.3744 3.36906 27.9359 2.40424 26.3017C1.13539 24.1524 0.364992 21.8321 0.103863 19.3579C-0.278955 15.7321 0.39574 12.3142 2.14007 9.12621L4.98305 8.76758L6.17393 11.0383Z" fill="#CEA431"></path><path fill-rule="evenodd" clip-rule="evenodd" d="M6.77606 10.1133C9.11627 6.70358 13.044 4.46444 17.4984 4.46444C22.3619 4.46444 26.5985 7.13265 28.8248 11.0803L31.4708 11.2138L32.6132 8.47346C32.5135 8.30494 32.4274 8.16062 32.4097 8.13426C28.53 2.40334 23.1407 -0.387158 16.2057 0.0432135C11.4838 0.336177 7.56682 2.40247 4.40814 5.90118C3.87332 6.49359 3.21856 7.31458 2.74609 8.07203L5.51069 7.7095L6.77606 10.1133Z" fill="#697572"></path></g><path fill-rule="evenodd" clip-rule="evenodd" d="M40.9163 24.8359V23.8685L41.3034 23.7803C41.6914 23.6921 41.9374 23.5871 41.9374 22.9718V14.6557C41.9374 14.0564 41.6558 13.9345 41.1986 13.8287L40.8984 13.7587V12.8789H44.476V13.7587L44.1758 13.8287C43.7177 13.9345 43.4361 14.0564 43.4361 14.6557V22.9365C43.4361 23.6048 43.8232 23.6048 44.3347 23.6048H46.7139C47.5596 23.6048 47.6471 23.4113 47.7355 23.0609L47.8416 22.6733H48.7579V24.8359H40.9163Z" fill="#97A49F"></path><path fill-rule="evenodd" clip-rule="evenodd" d="M52.2812 24.8359V23.9571L52.6862 23.8685C53.0745 23.7803 53.3209 23.6745 53.3209 23.0609V14.6557C53.3209 14.0564 53.0386 13.9345 52.5814 13.8287L52.2812 13.7587V12.8789H60.3347V15.0424H59.3122L59.2074 14.6734C59.0837 14.3035 58.978 14.1095 58.3609 14.1095H55.4533C54.942 14.1095 54.8193 14.2858 54.8193 14.9543V18.2598H57.0565C57.7442 18.2598 57.8326 18.1889 57.9555 17.8195L58.079 17.4155H58.9424V20.2457H58.079L57.9378 19.8413C57.8144 19.4724 57.7442 19.4024 57.0565 19.4024H54.8193V22.7615C54.8193 23.4291 54.942 23.6048 55.4533 23.6048H58.5548C59.1719 23.6048 59.2949 23.4113 59.3997 23.0609L59.5066 22.6733H60.5283V24.8359H52.2812Z" fill="#97A49F"></path><path fill-rule="evenodd" clip-rule="evenodd" d="M72.652 24.8357L72.2635 24.0099H72.1929C71.6464 24.6252 70.3948 25.0289 69.391 25.0289C67.0824 25.0289 64.7383 24.0622 64.7383 20.5986V17.3453C64.7383 14.0039 66.924 12.6855 69.391 12.6855C71.5057 12.6855 72.8455 13.3354 73.6908 13.8116C73.6908 15.6567 73.6379 16.2201 73.6379 16.2201H72.2106V14.7082C71.5404 14.2502 70.4127 14.0039 69.391 14.0039C67.946 14.0039 66.2368 14.7601 66.2368 17.2213V20.5628C66.2368 23.4819 68.4747 23.7096 69.391 23.7096C70.5187 23.7096 71.6641 23.1466 72.1929 22.2681V20.3349L70.7474 20.1587V19.0326H73.7263V24.8357H72.652Z" fill="#97A49F"></path><path fill-rule="evenodd" clip-rule="evenodd" d="M78.1328 24.8359V23.9571L78.539 23.8685C78.9257 23.7803 79.173 23.6745 79.173 23.0609V14.6557C79.173 14.0564 78.8902 13.9345 78.4329 13.8287L78.1328 13.7587V12.8789H86.1861V15.0424H85.1641L85.0586 14.6734C84.9347 14.3035 84.8287 14.1095 84.2123 14.1095H81.3049C80.7944 14.1095 80.6705 14.2858 80.6705 14.9543V18.2598H82.9093C83.5953 18.2598 83.6836 18.1889 83.807 17.8195L83.9304 17.4155H84.794V20.2457H83.9304L83.7893 19.8413C83.6658 19.4724 83.5953 19.4024 82.9093 19.4024H80.6705V22.7615C80.6705 23.4291 80.7944 23.6048 81.3049 23.6048H84.4067C85.0226 23.6048 85.1465 23.4113 85.2522 23.0609L85.3573 22.6733H86.3802V24.8359H78.1328Z" fill="#97A49F"></path><path fill-rule="evenodd" clip-rule="evenodd" d="M98.9271 24.8359L93.112 15.147V23.0609C93.112 23.6745 93.3584 23.7803 93.7455 23.8685L94.1522 23.9571V24.8359H90.6445V23.9571L91.0495 23.8685C91.4378 23.7803 91.7015 23.6745 91.7015 23.0609V14.6557C91.7015 14.0564 91.4196 13.9345 90.9788 13.8287L90.6795 13.7587V12.8789H93.3936L98.9093 22.0575V14.6557C98.9093 14.0564 98.6279 13.9345 98.1692 13.8287L97.8691 13.7587V12.8789H101.358V13.7587L101.06 13.8287C100.602 13.9345 100.319 14.0564 100.319 14.6557V24.8359H98.9271Z" fill="#97A49F"></path><path fill-rule="evenodd" clip-rule="evenodd" d="M110.308 23.6044C112.088 23.6044 113.798 22.5134 113.798 18.962C113.798 15.5873 112.652 14.1095 110.449 14.1095H108.651C108.142 14.1095 108.018 14.1977 108.018 14.7776V22.9191C108.018 23.6044 108.142 23.6044 108.651 23.6044H110.308ZM105.48 24.8355V23.9567L105.886 23.8681C106.273 23.7799 106.519 23.674 106.519 23.0605V14.6553C106.519 14.056 106.238 13.9345 105.78 13.8287L105.48 13.7582V12.8789H110.608C113.41 12.8789 115.349 14.6903 115.349 18.962C115.349 21.7935 114.08 24.8355 110.274 24.8355H105.48Z" fill="#97A49F"></path><path fill-rule="evenodd" clip-rule="evenodd" d="M125.783 16.0438L125.677 14.531C125.166 14.1975 124.144 14.0035 123.51 14.0035C122.152 14.0035 120.935 14.4075 120.935 15.7621C120.935 18.804 127.51 17.1332 127.51 21.4952C127.51 23.6746 126.082 25.0111 123.404 25.0111C121.271 25.0111 120.09 24.449 119.387 24.0622C119.387 22.2155 119.527 21.6352 119.527 21.6352H120.761L120.935 23.1657C121.57 23.5346 122.645 23.6919 123.404 23.6919C124.937 23.6919 126.012 22.919 126.012 21.6352C126.012 18.576 119.438 19.7884 119.438 15.9561C119.438 13.4417 121.289 12.6855 123.457 12.6855C125.271 12.6855 126.452 13.1959 127.175 13.5999C127.175 15.4467 127.069 16.0438 127.069 16.0438H125.783Z" fill="#97A49F"></path></g><defs><clipPath id="clip0_9796_26598"><rect width="127.575" height="35" fill="white"></rect></clipPath></defs></svg> 