<?xml version="1.0" encoding="UTF-8"?> <svg xmlns="http://www.w3.org/2000/svg" width="32" height="29" viewBox="0 0 32 29" fill="none"><path d="M28.2715 12.1604C28.2014 12.1149 28.1209 12.0878 28.0376 12.0815C27.9542 12.0752 27.8706 12.09 27.7945 12.1245L16 17.4518L4.20555 12.1249C4.12942 12.0905 4.04591 12.0758 3.96263 12.082C3.87935 12.0883 3.79897 12.1153 3.72881 12.1606C3.65865 12.2059 3.60095 12.268 3.56098 12.3413C3.52101 12.4147 3.50005 12.4968 3.5 12.5804V19.0804C3.50005 19.1766 3.52785 19.2707 3.58008 19.3515C3.63231 19.4323 3.70674 19.4963 3.79445 19.5359L15.7944 24.9559C15.859 24.9852 15.9291 25.0003 16 25.0004C16.0709 25.0004 16.1409 24.9853 16.2055 24.9562L28.2055 19.5362C28.2933 19.4966 28.3678 19.4325 28.42 19.3517C28.4722 19.2708 28.5 19.1766 28.5 19.0804V12.5804C28.5 12.4968 28.4791 12.4146 28.4392 12.3413C28.3993 12.2679 28.3416 12.2057 28.2715 12.1604Z" fill="#269FBD"></path><path d="M16.2055 24.9871L28.2055 19.5671C28.2933 19.5275 28.3677 19.4635 28.42 19.3826C28.4722 19.3018 28.5 19.2076 28.5 19.1114V12.6114C28.5 12.5278 28.4791 12.4456 28.4391 12.3723C28.3992 12.2989 28.3415 12.2367 28.2713 12.1914C28.2012 12.146 28.1208 12.119 28.0375 12.1127C27.9541 12.1065 27.8706 12.1212 27.7945 12.1555L16 17.4827V25.0313C16.0709 25.0313 16.141 25.0163 16.2055 24.9871Z" fill="#269FBD"></path><path d="M31.7715 7.08012C31.7013 7.03474 31.6209 7.00768 31.5375 7.00141C31.4542 6.99514 31.3706 7.00986 31.2945 7.04422L21.1145 11.6392L16 13.9515L0.70555 7.04457C0.629419 7.01023 0.5459 6.99552 0.462619 7.00176C0.379338 7.008 0.298948 7.03501 0.228787 7.08031C0.158626 7.12561 0.100929 7.18776 0.0609648 7.2611C0.0210004 7.33443 4.09389e-05 7.4166 0 7.50012L0 11.0001C4.25492e-05 11.0964 0.0278434 11.1906 0.0800695 11.2714C0.132296 11.3522 0.20673 11.4163 0.29445 11.4559L15.7944 18.4557C15.859 18.4849 15.9291 18.5001 16 18.5001C16.0709 18.5002 16.1409 18.4851 16.2055 18.4559L31.7055 11.4559C31.7933 11.4163 31.8677 11.3522 31.9199 11.2714C31.9722 11.1906 32 11.0964 32 11.0001V7.50012C32.0001 7.41659 31.9792 7.33438 31.9392 7.26101C31.8993 7.18764 31.8417 7.12545 31.7715 7.08012Z" fill="#1E7F97"></path><path d="M16.2055 18.4558L31.7055 11.4558C31.7933 11.4162 31.8677 11.3521 31.9199 11.2713C31.9722 11.1904 32 11.0963 32 11V7.50001C32 7.41647 31.9791 7.33426 31.9391 7.2609C31.8992 7.18753 31.8415 7.12535 31.7713 7.08002C31.7012 7.03469 31.6207 7.00766 31.5374 7.0014C31.4541 6.99515 31.3706 7.00986 31.2945 7.0442L21.1145 11.6392L16 13.9514V18.5C16.0709 18.5001 16.141 18.485 16.2055 18.4558Z" fill="#1E7F97"></path><path d="M31.7056 7.04433L16.2056 0.0443265C16.141 0.0151114 16.0709 0 16 0C15.9291 0 15.8591 0.0151114 15.7945 0.0443265L0.29448 7.04433C0.206736 7.08383 0.13227 7.14784 0.0800298 7.22865C0.02779 7.30947 0 7.40365 0 7.49988C0 7.5961 0.02779 7.69028 0.0800298 7.7711C0.13227 7.85191 0.206736 7.91592 0.29448 7.95543L15.7945 14.9554C15.859 14.9848 15.9291 15 16 14.9999C16.0711 14.9998 16.1413 14.9847 16.2061 14.9554L23.9556 11.4557H23.9561L31.7056 7.95568C31.7933 7.91607 31.8676 7.85202 31.9198 7.77119C31.972 7.69037 31.9998 7.59621 31.9998 7.5C31.9998 7.4038 31.972 7.30963 31.9198 7.22881C31.8676 7.14798 31.7933 7.08393 31.7056 7.04433Z" fill="#269FBD"></path><path d="M23.7519 25.0003C23.6193 25.0003 23.4921 24.9476 23.3984 24.8538C23.3046 24.7601 23.2519 24.6329 23.2519 24.5003V11.323L15.7964 7.95584C15.7346 7.93015 15.6786 7.89232 15.6317 7.84459C15.5847 7.79686 15.5479 7.7402 15.5233 7.67797C15.4987 7.61574 15.4868 7.5492 15.4884 7.4823C15.49 7.4154 15.505 7.3495 15.5325 7.2885C15.56 7.2275 15.5995 7.17265 15.6486 7.12719C15.6978 7.08174 15.7555 7.0466 15.8184 7.02387C15.8814 7.00114 15.9482 6.99127 16.0151 6.99486C16.0819 6.99844 16.1473 7.0154 16.2075 7.04474L23.9575 10.5447C24.0452 10.5843 24.1196 10.6483 24.1718 10.7291C24.2241 10.8099 24.2519 10.9041 24.2519 11.0003V24.5003C24.2519 24.6329 24.1992 24.7601 24.1055 24.8538C24.0117 24.9476 23.8845 25.0003 23.7519 25.0003Z" fill="#F1FCFF"></path><path d="M25.7481 25.0659L23.9981 24.0659C23.9225 24.0227 23.837 24 23.75 24C23.663 24 23.5775 24.0227 23.5019 24.0659L21.7519 25.0659C21.6754 25.1096 21.6118 25.1728 21.5676 25.249C21.5233 25.3252 21.5 25.4118 21.5 25.5V28.5C21.5 28.6326 21.5527 28.7598 21.6464 28.8535C21.7402 28.9473 21.8674 29 22 29H25.5C25.6326 29 25.7598 28.9473 25.8536 28.8535C25.9473 28.7598 26 28.6326 26 28.5V25.5C26 25.4118 25.9767 25.3252 25.9324 25.249C25.8882 25.1728 25.8246 25.1096 25.7481 25.0659Z" fill="#D4ECF2"></path></svg> 