<?xml version="1.0" encoding="UTF-8"?> <svg xmlns="http://www.w3.org/2000/svg" width="32" height="32" viewBox="0 0 32 32" fill="none"><path d="M25 14H24C23.7348 14 23.4804 13.8946 23.2929 13.7071C23.1054 13.5196 23 13.2652 23 13V1C23 0.734784 23.1054 0.48043 23.2929 0.292893C23.4804 0.105357 23.7348 0 24 0L25 0C26.8565 0 28.637 0.737498 29.9497 2.05025C31.2625 3.36301 32 5.14348 32 7C32 8.85652 31.2625 10.637 29.9497 11.9497C28.637 13.2625 26.8565 14 25 14ZM25 2V12C26.3261 12 27.5979 11.4732 28.5355 10.5355C29.4732 9.59785 30 8.32608 30 7C30 5.67392 29.4732 4.40215 28.5355 3.46447C27.5979 2.52678 26.3261 2 25 2Z" fill="#1E7F97"></path><path d="M8 14H7C5.14348 14 3.36301 13.2625 2.05025 11.9497C0.737498 10.637 0 8.85652 0 7C0 5.14348 0.737498 3.36301 2.05025 2.05025C3.36301 0.737498 5.14348 0 7 0L8 0C8.26522 0 8.51957 0.105357 8.70711 0.292893C8.89464 0.48043 9 0.734784 9 1V13C9 13.2652 8.89464 13.5196 8.70711 13.7071C8.51957 13.8946 8.26522 14 8 14ZM7 2C5.67392 2 4.40215 2.52678 3.46447 3.46447C2.52678 4.40215 2 5.67392 2 7C2 8.32608 2.52678 9.59785 3.46447 10.5355C4.40215 11.4732 5.67392 12 7 12V2Z" fill="#1E7F97"></path><path d="M19 18H13C12.4477 18 12 18.4477 12 19V26C12 26.5523 12.4477 27 13 27H19C19.5523 27 20 26.5523 20 26V19C20 18.4477 19.5523 18 19 18Z" fill="#D4ECF2"></path><path d="M25 0H7V14C7 15.5913 7.63214 17.1174 8.75736 18.2426C9.88258 19.3679 11.4087 20 13 20H19C20.5913 20 22.1174 19.3679 23.2426 18.2426C24.3679 17.1174 25 15.5913 25 14V0Z" fill="#269FBD"></path><path d="M21 25H11C9.93948 25.0011 8.92271 25.4229 8.1728 26.1728C7.4229 26.9227 7.00111 27.9395 7 29V31C7 31.2652 7.10536 31.5196 7.29289 31.7071C7.48043 31.8946 7.73478 32 8 32H24C24.2652 32 24.5196 31.8946 24.7071 31.7071C24.8946 31.5196 25 31.2652 25 31V29C24.9989 27.9395 24.5771 26.9227 23.8272 26.1728C23.0773 25.4229 22.0605 25.0011 21 25Z" fill="#269FBD"></path></svg> 