<?xml version="1.0" encoding="UTF-8"?> <svg xmlns="http://www.w3.org/2000/svg" width="32" height="32" viewBox="0 0 32 32" fill="none"><path d="M18.5 0C17.8372 0.000780725 17.2018 0.264424 16.7331 0.733095C16.2644 1.20177 16.0008 1.8372 16 2.5C16 2.57325 16.0053 2.65235 16.0114 2.7256C16.0172 2.79567 16.0376 2.86375 16.0714 2.92539C16.1052 2.98704 16.1516 3.04086 16.2076 3.08336C16.2636 3.12587 16.328 3.15609 16.3964 3.17206C16.4649 3.18803 16.536 3.18939 16.605 3.17605C17.8575 2.94215 19.1425 2.94215 20.395 3.17605C20.4264 3.18207 20.4583 3.18508 20.4902 3.18505C20.6158 3.18497 20.7368 3.13769 20.8291 3.05258C20.9215 2.96747 20.9785 2.85076 20.9888 2.7256C20.9947 2.65235 21 2.57325 21 2.5C20.9992 1.8372 20.7356 1.20177 20.2669 0.733095C19.7982 0.264424 19.1628 0.000780725 18.5 0Z" fill="#CC52A3"></path><path d="M29.9394 16.5608C29.5748 16.2127 29.0901 16.0184 28.5859 16.0184C28.0818 16.0184 27.597 16.2127 27.2324 16.5608L22.7929 21H15C14.8674 21 14.7402 20.9473 14.6464 20.8536C14.5527 20.7598 14.5 20.6326 14.5 20.5C14.5 20.3674 14.5527 20.2402 14.6464 20.1464C14.7402 20.0527 14.8674 20 15 20H20C20.5304 20 21.0391 19.7893 21.4142 19.4142C21.7893 19.0391 22 18.5304 22 18C22 17.4696 21.7893 16.9609 21.4142 16.5858C21.0391 16.2107 20.5304 16 20 16H8.99999C8.92786 16 8.85659 16.0156 8.79106 16.0457C8.72552 16.0758 8.66729 16.1198 8.62034 16.1745L5.62034 19.6745C5.53837 19.7702 5.49552 19.8933 5.50037 20.0191C5.50522 20.145 5.5574 20.2644 5.64649 20.3535L11.6465 26.3535C11.6929 26.3999 11.748 26.4368 11.8087 26.4619C11.8693 26.4871 11.9343 26.5 12 26.5C12.0656 26.5 12.1307 26.4871 12.1913 26.4619C12.252 26.4368 12.3071 26.3999 12.3535 26.3535L13.707 25H24C24.0656 25 24.1307 24.9871 24.1913 24.9619C24.252 24.9368 24.3071 24.8999 24.3535 24.8535L29.9394 19.2678C30.2978 18.9085 30.499 18.4218 30.499 17.9143C30.499 17.4068 30.2978 16.9201 29.9394 16.5608Z" fill="#FAEEF6"></path><path d="M18.5 2C15.4511 2.00347 12.528 3.21618 10.3721 5.3721C8.21618 7.52802 7.00347 10.4511 7 13.5V14C7 14.1326 7.05268 14.2598 7.14645 14.3536C7.24021 14.4473 7.36739 14.5 7.5 14.5H29.5C29.6326 14.5 29.7598 14.4473 29.8536 14.3536C29.9473 14.2598 30 14.1326 30 14V13.5C29.9966 10.4511 28.7839 7.52798 26.6279 5.37206C24.472 3.21613 21.5489 2.00343 18.5 2Z" fill="#F5DCED"></path><path d="M10.8535 28.1465L3.85352 21.1465C3.80711 21.1001 3.752 21.0632 3.69135 21.0381C3.63069 21.0129 3.56568 21 3.50002 21C3.43436 21 3.36934 21.0129 3.30869 21.0381C3.24803 21.0632 3.19292 21.1001 3.14652 21.1465L0.146518 24.1465C0.100069 24.1929 0.0632207 24.248 0.0380804 24.3087C0.01294 24.3693 0 24.4344 0 24.5C0 24.5657 0.01294 24.6307 0.0380804 24.6913C0.0632207 24.752 0.100069 24.8071 0.146518 24.8535L7.14652 31.8535C7.19293 31.9 7.24804 31.9368 7.30869 31.9619C7.36935 31.9871 7.43436 32 7.50002 32C7.56568 32 7.63069 31.9871 7.69134 31.9619C7.752 31.9368 7.80711 31.9 7.85352 31.8535L10.8535 28.8535C10.9 28.8071 10.9368 28.752 10.962 28.6913C10.9871 28.6307 11 28.5657 11 28.5C11 28.4344 10.9871 28.3693 10.962 28.3087C10.9368 28.248 10.9 28.1929 10.8535 28.1465Z" fill="#CC52A3"></path><path d="M13.8535 27.1465L4.85352 18.1465C4.80711 18.1001 4.752 18.0632 4.69135 18.0381C4.63069 18.0129 4.56568 18 4.50002 18C4.43436 18 4.36934 18.0129 4.30869 18.0381C4.24803 18.0632 4.19292 18.1001 4.14652 18.1465L2.14652 20.1465C2.10007 20.1929 2.06322 20.248 2.03808 20.3087C2.01294 20.3693 2 20.4344 2 20.5C2 20.5657 2.01294 20.6307 2.03808 20.6913C2.06322 20.752 2.10007 20.8071 2.14652 20.8535L11.1465 29.8535C11.1929 29.9 11.248 29.9368 11.3087 29.9619C11.3693 29.9871 11.4344 30 11.5 30C11.5657 30 11.6307 29.9871 11.6913 29.9619C11.752 29.9368 11.8071 29.9 11.8535 29.8535L13.8535 27.8535C13.9 27.8071 13.9368 27.752 13.962 27.6913C13.9871 27.6307 14 27.5657 14 27.5C14 27.4344 13.9871 27.3693 13.962 27.3087C13.9368 27.248 13.9 27.1929 13.8535 27.1465Z" fill="#A34282"></path><path d="M30.5 13.5H6.5C6.10231 13.5004 5.72103 13.6586 5.43982 13.9398C5.15861 14.221 5.00044 14.6023 5 15V16.5C5 16.6326 5.05268 16.7598 5.14645 16.8536C5.24021 16.9473 5.36739 17 5.5 17H31.5C31.6326 17 31.7598 16.9473 31.8536 16.8536C31.9473 16.7598 32 16.6326 32 16.5V15C31.9996 14.6023 31.8414 14.221 31.5602 13.9398C31.279 13.6586 30.8977 13.5004 30.5 13.5Z" fill="#CC52A3"></path><path d="M9.13318 12.4166C9.10522 12.4166 9.07731 12.4143 9.04973 12.4097C8.91899 12.3876 8.80236 12.3145 8.72548 12.2065C8.6486 12.0985 8.61776 11.9643 8.63973 11.8336C8.94117 10.0318 9.73163 8.34744 10.9249 6.96421C12.1181 5.58098 13.6683 4.55201 15.4064 3.98955C15.469 3.96822 15.5353 3.95955 15.6014 3.96404C15.6674 3.96853 15.7319 3.98609 15.7911 4.0157C15.8503 4.04532 15.9031 4.08639 15.9463 4.13655C15.9895 4.1867 16.0223 4.24494 16.0428 4.30788C16.0634 4.37082 16.0712 4.4372 16.0659 4.50319C16.0605 4.56918 16.0421 4.63344 16.0118 4.69227C15.9814 4.75109 15.9396 4.8033 15.8889 4.84586C15.8382 4.88842 15.7796 4.92049 15.7164 4.9402C14.1521 5.44631 12.7568 6.37231 11.6828 7.61718C10.6088 8.86204 9.89726 10.378 9.62588 11.9996C9.60619 12.116 9.54593 12.2218 9.45575 12.2981C9.36558 12.3744 9.25131 12.4164 9.13318 12.4166Z" fill="#CC52A3"></path></svg> 