<?xml version="1.0" encoding="UTF-8"?> <svg xmlns="http://www.w3.org/2000/svg" width="32" height="22" viewBox="0 0 32 22" fill="none"><path d="M7.5 22H0.5C0.367392 22 0.240215 21.9473 0.146447 21.8536C0.0526784 21.7598 0 21.6326 0 21.5C0 21.3674 0.0526784 21.2402 0.146447 21.1464C0.240215 21.0527 0.367392 21 0.5 21H7.5C7.63261 21 7.75979 21.0527 7.85355 21.1464C7.94732 21.2402 8 21.3674 8 21.5C8 21.6326 7.94732 21.7598 7.85355 21.8536C7.75979 21.9473 7.63261 22 7.5 22Z" fill="#A34282"></path><path d="M25.5 22H16.5C16.3674 22 16.2402 21.9473 16.1464 21.8536C16.0527 21.7598 16 21.6326 16 21.5C16 21.3674 16.0527 21.2402 16.1464 21.1464C16.2402 21.0527 16.3674 21 16.5 21H25.5C25.6326 21 25.7598 21.0527 25.8536 21.1464C25.9473 21.2402 26 21.3674 26 21.5C26 21.6326 25.9473 21.7598 25.8536 21.8536C25.7598 21.9473 25.6326 22 25.5 22Z" fill="#A34282"></path><path d="M14.5 22H13.5C13.3674 22 13.2402 21.9473 13.1464 21.8536C13.0527 21.7598 13 21.6326 13 21.5C13 21.3674 13.0527 21.2402 13.1464 21.1464C13.2402 21.0527 13.3674 21 13.5 21H14.5C14.6326 21 14.7598 21.0527 14.8536 21.1464C14.9473 21.2402 15 21.3674 15 21.5C15 21.6326 14.9473 21.7598 14.8536 21.8536C14.7598 21.9473 14.6326 22 14.5 22Z" fill="#A34282"></path><path d="M30 10H28.3838L27.4188 6.395L26.9888 4.395C26.9649 4.28315 26.9033 4.1829 26.8143 4.11101C26.7253 4.03911 26.6144 3.99993 26.5 4H19.5C19.3674 4 19.2402 4.05268 19.1464 4.14645C19.0527 4.24021 19 4.36739 19 4.5V18.5C19 18.6326 19.0527 18.7598 19.1464 18.8536C19.2402 18.9473 19.3674 19 19.5 19H22.5C22.6326 19 22.7598 18.9473 22.8536 18.8536C22.9473 18.7598 23 18.6326 23 18.5C23 17.837 23.2634 17.2011 23.7322 16.7322C24.2011 16.2634 24.837 16 25.5 16C26.163 16 26.7989 16.2634 27.2678 16.7322C27.7366 17.2011 28 17.837 28 18.5C28 18.6326 28.0527 18.7598 28.1464 18.8536C28.2402 18.9473 28.3674 19 28.5 19H31.5C31.6326 19 31.7598 18.9473 31.8536 18.8536C31.9473 18.7598 32 18.6326 32 18.5V12C31.9995 11.4697 31.7886 10.9613 31.4136 10.5864C31.0387 10.2114 30.5303 10.0005 30 10Z" fill="#FAEEF6"></path><path d="M27.4189 6.395L27.334 6H22.5C22.3674 6 22.2402 6.05268 22.1464 6.14645C22.0527 6.24021 22 6.36739 22 6.5V9.5C22 9.63261 22.0527 9.75979 22.1464 9.85355C22.2402 9.94732 22.3674 10 22.5 10H28.3838L27.4189 6.395Z" fill="#CC52A3"></path><path d="M23.5 13H22.5C22.3674 13 22.2402 12.9473 22.1464 12.8536C22.0527 12.7598 22 12.6326 22 12.5C22 12.3674 22.0527 12.2402 22.1464 12.1464C22.2402 12.0527 22.3674 12 22.5 12H23.5C23.6326 12 23.7598 12.0527 23.8536 12.1464C23.9473 12.2402 24 12.3674 24 12.5C24 12.6326 23.9473 12.7598 23.8536 12.8536C23.7598 12.9473 23.6326 13 23.5 13Z" fill="#CC52A3"></path><path d="M19.5 0H0.5C0.367392 0 0.240215 0.0526785 0.146447 0.146447C0.0526784 0.240215 0 0.367392 0 0.5L0 18.5C0 18.6326 0.0526784 18.7598 0.146447 18.8536C0.240215 18.9473 0.367392 19 0.5 19H4.5C4.56701 18.9989 4.63314 18.9846 4.69459 18.9578C4.75604 18.9311 4.8116 18.8924 4.85807 18.8441C4.90453 18.7958 4.94099 18.7388 4.96535 18.6764C4.98971 18.6139 5.00149 18.5473 5 18.4803C5.008 18.0175 5.14227 17.5658 5.3883 17.1737C5.63433 16.7817 5.98277 16.4643 6.39601 16.2559C6.80925 16.0475 7.27157 15.9559 7.73307 15.991C8.19456 16.0261 8.63769 16.1867 9.0146 16.4553C9.33875 16.6865 9.5991 16.996 9.7714 17.3549C9.9437 17.7139 10.0223 18.1106 10 18.5081C10.0021 18.6393 10.0557 18.7644 10.1493 18.8564C10.2428 18.9485 10.3688 19 10.5 19H20V0.5C20 0.367392 19.9473 0.240215 19.8536 0.146447C19.7598 0.0526785 19.6326 0 19.5 0Z" fill="#F5DCED"></path><path d="M25.5 22C27.433 22 29 20.433 29 18.5C29 16.567 27.433 15 25.5 15C23.567 15 22 16.567 22 18.5C22 20.433 23.567 22 25.5 22Z" fill="#CC52A3"></path><path d="M7.5 22C9.433 22 11 20.433 11 18.5C11 16.567 9.433 15 7.5 15C5.567 15 4 16.567 4 18.5C4 20.433 5.567 22 7.5 22Z" fill="#CC52A3"></path><path d="M7.5 20C8.32843 20 9 19.3284 9 18.5C9 17.6716 8.32843 17 7.5 17C6.67157 17 6 17.6716 6 18.5C6 19.3284 6.67157 20 7.5 20Z" fill="#A34282"></path><path d="M25.5 20C26.3284 20 27 19.3284 27 18.5C27 17.6716 26.3284 17 25.5 17C24.6716 17 24 17.6716 24 18.5C24 19.3284 24.6716 20 25.5 20Z" fill="#A34282"></path><path d="M11.5 6H8.5C8.36739 6 8.24021 5.94732 8.14645 5.85355C8.05268 5.75979 8 5.63261 8 5.5V4C8 3.46957 8.21071 2.96086 8.58579 2.58579C8.96086 2.21071 9.46957 2 10 2C10.5304 2 11.0391 2.21071 11.4142 2.58579C11.7893 2.96086 12 3.46957 12 4V5.5C12 5.63261 11.9473 5.75979 11.8536 5.85355C11.7598 5.94732 11.6326 6 11.5 6ZM9 5H11V4C11 3.73478 10.8946 3.48043 10.7071 3.29289C10.5196 3.10536 10.2652 3 10 3C9.73478 3 9.48043 3.10536 9.29289 3.29289C9.10536 3.48043 9 3.73478 9 4V5Z" fill="#A34282"></path><path d="M12.5 5H7.5C7.10231 5.00044 6.72103 5.15861 6.43982 5.43982C6.15861 5.72103 6.00044 6.10231 6 6.5V10.5C6.00078 11.1628 6.26442 11.7982 6.7331 12.2669C7.20177 12.7356 7.8372 12.9992 8.5 13H11.5C12.1628 12.9992 12.7982 12.7356 13.2669 12.2669C13.7356 11.7982 13.9992 11.1628 14 10.5V6.5C13.9996 6.10231 13.8414 5.72103 13.5602 5.43982C13.279 5.15861 12.8977 5.00044 12.5 5Z" fill="#CC52A3"></path><path d="M8.5 8C8.77614 8 9 7.77614 9 7.5C9 7.22386 8.77614 7 8.5 7C8.22386 7 8 7.22386 8 7.5C8 7.77614 8.22386 8 8.5 8Z" fill="#A34282"></path><path d="M11.5 8C11.7761 8 12 7.77614 12 7.5C12 7.22386 11.7761 7 11.5 7C11.2239 7 11 7.22386 11 7.5C11 7.77614 11.2239 8 11.5 8Z" fill="#A34282"></path></svg> 