<?xml version="1.0" encoding="UTF-8"?> <svg xmlns="http://www.w3.org/2000/svg" width="32" height="27" viewBox="0 0 32 27" fill="none"><path d="M17.5 2H14.5C14.3674 2 14.2402 2.05268 14.1464 2.14645C14.0527 2.24021 14 2.36739 14 2.5V4.61C14 4.68205 14.0156 4.75325 14.0457 4.81872C14.0758 4.88419 14.1197 4.94239 14.1743 4.98932C14.229 5.03625 14.2932 5.0708 14.3625 5.09063C14.4317 5.11045 14.5045 5.11506 14.5757 5.10415C15.5202 4.96595 16.4798 4.96595 17.4243 5.10415C17.4955 5.11506 17.5683 5.11045 17.6375 5.09063C17.7068 5.0708 17.771 5.03625 17.8257 4.98932C17.8803 4.94239 17.9242 4.88419 17.9543 4.81872C17.9844 4.75325 18 4.68205 18 4.61V2.5C18 2.36739 17.9473 2.24021 17.8536 2.14645C17.7598 2.05268 17.6326 2 17.5 2Z" fill="#A34282"></path><path d="M16 4C13.0836 4.00328 10.2876 5.16326 8.22545 7.22545C6.16326 9.28764 5.00328 12.0836 5 15V16.5C5 16.6326 5.05268 16.7598 5.14645 16.8536C5.24021 16.9473 5.36739 17 5.5 17H26.5C26.6326 17 26.7598 16.9473 26.8536 16.8536C26.9473 16.7598 27 16.6326 27 16.5V15C26.9967 12.0836 25.8367 9.28764 23.7745 7.22545C21.7124 5.16326 18.9164 4.00328 16 4Z" fill="#CC52A3"></path><path d="M7.97619 11.428C7.89065 11.4279 7.80655 11.4059 7.73195 11.3641C7.65734 11.3222 7.59472 11.2619 7.55007 11.1889C7.50542 11.116 7.48024 11.0328 7.47694 10.9473C7.47363 10.8618 7.49231 10.7769 7.53119 10.7007C8.67584 8.46751 10.6498 6.77157 13.0299 5.97638C13.1559 5.9348 13.2932 5.94496 13.4116 6.00462C13.5301 6.06427 13.62 6.16854 13.6615 6.29448C13.7031 6.42041 13.693 6.55771 13.6333 6.67616C13.5736 6.7946 13.4694 6.8845 13.3434 6.92608C11.2131 7.63782 9.4465 9.15589 8.42229 11.1548C8.3804 11.2371 8.31655 11.3062 8.23781 11.3544C8.15907 11.4026 8.06852 11.4281 7.97619 11.428Z" fill="#A34282"></path><path d="M17.5 18H14.5C14.2239 18 14 18.2239 14 18.5V21.5C14 21.7761 14.2239 22 14.5 22H17.5C17.7761 22 18 21.7761 18 21.5V18.5C18 18.2239 17.7761 18 17.5 18Z" fill="#CC52A3"></path><path d="M26.9702 9.50495C26.8805 9.50505 26.7924 9.48101 26.7152 9.43534C26.638 9.38967 26.5744 9.32406 26.5313 9.2454C25.715 7.76348 24.5981 6.46841 23.2522 5.44315C23.1466 5.36292 23.0772 5.24403 23.0593 5.11263C23.0504 5.04756 23.0544 4.98139 23.0711 4.91787C23.0878 4.85436 23.1168 4.79476 23.1566 4.74247C23.1963 4.69018 23.2459 4.64623 23.3026 4.61312C23.3593 4.58002 23.422 4.55841 23.4871 4.54952C23.6185 4.53158 23.7516 4.56657 23.8572 4.6468C25.3146 5.75722 26.5241 7.15969 27.4083 8.76445C27.45 8.84056 27.4713 8.92623 27.4699 9.01303C27.4685 9.09984 27.4445 9.18478 27.4003 9.2595C27.3561 9.33422 27.2932 9.39615 27.2178 9.43918C27.1424 9.48222 27.0571 9.50489 26.9702 9.50495Z" fill="#A34282"></path><path d="M29.2202 9.52835C29.124 9.52834 29.0297 9.50057 28.9488 9.44835C28.8679 9.39613 28.8038 9.32169 28.7642 9.23394C27.6514 6.76905 25.8452 4.68136 23.566 3.22564C23.5107 3.19019 23.463 3.14419 23.4255 3.09028C23.388 3.03637 23.3615 2.9756 23.3475 2.91145C23.3334 2.84729 23.3322 2.781 23.3438 2.71637C23.3554 2.65173 23.3796 2.59002 23.4151 2.53474C23.4506 2.47947 23.4965 2.43172 23.5505 2.39423C23.6044 2.35673 23.6651 2.33022 23.7293 2.3162C23.7934 2.30219 23.8597 2.30095 23.9244 2.31256C23.989 2.32416 24.0507 2.34839 24.106 2.38384C26.5482 3.94389 28.4836 6.18102 29.676 8.8223C29.7104 8.89845 29.7251 8.98201 29.7189 9.06533C29.7126 9.14864 29.6856 9.22908 29.6404 9.29929C29.5951 9.36949 29.5329 9.42724 29.4595 9.46725C29.3862 9.50726 29.3038 9.52826 29.2202 9.52835Z" fill="#A34282"></path><path d="M5.03089 9.50495C4.94408 9.50488 4.85877 9.48222 4.78338 9.43918C4.70798 9.39614 4.64509 9.33422 4.6009 9.2595C4.5567 9.18478 4.53272 9.09983 4.53132 9.01303C4.52991 8.92623 4.55113 8.84056 4.59289 8.76445C5.47707 7.15969 6.68656 5.75722 8.14394 4.6468C8.19623 4.60707 8.25583 4.57803 8.31934 4.56134C8.38285 4.54465 8.44903 4.54064 8.51409 4.54952C8.57916 4.5584 8.64183 4.58002 8.69854 4.61312C8.75525 4.64623 8.80489 4.69018 8.84461 4.74247C8.88434 4.79476 8.91338 4.85436 8.93007 4.91787C8.94676 4.98138 8.95078 5.04756 8.94189 5.11262C8.93301 5.17769 8.9114 5.24036 8.87829 5.29708C8.84518 5.35379 8.80123 5.40342 8.74894 5.44315C7.40309 6.46841 6.28622 7.76348 5.46989 9.2454C5.42674 9.32407 5.36321 9.38968 5.28597 9.43535C5.20873 9.48102 5.12062 9.50506 5.03089 9.50495Z" fill="#A34282"></path><path d="M2.78127 9.52835C2.6977 9.5283 2.61547 9.50732 2.5421 9.46732C2.46872 9.42732 2.40653 9.36958 2.36121 9.29937C2.31589 9.22916 2.28888 9.14871 2.28264 9.06538C2.27641 8.98204 2.29115 8.89847 2.32552 8.8223C3.51792 6.18102 5.4533 3.94389 7.89552 2.38385C8.00715 2.31224 8.14265 2.28791 8.27222 2.31621C8.40179 2.34451 8.51481 2.42312 8.58642 2.53475C8.65802 2.64638 8.68235 2.78188 8.65406 2.91145C8.62576 3.04102 8.54715 3.15404 8.43552 3.22565C6.1563 4.68137 4.35009 6.76905 3.23732 9.23395C3.19767 9.32169 3.13356 9.39613 3.05267 9.44835C2.97178 9.50057 2.87755 9.52834 2.78127 9.52835Z" fill="#A34282"></path><path d="M19.5 0H12.5C12.2239 0 12 0.223858 12 0.5V2.5C12 2.77614 12.2239 3 12.5 3H19.5C19.7761 3 20 2.77614 20 2.5V0.5C20 0.223858 19.7761 0 19.5 0Z" fill="#CC52A3"></path><path d="M27.5 16H4.5C4.10218 16 3.72064 16.158 3.43934 16.4393C3.15804 16.7206 3 17.1022 3 17.5C3 17.8978 3.15804 18.2794 3.43934 18.5607C3.72064 18.842 4.10218 19 4.5 19H27.5C27.8978 19 28.2794 18.842 28.5607 18.5607C28.842 18.2794 29 17.8978 29 17.5C29 17.1022 28.842 16.7206 28.5607 16.4393C28.2794 16.158 27.8978 16 27.5 16Z" fill="#A34282"></path><path d="M28.5 21H3.5C3.10231 21.0004 2.72103 21.1586 2.43982 21.4398C2.15861 21.721 2.00044 22.1023 2 22.5V24C2 24.1326 2.05268 24.2598 2.14645 24.3536C2.24021 24.4473 2.36739 24.5 2.5 24.5H29.5C29.6326 24.5 29.7598 24.4473 29.8536 24.3536C29.9473 24.2598 30 24.1326 30 24V22.5C29.9996 22.1023 29.8414 21.721 29.5602 21.4398C29.279 21.1586 28.8977 21.0004 28.5 21Z" fill="#F5DCED"></path><path d="M30.5 23.5H1.5C1.10231 23.5004 0.721032 23.6586 0.439822 23.9398C0.158612 24.221 0.00043674 24.6023 0 25L0 26.5C0 26.6326 0.0526784 26.7598 0.146447 26.8536C0.240215 26.9473 0.367392 27 0.5 27H31.5C31.6326 27 31.7598 26.9473 31.8536 26.8536C31.9473 26.7598 32 26.6326 32 26.5V25C31.9996 24.6023 31.8414 24.221 31.5602 23.9398C31.279 23.6586 30.8977 23.5004 30.5 23.5Z" fill="#FAEEF6"></path></svg> 