<?xml version="1.0" encoding="UTF-8"?> <svg xmlns="http://www.w3.org/2000/svg" width="42" height="42" viewBox="0 0 42 42" fill="none"><path d="M21.0001 6.5625C17.1723 6.56684 13.5026 8.08933 10.796 10.7959C8.0894 13.5026 6.56692 17.1723 6.56257 21C6.55574 23.1271 7.02346 25.229 7.93167 27.1525C8.83988 29.0761 10.1657 30.7728 11.8126 32.1191V38.0625C11.8137 39.1064 12.2289 40.1073 12.9671 40.8455C13.7053 41.5836 14.7061 41.9989 15.7501 42H26.2501C27.294 41.9989 28.2949 41.5836 29.033 40.8455C29.7712 40.1073 30.1864 39.1064 30.1876 38.0625V32.1191C31.8344 30.7728 33.1603 29.0761 34.0685 27.1525C34.9767 25.229 35.4444 23.1271 35.4376 21C35.4332 17.1723 33.9107 13.5026 31.2041 10.7959C28.4975 8.08933 24.8278 6.56684 21.0001 6.5625Z" fill="#A8D9E5"></path><path d="M26.25 23.6245H25.0258C25.2615 21.9903 26.0161 20.4752 27.1783 19.3024C27.4174 19.0549 27.5497 18.7234 27.5467 18.3792C27.5437 18.0351 27.4057 17.7059 27.1623 17.4625C26.919 17.2192 26.5898 17.0812 26.2457 17.0782C25.9015 17.0752 25.57 17.2075 25.3225 17.4466C23.668 19.1122 22.6287 21.2906 22.375 23.6245H19.625C19.3714 21.2906 18.3322 19.1122 16.6779 17.4466C16.4304 17.2075 16.0989 17.0752 15.7547 17.0782C15.4106 17.0812 15.0814 17.2192 14.8381 17.4625C14.5947 17.7059 14.4567 18.0351 14.4537 18.3792C14.4507 18.7234 14.583 19.0549 14.8221 19.3024C15.9841 20.4752 16.7386 21.9904 16.9742 23.6245H15.75C15.4019 23.6245 15.0681 23.7628 14.8219 24.0089C14.5758 24.2551 14.4375 24.5889 14.4375 24.937C14.4375 25.2851 14.5758 25.6189 14.8219 25.8651C15.0681 26.1112 15.4019 26.2495 15.75 26.2495H17.0625V35.437C17.0625 35.7851 17.2008 36.1189 17.4469 36.3651C17.6931 36.6112 18.0269 36.7495 18.375 36.7495C18.7231 36.7495 19.0569 36.6112 19.3031 36.3651C19.5492 36.1189 19.6875 35.7851 19.6875 35.437V26.2495H22.3125V35.437C22.3125 35.7851 22.4508 36.1189 22.6969 36.3651C22.9431 36.6112 23.2769 36.7495 23.625 36.7495C23.9731 36.7495 24.3069 36.6112 24.5531 36.3651C24.7992 36.1189 24.9375 35.7851 24.9375 35.437V26.2495H26.25C26.5981 26.2495 26.9319 26.1112 27.1781 25.8651C27.4242 25.6189 27.5625 25.2851 27.5625 24.937C27.5625 24.5889 27.4242 24.2551 27.1781 24.0089C26.9319 23.7628 26.5981 23.6245 26.25 23.6245Z" fill="#269FBD"></path><path d="M21 5.25C20.6519 5.25 20.3181 5.11172 20.0719 4.86558C19.8258 4.61944 19.6875 4.2856 19.6875 3.9375V1.3125C19.6875 0.964403 19.8258 0.630564 20.0719 0.384422C20.3181 0.138281 20.6519 0 21 0C21.3481 0 21.6819 0.138281 21.9281 0.384422C22.1742 0.630564 22.3125 0.964403 22.3125 1.3125V3.9375C22.3125 4.2856 22.1742 4.61944 21.9281 4.86558C21.6819 5.11172 21.3481 5.25 21 5.25Z" fill="#269FBD"></path><path d="M12.4703 7.53438C12.2396 7.53479 12.0129 7.47433 11.813 7.3591C11.6132 7.24388 11.4473 7.07798 11.3321 6.87813L10.0196 4.60567C9.84552 4.30415 9.79838 3.94584 9.88851 3.60956C9.97865 3.27328 10.1987 2.98658 10.5002 2.81253C10.8017 2.63848 11.16 2.59134 11.4963 2.68148C11.8326 2.77162 12.1193 2.99165 12.2933 3.29317L13.6058 5.56563C13.721 5.76508 13.7816 5.99131 13.7817 6.22161C13.7817 6.45191 13.7212 6.67817 13.6061 6.87766C13.491 7.07716 13.3255 7.24286 13.1261 7.35814C12.9268 7.47341 12.7006 7.53419 12.4703 7.53438Z" fill="#269FBD"></path><path d="M6.21862 13.7815C5.98865 13.7816 5.76271 13.721 5.56368 13.6058L3.29122 12.2933C2.9897 12.1193 2.76966 11.8326 2.67953 11.4963C2.58939 11.16 2.63653 10.8017 2.81058 10.5002C2.98463 10.1987 3.27133 9.97865 3.60761 9.88851C3.94388 9.79838 4.3022 9.84552 4.60372 10.0196L6.87618 11.3321C7.12661 11.4765 7.32233 11.6996 7.43295 11.9668C7.54357 12.2339 7.56291 12.53 7.48794 12.8093C7.41298 13.0885 7.24793 13.3351 7.0184 13.5109C6.78888 13.6867 6.50773 13.7818 6.21862 13.7815Z" fill="#269FBD"></path><path d="M3.9375 22.3125H1.3125C0.964403 22.3125 0.630564 22.1742 0.384422 21.9281C0.138281 21.6819 0 21.3481 0 21C0 20.6519 0.138281 20.3181 0.384422 20.0719C0.630564 19.8258 0.964403 19.6875 1.3125 19.6875H3.9375C4.2856 19.6875 4.61944 19.8258 4.86558 20.0719C5.11172 20.3181 5.25 20.6519 5.25 21C5.25 21.3481 5.11172 21.6819 4.86558 21.9281C4.61944 22.1742 4.2856 22.3125 3.9375 22.3125Z" fill="#269FBD"></path><path d="M3.94858 32.1564C3.6595 32.1567 3.37842 32.0616 3.14896 31.8858C2.9195 31.7099 2.75451 31.4633 2.6796 31.1841C2.60469 30.9049 2.62405 30.6087 2.73468 30.3417C2.84531 30.0746 3.04101 29.8515 3.29141 29.7071L5.56388 28.3946C5.71317 28.3084 5.87799 28.2525 6.0489 28.23C6.21981 28.2075 6.39348 28.2189 6.55999 28.2635C6.7265 28.3081 6.88258 28.3851 7.01934 28.4901C7.15609 28.595 7.27083 28.7259 7.35701 28.8752C7.44319 29.0245 7.49912 29.1893 7.52161 29.3602C7.5441 29.5311 7.5327 29.7048 7.48807 29.8713C7.44344 30.0378 7.36644 30.1939 7.26149 30.3307C7.15654 30.4674 7.02567 30.5822 6.87638 30.6683L4.60391 31.9808C4.40476 32.0961 4.17868 32.1567 3.94858 32.1564Z" fill="#269FBD"></path><path d="M29.5302 7.53438C29.2999 7.53419 29.0737 7.47341 28.8743 7.35813C28.6749 7.24286 28.5094 7.07715 28.3943 6.87766C28.2793 6.67817 28.2187 6.45191 28.2188 6.22161C28.2188 5.99131 28.2794 5.76508 28.3946 5.56563L29.7071 3.29317C29.7933 3.14387 29.908 3.01301 30.0448 2.90805C30.1815 2.8031 30.3376 2.72611 30.5041 2.68148C30.6706 2.63685 30.8443 2.62545 31.0152 2.64793C31.1861 2.67042 31.3509 2.72635 31.5002 2.81253C31.6495 2.89871 31.7804 3.01345 31.8853 3.15021C31.9903 3.28696 32.0673 3.44305 32.1119 3.60956C32.1566 3.77606 32.1679 3.94973 32.1455 4.12065C32.123 4.29156 32.067 4.45637 31.9809 4.60567L30.6684 6.87813C30.5531 7.07797 30.3872 7.24388 30.1874 7.3591C29.9876 7.47432 29.7608 7.53478 29.5302 7.53438Z" fill="#269FBD"></path><path d="M35.7771 13.7815C35.488 13.7818 35.2068 13.6867 34.9773 13.5109C34.7478 13.3351 34.5827 13.0885 34.5078 12.8093C34.4328 12.53 34.4521 12.2339 34.5628 11.9668C34.6734 11.6996 34.8691 11.4765 35.1195 11.3321L37.392 10.0196C37.6935 9.84552 38.0518 9.79838 38.3881 9.88851C38.7244 9.97865 39.0111 10.1987 39.1851 10.5002C39.3592 10.8017 39.4063 11.16 39.3162 11.4963C39.2261 11.8326 39.006 12.1193 38.7045 12.2933L36.432 13.6058C36.233 13.721 36.0071 13.7816 35.7771 13.7815Z" fill="#269FBD"></path><path d="M40.6875 22.3125H38.0625C37.7144 22.3125 37.3806 22.1742 37.1344 21.9281C36.8883 21.6819 36.75 21.3481 36.75 21C36.75 20.6519 36.8883 20.3181 37.1344 20.0719C37.3806 19.8258 37.7144 19.6875 38.0625 19.6875H40.6875C41.0356 19.6875 41.3694 19.8258 41.6156 20.0719C41.8617 20.3181 42 20.6519 42 21C42 21.3481 41.8617 21.6819 41.6156 21.9281C41.3694 22.1742 41.0356 22.3125 40.6875 22.3125Z" fill="#269FBD"></path><path d="M38.0469 32.1564C37.8169 32.1566 37.5909 32.096 37.3918 31.9808L35.1193 30.6683C34.97 30.5822 34.8392 30.4674 34.7342 30.3307C34.6293 30.1939 34.5523 30.0378 34.5076 29.8713C34.463 29.7048 34.4516 29.5311 34.4741 29.3602C34.4966 29.1893 34.5525 29.0245 34.6387 28.8752C34.8127 28.5737 35.0994 28.3536 35.4357 28.2635C35.6022 28.2189 35.7759 28.2075 35.9468 28.23C36.1177 28.2525 36.2825 28.3084 36.4318 28.3946L38.7043 29.7071C38.9547 29.8515 39.1504 30.0746 39.2611 30.3417C39.3717 30.6088 39.391 30.905 39.3161 31.1842C39.2411 31.4634 39.0761 31.7101 38.8466 31.8859C38.6171 32.0617 38.336 32.1568 38.0469 32.1564Z" fill="#269FBD"></path><path d="M11.8125 35.4375V38.0625C11.8136 39.1064 12.2289 40.1073 12.967 40.8455C13.7052 41.5836 14.7061 41.9989 15.75 42H26.25C27.2939 41.9989 28.2948 41.5836 29.033 40.8455C29.7711 40.1073 30.1864 39.1064 30.1875 38.0625V35.4375H11.8125Z" fill="#269FBD"></path></svg> 