<?xml version="1.0" encoding="UTF-8"?> <svg xmlns="http://www.w3.org/2000/svg" width="33" height="43" viewBox="0 0 33 43" fill="none"><path d="M5.98225 26.0566L5.97297 26.0647C3.65781 28.061 1.96235 30.6783 1.08686 33.6073C0.211371 36.5363 0.192422 39.6547 1.03225 42.5941L8.0635 36.9691H24.9385L31.9698 42.5941C32.8096 39.6547 32.7906 36.5363 31.9151 33.6073C31.0397 30.6783 29.3442 28.061 27.029 26.0647L27.0198 26.0566H5.98225Z" fill="#CC52A3"></path><path d="M8.06119 36.9688L6.76941 31.4788C5.45745 25.9029 5.66832 20.0769 7.37994 14.6105C9.09157 9.14405 12.241 4.23817 16.4987 0.40625C20.7564 4.23817 23.9058 9.14405 25.6174 14.6105C27.3291 20.0769 27.5399 25.9029 26.228 31.4788L24.9362 36.9688H8.06119Z" fill="#F5DCED"></path><path d="M20.7188 36.9688L16.5 42.5938L12.6328 36.9688L16.5 28.5312L20.7188 36.9688Z" fill="#CC52A3"></path><path d="M16.5 24.3125C19.6066 24.3125 22.125 21.7941 22.125 18.6875C22.125 15.5809 19.6066 13.0625 16.5 13.0625C13.3934 13.0625 10.875 15.5809 10.875 18.6875C10.875 21.7941 13.3934 24.3125 16.5 24.3125Z" fill="#CC52A3"></path><path d="M23.1678 8.84375C21.4383 5.67443 19.1837 2.82146 16.4999 0.40625C13.8161 2.82146 11.5615 5.67443 9.83203 8.84375H23.1678Z" fill="#CC52A3"></path></svg> 