<?xml version="1.0" encoding="UTF-8"?> <svg xmlns="http://www.w3.org/2000/svg" width="25" height="199" viewBox="0 0 25 199" fill="none"><path d="M19.234 193.082C19.234 189.914 17.506 188.132 15.166 188.132C10.072 188.132 12.106 194.828 9.874 194.828C9.208 194.828 8.704 194.252 8.704 193.136C8.704 191.966 9.316 191.318 10.18 191.3V188.456C7.516 188.564 6.166 190.508 6.166 193.136C6.166 196.034 7.84 197.672 9.946 197.672C15.13 197.672 13.042 191.102 15.382 191.102C16.174 191.102 16.624 191.804 16.624 192.992C16.624 194.432 15.886 195.224 14.896 195.278V197.996C17.488 198.014 19.234 196.142 19.234 193.082ZM19.234 178.405C19.234 175.021 17.146 172.555 14.374 172.015V175.129C15.58 175.597 16.498 176.785 16.498 178.405C16.498 180.583 14.896 182.077 12.7 182.077C10.54 182.077 8.902 180.583 8.902 178.405C8.902 176.785 9.838 175.579 11.08 175.237V172.141C8.308 172.681 6.166 174.985 6.166 178.405C6.166 182.329 8.992 185.029 12.7 185.029C16.426 185.029 19.234 182.347 19.234 178.405ZM19 168.275V165.431H14.788V163.739L19 161.597V158.429L14.23 161.111C13.582 159.833 12.25 158.879 10.558 158.879C8.092 158.879 6.4 160.769 6.4 163.343V168.275H19ZM12.358 165.431H8.83V163.631C8.83 162.515 9.514 161.795 10.558 161.795C11.728 161.795 12.358 162.569 12.358 163.595V165.431ZM19.234 148.893C19.234 145.059 16.39 142.197 12.7 142.197C9.028 142.197 6.166 145.041 6.166 148.893C6.166 152.745 8.992 155.589 12.7 155.589C16.426 155.589 19.234 152.763 19.234 148.893ZM16.498 148.893C16.498 151.089 14.878 152.637 12.7 152.637C10.558 152.637 8.902 151.089 8.902 148.893C8.902 146.715 10.558 145.167 12.7 145.167C14.878 145.167 16.498 146.715 16.498 148.893ZM19 138.449V130.673H16.462V135.605H6.4V138.449H19ZM19 126.981L19 119.205H16.462V124.137H6.4V126.981H19Z" fill="#1E7F97"></path><path d="M12 102.5V0" stroke="#1E7F97" stroke-width="2"></path></svg> 