<?xml version="1.0" encoding="UTF-8" standalone="no"?> <svg xmlns:inkscape="http://www.inkscape.org/namespaces/inkscape" xmlns:sodipodi="http://sodipodi.sourceforge.net/DTD/sodipodi-0.dtd" xmlns="http://www.w3.org/2000/svg" xmlns:svg="http://www.w3.org/2000/svg" width="128" height="42" viewBox="0 0 128 42" fill="none" version="1.1" id="svg99" sodipodi:docname="CP_Fitness_Stacked.svg" xml:space="preserve" inkscape:version="1.2.1 (9c6d41e4, 2022-07-14)"><defs id="defs97"><clipPath id="clip0"><rect width="128" height="41.4986" fill="white" transform="translate(0 0.351257)" id="rect94"></rect></clipPath></defs><g style="fill:none" id="g208" transform="matrix(0.72450022,0,0,0.71313426,0.34670933,12.636548)"><path d="m 130.706,8.39233e-4 h -4.909 V 24.3504 h 4.909 z" fill="#000000" id="path103"></path><path d="m 169.042,16.4971 h -4.868 v 4.6964 l 3.242,3.1369 h 3.241 v -4.698 h -1.615 z" fill="#000000" id="path105"></path><path d="M 171.386,0.0217361 V 7.80633 H 176 V 3.4844 l -3.252,-3.4626639 z" fill="#000000" id="path107"></path><path d="M 167.324,0.0217361 164.174,3.4844 v 7.3498 l 3.15,3.4631 3.333,0.2709 V 9.68225 L 169.11,9.48352 V 4.635 h 1.547 V 0.0217361 Z" fill="#000000" id="path109"></path><path d="m 171.386,24.3309 h 1.532 l 3.081,-3.3088 V 13.3515 L 172.748,9.88967 171.386,9.8014 Z" fill="#000000" id="path111"></path><path d="m 115.015,8.39233e-4 h -4.629 V 24.3504 h 4.629 z" fill="#000000" id="path113"></path><path d="M 116.079,0.0430526 V 4.6298 h 1.361 v 6.851 h -1.361 v 4.585 h 2.722 l 3.252,-3.4601 V 3.50572 l -3.252,-3.4626674 z" fill="#000000" id="path115"></path><path d="m 144.905,19.6531 h -4.198 v 4.6964 h 4.198 z" fill="#000000" id="path117"></path><path d="m 144.905,0 h -4.198 v 4.69815 h 4.198 z" fill="#000000" id="path119"></path><path d="m 139.952,8.39233e-4 h -4.628 V 24.3504 h 4.628 z" fill="#000000" id="path121"></path><path d="m 143.967,9.18935 h -3.26 v 4.61585 h 3.26 z" fill="#000000" id="path123"></path><path d="m 153.069,8.39233e-4 h -4.628 V 24.3504 h 4.628 z" fill="#000000" id="path125"></path><path d="M 153.809,0.0430526 V 4.6298 h 1.778 v 5.489 h -1.778 v 4.5107 h 1.775 v 9.7209 h 4.765 v -9.8105 l -2.332,-2.2507 2.332,-2.30299 V 3.50572 l -3.25,-3.4626674 z" fill="#000000" id="path127"></path><path d="m 55.1281,19.6549 h -4.1967 v 4.6964 h 4.1967 z" fill="#000000" id="path129"></path><path d="M 50.1672,8.39233e-4 H 45.538 V 24.3504 h 4.6292 z" fill="#000000" id="path131"></path><path d="M 7.61805,0.0430526 V 9.36178 H 11.8139 V 3.50572 L 8.56079,0.0430526 Z" fill="#000000" id="path133"></path><path d="M 7.61759,24.3078 H 8.56077 L 11.8134,20.8465 V 13.8033 H 7.61759 Z" fill="#000000" id="path135"></path><path d="M 3.13958,0.0430526 0,3.49268 V 20.8586 l 3.13958,3.4501 H 6.89055 V 19.6954 H 4.92462 V 4.65545 H 6.89055 V 0.0430526 Z" fill="#000000" id="path137"></path><path d="m 15.8692,0 v 24.3504 h 4.9355 v -9.8675 h 0.6075 V 9.8688 H 20.8047 V 0 Z" fill="#000000" id="path139"></path><path d="m 22.9124,0 v 9.8688 h -0.6066 v 4.6141 h 0.6066 v 9.8675 h 4.9351 V 0 Z" fill="#000000" id="path141"></path><path d="m 41.482,19.6549 h -4.1949 v 4.6964 h 4.1949 z" fill="#000000" id="path143"></path><path d="m 41.4802,0 h -4.1949 v 4.69815 h 4.1949 z" fill="#000000" id="path145"></path><path d="M 36.5326,8.39233e-4 H 31.9044 V 24.3504 h 4.6282 z" fill="#000000" id="path147"></path><path d="m 40.5454,9.18935 h -3.2592 v 4.61585 h 3.2592 z" fill="#000000" id="path149"></path><path d="m 58.1331,16.4971 v 4.6964 l 3.2426,3.1369 h 3.2396 v -4.698 h -1.615 v -3.1353 z" fill="#000000" id="path151"></path><path d="M 65.3446,0.0217361 V 7.80633 H 69.957 V 3.4844 L 66.7048,0.0217361 Z" fill="#000000" id="path153"></path><path d="M 61.2836,0.0217361 58.134,3.4844 v 7.3498 l 3.1496,3.4631 3.3313,0.2709 V 9.68225 L 63.0673,9.48352 V 4.635 h 1.5476 V 0.0217361 Z" fill="#000000" id="path155"></path><path d="M 65.3437,9.80056 V 24.33 h 1.5337 L 69.957,21.0213 V 13.3515 L 66.7052,9.8897 Z" fill="#000000" id="path157"></path><path d="m 83.2179,19.6531 h -4.1967 v 4.6964 h 4.1967 z" fill="#000000" id="path159"></path><path d="m 83.2178,0 h -4.1975 v 4.69815 h 4.1975 z" fill="#000000" id="path161"></path><path d="M 78.2676,8.39233e-4 H 73.6393 V 24.3504 h 4.6283 z" fill="#000000" id="path163"></path><path d="m 82.2822,9.18935 h -3.2601 v 4.61585 h 3.2601 z" fill="#000000" id="path165"></path><path d="M 89.4837,0.0217361 86.3793,24.3304 h 4.9094 l 0.4149,-4.4645 h 0.8949 V 15.2861 H 92.128 l 0.9262,-9.95882 0.9445,9.95882 h -0.5032 v 4.5798 h 0.9393 l 0.4236,4.4645 h 4.8589 L 96.6112,0.0217361 Z" fill="#000000" id="path167"></path></g></svg> 