<?xml version="1.0" encoding="UTF-8"?> <svg xmlns="http://www.w3.org/2000/svg" width="45" height="48" viewBox="0 0 45 48" fill="none"><path d="M11.6799 41.1075C9.29854 40.1986 7.22512 38.6307 5.70194 36.587C5.51341 36.3345 5.25015 36.1478 4.94952 36.0533C4.64889 35.9589 4.32615 35.9615 4.0271 36.0609C3.72805 36.1602 3.46789 36.3512 3.28352 36.6068C3.09916 36.8623 2.99996 37.1695 3 37.4846V46.4995C3.00001 46.765 3.07046 47.0257 3.20417 47.255C3.33787 47.4843 3.53004 47.6741 3.76105 47.8048C3.99206 47.9356 4.25363 48.0027 4.51906 47.9993C4.7845 47.996 5.04428 47.9222 5.27189 47.7856L11.9169 43.7956C12.1582 43.6509 12.354 43.4411 12.4818 43.1903C12.6096 42.9395 12.6643 42.6578 12.6395 42.3774C12.6147 42.097 12.5116 41.8292 12.3418 41.6047C12.1721 41.3801 11.9429 41.2078 11.6799 41.1075Z" fill="#269FBD"></path><path d="M28.9745 36.0606C28.6755 35.9615 28.353 35.959 28.0525 36.0534C27.752 36.1477 27.4888 36.3342 27.3002 36.5864C25.7763 38.6301 23.7024 40.198 21.3208 41.107C21.0578 41.2073 20.8283 41.3796 20.6587 41.6042C20.489 41.8288 20.3859 42.0965 20.3612 42.3769C20.3366 42.6573 20.3913 42.939 20.5191 43.1898C20.647 43.4405 20.8428 43.6502 21.0842 43.795L27.7292 47.7849C27.9568 47.9216 28.2166 47.9954 28.4821 47.9988C28.7475 48.0023 29.0091 47.9352 29.2402 47.8044C29.4712 47.6736 29.6634 47.4839 29.7972 47.2546C29.9309 47.0252 30.0014 46.7645 30.0014 46.499V37.484C30.0011 37.169 29.9018 36.8621 29.7176 36.6066C29.5333 36.3512 29.2733 36.1601 28.9745 36.0606Z" fill="#269FBD"></path><path d="M16.4999 44.9998C25.6126 44.9998 32.9998 37.6126 32.9998 28.4999C32.9998 19.3873 25.6126 12 16.4999 12C7.38726 12 0 19.3873 0 28.4999C0 37.6126 7.38726 44.9998 16.4999 44.9998Z" fill="#D4ECF2"></path><path d="M16.4999 38.9999C22.2989 38.9999 26.9999 34.2989 26.9999 28.4999C26.9999 22.701 22.2989 18 16.4999 18C10.701 18 6 22.701 6 28.4999C6 34.2989 10.701 38.9999 16.4999 38.9999Z" fill="#269FBD"></path><path d="M16.5 33C18.9852 33 21 30.9852 21 28.5C21 26.0147 18.9852 24 16.5 24C14.0147 24 12 26.0147 12 28.5C12 30.9852 14.0147 33 16.5 33Z" fill="#1E7F97"></path><path d="M16.4997 29.9971C16.203 29.997 15.9131 29.909 15.6665 29.7442C15.4199 29.5794 15.2277 29.3451 15.1142 29.0711C15.0007 28.797 14.971 28.4955 15.0288 28.2046C15.0867 27.9136 15.2295 27.6464 15.4392 27.4366L30.4391 12.4367C30.722 12.1635 31.1009 12.0123 31.4942 12.0157C31.8875 12.0191 32.2637 12.1769 32.5418 12.455C32.8199 12.7331 32.9777 13.1093 32.9811 13.5026C32.9845 13.8959 32.8333 14.2748 32.5601 14.5577L17.5602 29.5576C17.4211 29.6971 17.2558 29.8078 17.0738 29.8832C16.8918 29.9586 16.6967 29.9973 16.4997 29.9971Z" fill="#D4ECF2"></path><path d="M44.8856 6.92544C44.7722 6.65129 44.58 6.41696 44.3333 6.25215C44.0867 6.08734 43.7966 5.99946 43.4999 5.99965H39V1.49967C38.9999 1.20305 38.9119 0.913102 38.7471 0.666489C38.5822 0.419875 38.348 0.227667 38.0739 0.114163C37.7999 0.000658356 37.4983 -0.0290459 37.2074 0.0288051C36.9165 0.0866561 36.6492 0.229465 36.4395 0.439178L30.4395 6.43914C30.3002 6.57837 30.1896 6.74368 30.1142 6.92565C30.0388 7.10762 30 7.30266 30 7.49964V13.4996C30 13.8974 30.158 14.279 30.4393 14.5603C30.7206 14.8416 31.1022 14.9996 31.5 14.9996H37.5C37.6969 14.9996 37.892 14.9608 38.0739 14.8854C38.2559 14.81 38.4212 14.6994 38.5605 14.5601L44.5604 8.56013C44.7704 8.35051 44.9135 8.08323 44.9714 7.7922C45.0293 7.50116 44.9994 7.19949 44.8856 6.92544Z" fill="#269FBD"></path></svg> 