<?xml version="1.0" encoding="UTF-8"?> <svg xmlns="http://www.w3.org/2000/svg" xmlns:xlink="http://www.w3.org/1999/xlink" width="150px" height="40px" viewBox="0 0 148 40" version="1.1"><g id="surface1"><path style=" stroke:none;fill-rule:nonzero;fill:rgb(20%,38.431373%,60.392157%);fill-opacity:1;" d="M 14.25 4.167969 L 17.492188 4.167969 C 19.464844 3.878906 21.480469 4.132812 23.320312 4.910156 C 25.628906 6.304688 27.300781 8.550781 27.984375 11.164062 C 28.46875 12.535156 28.46875 12.535156 29.632812 12.050781 L 30.542969 12.050781 L 30.542969 1.199219 L 0.0273438 1.199219 L 0.0273438 3.113281 L 1.28125 3.113281 C 2.382812 3.105469 3.425781 3.597656 4.125 4.453125 C 5.289062 6.339844 5.488281 8.453125 5.488281 19.441406 C 5.488281 31.121094 5.234375 33.976562 4.125 35.429688 C 3.570312 36.1875 2.699219 36.652344 1.761719 36.6875 C 0.0273438 37 0.0273438 36.972656 0.0273438 37.742188 C -0.0664062 38 -0.0664062 38.285156 0.0273438 38.542969 L 19.28125 38.542969 C 19.539062 38.03125 19.539062 37.425781 19.28125 36.914062 C 18.816406 36.785156 18.339844 36.691406 17.859375 36.628906 C 17.339844 36.566406 16.828125 36.464844 16.324219 36.316406 C 14.859375 35.242188 14.070312 33.472656 14.25 31.664062 C 13.964844 29.777344 13.820312 26.324219 13.820312 23.46875 L 13.820312 21.214844 L 14.960938 21.214844 C 16.375 21.167969 17.792969 21.324219 19.167969 21.671875 C 20.503906 22.496094 21.398438 23.878906 21.613281 25.4375 L 21.871094 26.324219 L 23.605469 26.324219 L 23.605469 13.675781 L 22.011719 13.675781 L 21.757812 14.902344 C 21.539062 16.5 20.578125 17.898438 19.167969 18.671875 C 18.496094 18.875 17.785156 18.921875 17.09375 18.816406 L 13.820312 18.816406 L 13.820312 15.730469 C 13.820312 12.535156 13.992188 5.796875 14.105469 4.742188 Z M 147.347656 26.808594 C 146 24.636719 143.90625 23.039062 141.457031 22.328125 C 139.582031 21.738281 137.851562 20.765625 136.367188 19.472656 C 135.691406 18.8125 135.382812 17.863281 135.542969 16.929688 C 135.546875 16.03125 135.902344 15.167969 136.539062 14.53125 C 137.414062 13.609375 138.726562 13.25 139.953125 13.589844 C 142.484375 14.316406 144.417969 16.375 144.984375 18.957031 C 145.441406 20.242188 145.496094 20.242188 146.320312 19.898438 L 146.832031 19.699219 L 146.832031 12.589844 L 146.464844 12.421875 C 143.664062 11.433594 140.695312 11.023438 137.734375 11.222656 C 135.183594 11.285156 132.75 12.304688 130.90625 14.074219 C 129.21875 15.664062 128.3125 17.921875 128.433594 20.242188 C 128.449219 21.996094 129.144531 23.675781 130.367188 24.925781 C 131.722656 26.261719 133.382812 27.242188 135.203125 27.78125 C 139.609375 29.519531 140.890625 30.632812 140.890625 32.660156 C 140.929688 34.421875 139.75 35.976562 138.046875 36.402344 C 137.054688 36.621094 136.023438 36.621094 135.03125 36.402344 C 132.394531 35.375 130.414062 33.128906 129.714844 30.378906 L 129.34375 29.464844 L 128.832031 29.464844 C 128.585938 29.480469 128.347656 29.539062 128.121094 29.636719 L 127.835938 29.636719 L 127.835938 37.742188 L 128.320312 37.742188 C 130.242188 38.386719 132.222656 38.824219 134.234375 39.058594 L 137.078125 39.058594 C 138.3125 39.148438 139.550781 39.03125 140.746094 38.714844 C 143.835938 38.140625 146.390625 35.96875 147.460938 33.003906 C 147.800781 32.191406 147.972656 31.316406 147.972656 30.433594 C 148.082031 29.191406 147.867188 27.941406 147.347656 26.808594 Z M 120.554688 12.050781 C 117.109375 10.597656 113.207031 10.691406 109.832031 12.304688 C 106.664062 13.863281 104.296875 16.695312 103.320312 20.101562 C 102.707031 21.9375 102.445312 23.875 102.554688 25.808594 C 102.53125 26.863281 102.617188 27.914062 102.808594 28.949219 C 103.75 34.164062 107.824219 38.242188 113.019531 39.171875 C 114.671875 39.378906 116.34375 39.378906 117.996094 39.171875 C 119.710938 38.867188 121.351562 38.238281 122.832031 37.316406 C 124.054688 36.625 125.089844 35.644531 125.84375 34.460938 C 125.746094 34.085938 125.5 33.765625 125.164062 33.574219 C 124.839844 33.691406 124.53125 33.855469 124.253906 34.0625 C 122.839844 34.996094 121.167969 35.464844 119.476562 35.402344 C 117.199219 35.558594 114.976562 34.675781 113.417969 33.003906 C 112.820312 32.449219 112.332031 31.792969 111.96875 31.0625 C 111.082031 29.289062 110.605469 27.335938 110.574219 25.351562 L 110.574219 24.238281 L 126.328125 24.238281 L 126.328125 23.667969 C 126.363281 23.097656 126.363281 22.527344 126.328125 21.957031 C 126.316406 17.851562 124.113281 14.070312 120.554688 12.050781 Z M 112.621094 21.925781 L 110.628906 21.925781 L 110.628906 20.242188 C 111.285156 15.933594 112.90625 13.363281 114.894531 13.363281 C 116.886719 13.363281 117.738281 15.902344 118.109375 20.558594 L 118.109375 21.871094 L 116.402344 21.871094 Z M 71.726562 11.105469 C 70.742188 11.070312 69.765625 11.273438 68.882812 11.707031 C 66.957031 12.644531 65.40625 14.203125 64.472656 16.132812 L 64.101562 16.816406 L 64.101562 11.105469 L 63.960938 11.105469 C 63.621094 11.105469 53.097656 13.21875 52.753906 13.363281 C 52.414062 13.503906 52.527344 13.535156 52.527344 14.046875 C 52.527344 14.5625 52.527344 14.648438 52.753906 14.675781 L 53.863281 14.902344 C 54.496094 14.917969 55.082031 15.226562 55.457031 15.730469 C 56.167969 16.675781 56.308594 18.328125 56.308594 25.382812 C 56.449219 28.554688 56.316406 31.738281 55.914062 34.886719 C 55.714844 35.863281 54.929688 36.605469 53.949219 36.746094 L 52.984375 36.945312 L 52.613281 36.945312 L 52.613281 37.742188 C 52.511719 38.007812 52.511719 38.304688 52.613281 38.570312 L 68.511719 38.570312 L 68.511719 37.742188 C 68.566406 37.46875 68.566406 37.1875 68.511719 36.914062 C 67.554688 36.878906 66.601562 36.753906 65.667969 36.542969 C 64.625 35.996094 64.027344 34.863281 64.160156 33.691406 C 63.933594 32.035156 63.820312 27.179688 63.875 23.46875 C 63.933594 19.757812 63.875 19.527344 64.1875 19.273438 C 65.140625 18.539062 66.316406 18.164062 67.515625 18.214844 C 68.644531 18.242188 69.753906 18.523438 70.757812 19.042969 C 71.105469 19.238281 71.480469 19.382812 71.867188 19.472656 C 71.867188 19.472656 74.710938 12.5625 74.710938 12.25 C 73.972656 11.386719 72.847656 10.957031 71.726562 11.105469 Z M 52.554688 23.097656 C 52.355469 18.957031 50.171875 15.171875 46.699219 12.933594 C 42.570312 10.699219 37.632812 10.5625 33.386719 12.5625 C 30.429688 14.128906 28.195312 16.792969 27.160156 19.984375 C 26.089844 23.5625 26.089844 27.375 27.160156 30.949219 C 27.71875 32.902344 28.765625 34.679688 30.203125 36.117188 C 31.992188 37.867188 34.296875 38.988281 36.773438 39.3125 C 38.363281 39.445312 39.960938 39.445312 41.550781 39.3125 C 42.136719 39.222656 42.714844 39.101562 43.285156 38.941406 C 48.011719 37.617188 51.546875 33.664062 52.355469 28.808594 C 52.640625 26.917969 52.707031 25.003906 52.554688 23.097656 Z M 40.726562 37.371094 C 37.882812 38.230469 35.75 35.460938 35.039062 29.636719 C 34.777344 26.585938 34.777344 23.519531 35.039062 20.472656 C 35.605469 15.789062 37.058594 13.417969 39.304688 13.417969 C 40.222656 13.363281 41.113281 13.753906 41.691406 14.476562 C 43.597656 16.386719 44.535156 20.1875 44.535156 25.894531 C 44.773438 29.125 44.265625 32.371094 43.058594 35.375 C 42.523438 36.25 41.695312 36.90625 40.726562 37.230469 Z M 91.917969 11.679688 C 91.113281 11.574219 90.300781 11.574219 89.5 11.679688 C 87.960938 11.675781 86.4375 12.007812 85.035156 12.648438 L 84.152344 13.019531 L 84.152344 6.824219 C 84.308594 4.734375 84.308594 2.632812 84.152344 0.542969 C 83.8125 0.542969 72.949219 2.628906 72.777344 2.714844 C 72.691406 2.925781 72.691406 3.160156 72.777344 3.371094 C 72.777344 3.96875 72.777344 3.941406 74.058594 4.226562 C 74.417969 4.308594 74.761719 4.441406 75.082031 4.625 C 75.636719 5.148438 76.003906 5.84375 76.132812 6.597656 C 76.457031 8.769531 76.5625 10.96875 76.445312 13.164062 L 76.445312 38.230469 L 77.214844 38.398438 C 78.351562 38.65625 81.566406 39.199219 82.617188 39.3125 C 84.71875 39.480469 86.828125 39.480469 88.929688 39.3125 C 93.683594 38.828125 97.777344 35.738281 99.566406 31.292969 C 100.089844 29.890625 100.453125 28.433594 100.648438 26.953125 C 100.816406 24.941406 100.75 22.921875 100.449219 20.929688 C 99.824219 16.351562 96.414062 12.65625 91.917969 11.679688 Z M 84.464844 36.886719 C 84.464844 36.515625 84.179688 24.011719 84.238281 19.015625 L 84.238281 15.105469 L 85.0625 14.902344 C 85.621094 14.824219 86.183594 14.824219 86.742188 14.902344 C 87.355469 14.839844 87.976562 14.980469 88.503906 15.304688 C 90.65625 16.792969 92.007812 19.195312 92.171875 21.8125 C 92.378906 23.890625 92.378906 25.984375 92.171875 28.066406 C 92.003906 31.085938 90.84375 33.96875 88.875 36.257812 C 88.316406 36.792969 87.613281 37.148438 86.855469 37.285156 C 86.28125 37.386719 85.695312 37.386719 85.121094 37.285156 C 84.578125 37.285156 84.578125 37.117188 84.578125 36.886719 Z M 84.464844 36.886719 "></path></g></svg> 