<?xml version="1.0" encoding="UTF-8"?> <svg xmlns="http://www.w3.org/2000/svg" width="50" height="50" viewBox="0 0 50 50" fill="none"><path d="M27.8416 38.8748C27.7531 38.8014 27.6494 38.7484 27.538 38.7198C27.4266 38.6912 27.3102 38.6876 27.1973 38.7093C25.708 38.9846 24.1932 39.0979 22.6795 39.0473C22.4687 39.0435 22.2649 39.1227 22.1119 39.2677C22.0369 39.3406 21.9774 39.4278 21.9367 39.5241C21.896 39.6203 21.875 39.7238 21.875 39.8283V45.3123C21.875 45.5195 21.9573 45.7182 22.1038 45.8648C22.2503 46.0113 22.449 46.0936 22.6562 46.0936H27.3438C27.551 46.0936 27.7497 46.0113 27.8962 45.8648C28.0427 45.7182 28.125 45.5195 28.125 45.3123V39.4764C28.125 39.3614 28.0996 39.2479 28.0506 39.1439C28.0016 39.0399 27.9302 38.948 27.8416 38.8748Z" fill="#1E7F97"></path><path d="M40.4345 4.99197C40.3655 4.90705 40.2794 4.83756 40.1818 4.78801C40.0843 4.73846 39.9774 4.70994 39.8681 4.70431C39.7588 4.69825 39.6495 4.71545 39.5474 4.75478C39.4452 4.7941 39.3526 4.85466 39.2756 4.93244L37.049 7.15947C36.9141 7.29437 36.8332 7.47398 36.8216 7.66441C36.81 7.85484 36.8685 8.04294 36.9861 8.19322C39.3545 11.2016 40.6368 14.922 40.6249 18.7508C40.6198 23.3076 38.8073 27.6764 35.5851 30.8985C32.3629 34.1207 27.9942 35.9332 23.4374 35.9383C19.6086 35.9501 15.8881 34.6677 12.8798 32.2991C12.7294 32.1817 12.5413 32.1234 12.3509 32.135C12.1605 32.1467 11.981 32.2276 11.8461 32.3624L9.6195 34.5894C9.54214 34.6667 9.48188 34.7595 9.44263 34.8616C9.40339 34.9637 9.38602 35.0729 9.39166 35.1821C9.39731 35.2914 9.42583 35.3982 9.47538 35.4958C9.52494 35.5933 9.59442 35.6793 9.67934 35.7483C13.5599 38.9223 18.4242 40.6467 23.4374 40.6258C29.237 40.6193 34.7972 38.3125 38.8982 34.2116C42.9991 30.1106 45.3059 24.5504 45.3124 18.7508C45.3333 13.7373 43.6087 8.87273 40.4345 4.99197Z" fill="#269FBD"></path><path d="M15.0885 30.0593C14.2431 29.4376 13.4719 28.7208 12.7902 27.923C12.7202 27.8409 12.6341 27.7742 12.5371 27.7271C12.4401 27.6799 12.3344 27.6534 12.2266 27.6491C12.1189 27.6448 12.0114 27.6628 11.911 27.7021C11.8105 27.7414 11.7193 27.801 11.6431 27.8773L5.40189 34.1189C4.94794 34.5769 4.69389 35.196 4.69532 35.8409C4.69675 36.4857 4.95354 37.1037 5.40951 37.5597C5.86549 38.0157 6.48351 38.2725 7.12835 38.2739C7.77318 38.2753 8.39234 38.0213 8.85033 37.5673L15.1774 31.2403C15.2569 31.1608 15.3183 31.065 15.3574 30.9596C15.3965 30.8541 15.4123 30.7415 15.4039 30.6294C15.3954 30.5173 15.3629 30.4083 15.3085 30.3099C15.254 30.2115 15.179 30.126 15.0885 30.0593Z" fill="#1E7F97"></path><path d="M42.2623 0.723017C41.8051 0.266677 41.1856 0.0101908 40.5397 0.00976615C39.8937 0.00934147 39.2739 0.265013 38.8161 0.720751L32.5645 6.95622C32.4884 7.03247 32.4288 7.12366 32.3895 7.22406C32.3503 7.32446 32.3323 7.43189 32.3366 7.5396C32.3409 7.6473 32.3674 7.75295 32.4145 7.8499C32.4616 7.94685 32.5283 8.033 32.6103 8.10294C33.4078 8.78506 34.1244 9.55634 34.7462 10.4017C34.8129 10.4922 34.8984 10.5672 34.9969 10.6216C35.0953 10.676 35.2043 10.7085 35.3165 10.7168C35.3359 10.7183 35.3556 10.719 35.3749 10.719C35.4774 10.7191 35.579 10.6989 35.6738 10.6596C35.7686 10.6203 35.8547 10.5628 35.9272 10.4902L42.2623 4.17153C42.719 3.71393 42.9755 3.09381 42.9755 2.44727C42.9755 1.80074 42.719 1.18062 42.2623 0.723017Z" fill="#1E7F97"></path><path d="M23.4375 34.375C32.0669 34.375 39.0625 27.3794 39.0625 18.75C39.0625 10.1206 32.0669 3.125 23.4375 3.125C14.8081 3.125 7.8125 10.1206 7.8125 18.75C7.8125 27.3794 14.8081 34.375 23.4375 34.375Z" fill="#D4ECF2"></path><path d="M35.8819 48.9288L34.3194 45.0226C34.2613 44.8776 34.1612 44.7533 34.0319 44.6657C33.9026 44.5782 33.75 44.5313 33.5938 44.5312H16.4063C16.2502 44.5313 16.0976 44.5782 15.9683 44.6657C15.839 44.7533 15.7388 44.8776 15.6808 45.0226L14.1183 48.9288C14.0709 49.0474 14.0533 49.1757 14.067 49.3026C14.0807 49.4296 14.1253 49.5512 14.1969 49.6569C14.2685 49.7626 14.3649 49.8491 14.4777 49.9089C14.5905 49.9687 14.7162 50 14.8438 50H35.1563C35.284 50 35.4097 49.9687 35.5225 49.9089C35.6353 49.8491 35.7317 49.7626 35.8033 49.6569C35.8748 49.5512 35.9194 49.4296 35.9332 49.3026C35.9469 49.1757 35.9293 49.0474 35.8819 48.9288Z" fill="#269FBD"></path><path d="M32.1328 5.77344C32.0338 7.77429 31.2057 9.66964 29.8047 11.1016C29.2168 11.6251 28.4732 11.9408 27.6883 12C26.9034 12.0593 26.1207 11.8589 25.4609 11.4297C22.7734 9.92969 21.3359 10.5859 19.1562 11.5781C18.0881 12.0992 16.9772 12.5278 15.8359 12.8594C15.2796 13.0192 14.7038 13.1007 14.125 13.1016C12.734 13.0872 11.3893 12.5995 10.3125 11.7188C10.114 11.5674 9.92368 11.4057 9.74219 11.2344C10.7841 9.333 12.2107 7.66949 13.931 6.34985C15.6513 5.0302 17.6276 4.08334 19.7341 3.5696C21.8405 3.05586 24.0308 2.98649 26.1655 3.36593C28.3002 3.74537 30.3325 4.56528 32.1328 5.77344Z" fill="#269FBD"></path><path d="M39.0603 18.75C39.0603 21.092 38.5338 23.404 37.5195 25.515C36.5053 27.6259 35.0293 29.4818 33.2009 30.9453C32.8908 30.4906 32.6115 30.0156 32.365 29.5234C31.3337 27.5391 29.99 23.7109 32.5525 20.2969C34.5447 17.6484 36.7712 14.4297 37.4587 11.8594C38.5151 14.0026 39.0631 16.3606 39.0603 18.75Z" fill="#269FBD"></path><path d="M26.8594 27.1181C25.3594 29.5712 23.3437 29.0322 21.7266 28.6025C20.9242 28.3135 20.0645 28.2198 19.2188 28.329C19.8438 28.9179 20.5038 29.4683 21.1953 29.9775C22.8939 31.1785 24.4255 32.5998 25.75 34.204C24.9847 34.3207 24.2116 34.3781 23.4375 34.3759C19.3449 34.3731 15.4166 32.7652 12.4966 29.8977C9.57648 27.0302 7.89751 23.1318 7.82031 19.04C10.2144 19.1336 12.5363 19.885 14.5312 21.2118C15.9062 22.0478 16.3438 21.915 16.4141 21.8837C16.7266 21.7353 16.8594 20.7353 16.9609 20.0009C17.1406 18.6728 17.3672 17.0165 18.75 16.4228C20.2031 15.7978 21.5703 15.1962 22.6797 15.8134C23.4375 16.2353 23.8828 17.1025 24.125 18.6337C24.4086 19.6989 24.9661 20.6712 25.7422 21.454C26.9062 22.8915 28.3594 24.6806 26.8594 27.1181Z" fill="#269FBD"></path></svg> 