<?xml version="1.0" encoding="UTF-8"?> <svg xmlns="http://www.w3.org/2000/svg" width="42" height="42" viewBox="0 0 42 42" fill="none"><path d="M38.7188 5.90625H36.75C36.576 5.90625 36.409 5.97539 36.286 6.09846C36.1629 6.22153 36.0938 6.38845 36.0938 6.5625V9.1875H33.4688V6.5625C33.4688 6.38845 33.3996 6.22153 33.2765 6.09846C33.1535 5.97539 32.9865 5.90625 32.8125 5.90625H27.5625C27.3885 5.90625 27.2215 5.97539 27.0985 6.09846C26.9754 6.22153 26.9062 6.38845 26.9062 6.5625V9.1875H24.2812V6.5625C24.2812 6.38845 24.2121 6.22153 24.089 6.09846C23.966 5.97539 23.799 5.90625 23.625 5.90625H18.375C18.201 5.90625 18.034 5.97539 17.911 6.09846C17.7879 6.22153 17.7188 6.38845 17.7188 6.5625V9.1875H15.0938V6.5625C15.0938 6.38845 15.0246 6.22153 14.9015 6.09846C14.7785 5.97539 14.6115 5.90625 14.4375 5.90625H9.1875C9.01345 5.90625 8.84653 5.97539 8.72346 6.09846C8.60039 6.22153 8.53125 6.38845 8.53125 6.5625V9.1875H5.90625V6.5625C5.90625 6.38845 5.83711 6.22153 5.71404 6.09846C5.59097 5.97539 5.42405 5.90625 5.25 5.90625H3.28125C2.41132 5.90727 1.57732 6.25331 0.962188 6.86844C0.347056 7.48357 0.0010247 8.31757 0 9.1875L0 36.0938C0.0010247 36.9637 0.347056 37.7977 0.962188 38.4128C1.57732 39.0279 2.41132 39.374 3.28125 39.375H38.7188C39.5887 39.374 40.4227 39.0279 41.0378 38.4128C41.6529 37.7977 41.999 36.9637 42 36.0938V9.1875C41.999 8.31757 41.6529 7.48357 41.0378 6.86844C40.4227 6.25331 39.5887 5.90727 38.7188 5.90625Z" fill="#269FBD"></path><path d="M0 13.125V36.0938C0 36.964 0.345702 37.7986 0.961056 38.4139C1.57641 39.0293 2.41101 39.375 3.28125 39.375H38.7188C39.589 39.375 40.4236 39.0293 41.0389 38.4139C41.6543 37.7986 42 36.964 42 36.0938V13.125H0Z" fill="#D4ECF2"></path><path d="M9.1875 2.625H5.25C4.88756 2.625 4.59375 2.91881 4.59375 3.28125V9.84375C4.59375 10.2062 4.88756 10.5 5.25 10.5H9.1875C9.54994 10.5 9.84375 10.2062 9.84375 9.84375V3.28125C9.84375 2.91881 9.54994 2.625 9.1875 2.625Z" fill="#269FBD"></path><path d="M18.375 2.625H14.4375C14.0751 2.625 13.7812 2.91881 13.7812 3.28125V9.84375C13.7812 10.2062 14.0751 10.5 14.4375 10.5H18.375C18.7374 10.5 19.0312 10.2062 19.0312 9.84375V3.28125C19.0312 2.91881 18.7374 2.625 18.375 2.625Z" fill="#269FBD"></path><path d="M27.5625 2.625H23.625C23.2626 2.625 22.9688 2.91881 22.9688 3.28125V9.84375C22.9688 10.2062 23.2626 10.5 23.625 10.5H27.5625C27.9249 10.5 28.2188 10.2062 28.2188 9.84375V3.28125C28.2188 2.91881 27.9249 2.625 27.5625 2.625Z" fill="#269FBD"></path><path d="M36.75 2.625H32.8125C32.4501 2.625 32.1562 2.91881 32.1562 3.28125V9.84375C32.1562 10.2062 32.4501 10.5 32.8125 10.5H36.75C37.1124 10.5 37.4062 10.2062 37.4062 9.84375V3.28125C37.4062 2.91881 37.1124 2.625 36.75 2.625Z" fill="#269FBD"></path><path d="M22.9688 16.4062H19.0312C18.6688 16.4062 18.375 16.7001 18.375 17.0625V21C18.375 21.3624 18.6688 21.6562 19.0312 21.6562H22.9688C23.3312 21.6562 23.625 21.3624 23.625 21V17.0625C23.625 16.7001 23.3312 16.4062 22.9688 16.4062Z" fill="#269FBD"></path><path d="M15.75 16.4062H11.8125C11.4501 16.4062 11.1562 16.7001 11.1562 17.0625V21C11.1562 21.3624 11.4501 21.6562 11.8125 21.6562H15.75C16.1124 21.6562 16.4062 21.3624 16.4062 21V17.0625C16.4062 16.7001 16.1124 16.4062 15.75 16.4062Z" fill="#269FBD"></path><path d="M8.53125 16.4062H4.59375C4.23131 16.4062 3.9375 16.7001 3.9375 17.0625V21C3.9375 21.3624 4.23131 21.6562 4.59375 21.6562H8.53125C8.89369 21.6562 9.1875 21.3624 9.1875 21V17.0625C9.1875 16.7001 8.89369 16.4062 8.53125 16.4062Z" fill="#269FBD"></path><path d="M30.1875 16.4062H26.25C25.8876 16.4062 25.5938 16.7001 25.5938 17.0625V21C25.5938 21.3624 25.8876 21.6562 26.25 21.6562H30.1875C30.5499 21.6562 30.8438 21.3624 30.8438 21V17.0625C30.8438 16.7001 30.5499 16.4062 30.1875 16.4062Z" fill="#269FBD"></path><path d="M37.4062 16.4062H33.4688C33.1063 16.4062 32.8125 16.7001 32.8125 17.0625V21C32.8125 21.3624 33.1063 21.6562 33.4688 21.6562H37.4062C37.7687 21.6562 38.0625 21.3624 38.0625 21V17.0625C38.0625 16.7001 37.7687 16.4062 37.4062 16.4062Z" fill="#269FBD"></path><path d="M22.9688 23.625H19.0312C18.6688 23.625 18.375 23.9188 18.375 24.2812V28.2188C18.375 28.5812 18.6688 28.875 19.0312 28.875H22.9688C23.3312 28.875 23.625 28.5812 23.625 28.2188V24.2812C23.625 23.9188 23.3312 23.625 22.9688 23.625Z" fill="#269FBD"></path><path d="M15.75 23.625H11.8125C11.4501 23.625 11.1562 23.9188 11.1562 24.2812V28.2188C11.1562 28.5812 11.4501 28.875 11.8125 28.875H15.75C16.1124 28.875 16.4062 28.5812 16.4062 28.2188V24.2812C16.4062 23.9188 16.1124 23.625 15.75 23.625Z" fill="#269FBD"></path><path d="M8.53125 23.625H4.59375C4.23131 23.625 3.9375 23.9188 3.9375 24.2812V28.2188C3.9375 28.5812 4.23131 28.875 4.59375 28.875H8.53125C8.89369 28.875 9.1875 28.5812 9.1875 28.2188V24.2812C9.1875 23.9188 8.89369 23.625 8.53125 23.625Z" fill="#269FBD"></path><path d="M30.1875 23.625H26.25C25.8876 23.625 25.5938 23.9188 25.5938 24.2812V28.2188C25.5938 28.5812 25.8876 28.875 26.25 28.875H30.1875C30.5499 28.875 30.8438 28.5812 30.8438 28.2188V24.2812C30.8438 23.9188 30.5499 23.625 30.1875 23.625Z" fill="#269FBD"></path><path d="M37.4062 23.625H33.4688C33.1063 23.625 32.8125 23.9188 32.8125 24.2812V28.2188C32.8125 28.5812 33.1063 28.875 33.4688 28.875H37.4062C37.7687 28.875 38.0625 28.5812 38.0625 28.2188V24.2812C38.0625 23.9188 37.7687 23.625 37.4062 23.625Z" fill="#269FBD"></path><path d="M22.9688 30.8438H19.0312C18.6688 30.8438 18.375 31.1376 18.375 31.5V35.4375C18.375 35.7999 18.6688 36.0938 19.0312 36.0938H22.9688C23.3312 36.0938 23.625 35.7999 23.625 35.4375V31.5C23.625 31.1376 23.3312 30.8438 22.9688 30.8438Z" fill="#269FBD"></path><path d="M15.75 30.8438H11.8125C11.4501 30.8438 11.1562 31.1376 11.1562 31.5V35.4375C11.1562 35.7999 11.4501 36.0938 11.8125 36.0938H15.75C16.1124 36.0938 16.4062 35.7999 16.4062 35.4375V31.5C16.4062 31.1376 16.1124 30.8438 15.75 30.8438Z" fill="#269FBD"></path><path d="M8.53125 30.8438H4.59375C4.23131 30.8438 3.9375 31.1376 3.9375 31.5V35.4375C3.9375 35.7999 4.23131 36.0938 4.59375 36.0938H8.53125C8.89369 36.0938 9.1875 35.7999 9.1875 35.4375V31.5C9.1875 31.1376 8.89369 30.8438 8.53125 30.8438Z" fill="#269FBD"></path><path d="M30.1875 30.8438H26.25C25.8876 30.8438 25.5938 31.1376 25.5938 31.5V35.4375C25.5938 35.7999 25.8876 36.0938 26.25 36.0938H30.1875C30.5499 36.0938 30.8438 35.7999 30.8438 35.4375V31.5C30.8438 31.1376 30.5499 30.8438 30.1875 30.8438Z" fill="#269FBD"></path><path d="M37.4062 30.8438H33.4688C33.1063 30.8438 32.8125 31.1376 32.8125 31.5V35.4375C32.8125 35.7999 33.1063 36.0938 33.4688 36.0938H37.4062C37.7687 36.0938 38.0625 35.7999 38.0625 35.4375V31.5C38.0625 31.1376 37.7687 30.8438 37.4062 30.8438Z" fill="#269FBD"></path></svg> 