<?xml version="1.0" encoding="UTF-8"?> <svg xmlns="http://www.w3.org/2000/svg" width="50" height="51" viewBox="0 0 50 51" fill="none"><path d="M44.115 10.9995C43.0204 9.64931 41.6545 8.54407 40.1057 7.75536C38.5568 6.96665 36.8595 6.51205 35.1238 6.421C33.3881 6.32995 31.6526 6.60447 30.0297 7.2268C28.4068 7.84913 26.9328 8.80538 25.703 10.0336L25.0034 10.7332L24.3037 10.0336C23.1528 8.88177 21.7862 7.96788 20.2821 7.34415C18.7779 6.72043 17.1656 6.39907 15.5373 6.39844C13.9089 6.3978 12.2964 6.7179 10.7918 7.34045C9.28715 7.96301 7.91986 8.87583 6.768 10.0268C5.61614 11.1778 4.70226 12.5443 4.07853 14.0485C3.4548 15.5526 3.13345 17.1649 3.13281 18.7932C3.13218 20.4216 3.45228 22.0341 4.07483 23.5388C4.69738 25.0434 5.6102 26.4107 6.76117 27.5625L24.451 45.2375C24.5976 45.3839 24.7962 45.466 25.0034 45.466C25.2105 45.466 25.4091 45.3839 25.5557 45.2375L43.2455 27.5625C45.4182 25.4009 46.7102 22.5091 46.8709 19.4485C47.0315 16.3879 46.0494 13.3767 44.115 10.9995Z" fill="#F5DCED"></path><path d="M25.7812 34.5284C25.7622 34.5284 25.7431 34.5276 25.7241 34.5265C25.5629 34.5147 25.4093 34.4532 25.2846 34.3504C25.1598 34.2477 25.07 34.1087 25.0275 33.9528L20.9671 19.0647L17.9169 26.9963C17.8602 27.1437 17.7601 27.2705 17.6299 27.3599C17.4997 27.4494 17.3455 27.4972 17.1875 27.4972H1.5625C1.3553 27.4972 1.15659 27.4149 1.01007 27.2683C0.86356 27.1218 0.78125 26.9231 0.78125 26.7159C0.78125 26.5087 0.86356 26.31 1.01007 26.1635C1.15659 26.017 1.3553 25.9347 1.5625 25.9347H16.6512L20.3644 16.2793C20.4206 16.1235 20.5261 15.9904 20.665 15.9002C20.8038 15.8099 20.9683 15.7675 21.1334 15.7793C21.2978 15.7876 21.4553 15.8477 21.5835 15.9508C21.7118 16.054 21.8041 16.195 21.8475 16.3537L25.9531 31.4065L30.5344 20.934C30.5952 20.7948 30.6953 20.6764 30.8224 20.5932C30.9495 20.5101 31.0981 20.4659 31.25 20.4659H31.253C31.4054 20.4665 31.5542 20.5117 31.6812 20.5958C31.8082 20.6799 31.9079 20.7993 31.9679 20.9394L34.1087 25.9347H48.4375C48.6447 25.9347 48.8434 26.017 48.9899 26.1635C49.1364 26.31 49.2187 26.5087 49.2187 26.7159C49.2187 26.9231 49.1364 27.1218 48.9899 27.2683C48.8434 27.4149 48.6447 27.4972 48.4375 27.4972H33.5937C33.4409 27.4973 33.2913 27.4524 33.1637 27.3683C33.0361 27.2841 32.936 27.1643 32.8759 27.0237L31.2422 23.2133L26.4969 34.0604C26.436 34.1995 26.3359 34.3179 26.2088 34.401C26.0817 34.4841 25.9331 34.5284 25.7812 34.5284Z" fill="#CC52A3"></path></svg> 