<?xml version="1.0" encoding="UTF-8"?> <svg xmlns="http://www.w3.org/2000/svg" width="50" height="50" viewBox="0 0 50 50" fill="none"><g clip-path="url(#clip0_11638_27961)"><path d="M44.643 6.30166C43.3775 5.15126 41.8849 4.27883 40.2615 3.74058C38.6381 3.20234 36.9199 3.01024 35.2177 3.17666C33.1924 3.42814 31.2403 4.09319 29.4827 5.13054C27.7251 6.1679 26.1994 7.55541 25.0004 9.20697C23.8012 7.55523 22.2753 6.16762 20.5175 5.13025C18.7596 4.09289 16.8072 3.42794 14.7816 3.17666C13.0798 3.008 11.3616 3.19905 9.73844 3.73742C8.11527 4.27578 6.62344 5.14943 5.35976 6.30166C3.68995 7.88764 2.35558 9.79274 1.43575 11.904C0.515917 14.0153 0.0293578 16.2898 0.00491576 18.5926C-0.315397 32.3973 15.0929 42.1338 24.3062 46.7085C24.5219 46.8158 24.7595 46.8717 25.0004 46.8717C25.2413 46.8717 25.4789 46.8158 25.6946 46.7085C34.9079 42.1338 50.3162 32.3988 49.9959 18.5926C49.9714 16.29 49.485 14.0157 48.5656 11.9044C47.6461 9.79321 46.3122 7.88799 44.643 6.30166Z" fill="#CC52A3"></path><path d="M6.25041 20.3003H6.21369C5.7994 20.2903 5.40602 20.1163 5.11994 19.8165C4.83385 19.5167 4.67847 19.1156 4.68791 18.7013C4.79416 14.18 7.63275 7.8125 13.6067 7.8125C14.0211 7.8125 14.4185 7.97712 14.7115 8.27015C15.0045 8.56317 15.1692 8.9606 15.1692 9.375C15.1692 9.7894 15.0045 10.1868 14.7115 10.4799C14.4185 10.7729 14.0211 10.9375 13.6067 10.9375C9.77962 10.9375 7.88791 15.6144 7.81291 18.7744C7.80335 19.1824 7.63453 19.5705 7.34253 19.8557C7.05053 20.1408 6.65855 20.3004 6.25041 20.3003Z" fill="#F5DCED"></path></g><defs><clipPath id="clip0_11638_27961"><rect width="50" height="50" fill="white"></rect></clipPath></defs></svg> 