<?xml version="1.0" encoding="UTF-8"?> <svg xmlns="http://www.w3.org/2000/svg" width="42" height="42" viewBox="0 0 42 42" fill="none"><path d="M18.8166 28.949C18.7341 28.8594 18.6283 28.7944 18.5111 28.7614C18.3939 28.7285 18.2698 28.7287 18.1527 28.7622C17.4921 28.9527 16.7848 28.8952 16.1637 28.6006C15.5426 28.3059 15.0506 27.7943 14.7804 27.1622C14.4904 26.4544 14.0069 25.8427 13.3851 25.3971C12.7634 24.9516 12.0287 24.6903 11.2653 24.6433C10.9691 24.6244 10.6781 24.557 10.4039 24.4436C10.3227 24.4096 10.2356 24.3922 10.1475 24.3926C10.0595 24.3929 9.97245 24.411 9.89155 24.4457C9.81065 24.4804 9.73755 24.531 9.67661 24.5945C9.61567 24.658 9.56813 24.7331 9.53682 24.8154L4.58213 37.842C4.53739 37.9592 4.52725 38.0869 4.55291 38.2098C4.57857 38.3326 4.63895 38.4456 4.72688 38.5352C4.81482 38.6247 4.92661 38.6872 5.04899 38.7151C5.17136 38.7431 5.29918 38.7353 5.41728 38.6927L10.584 36.8355L13.2097 41.6571C13.266 41.7607 13.3493 41.8472 13.4506 41.9075C13.552 41.9678 13.6678 41.9996 13.7858 41.9996C13.8005 41.9996 13.8152 41.999 13.83 41.9981C13.9552 41.9896 14.0754 41.9454 14.1763 41.8707C14.2771 41.796 14.3545 41.694 14.3991 41.5767L18.9469 29.6264C18.9902 29.5125 19.0009 29.3888 18.9779 29.2692C18.9548 29.1496 18.899 29.0387 18.8166 28.949Z" fill="#F5DCED"></path><path d="M37.4307 37.842L32.476 24.8154C32.4447 24.7331 32.3972 24.658 32.3362 24.5945C32.2753 24.531 32.2022 24.4804 32.1213 24.4457C32.0404 24.411 31.9533 24.3929 31.8653 24.3926C31.7773 24.3922 31.6901 24.4096 31.6089 24.4436C31.3325 24.5578 31.0391 24.6252 30.7406 24.6433C29.9801 24.6964 29.2493 24.9602 28.6302 25.405C28.0057 25.8445 27.5208 26.4543 27.2332 27.1618C26.9709 27.7992 26.4808 28.3163 25.8584 28.6124C25.2359 28.9085 24.5255 28.9626 23.8654 28.764C23.7482 28.7294 23.6236 28.7282 23.5057 28.7606C23.3879 28.793 23.2814 28.8577 23.1983 28.9474C23.1152 29.0371 23.0588 29.1482 23.0355 29.2682C23.0122 29.3882 23.0228 29.5123 23.0663 29.6266L27.6141 41.5769C27.6587 41.6942 27.736 41.7962 27.8369 41.8709C27.9378 41.9456 28.0579 41.9898 28.1832 41.9983C28.1979 41.9992 28.2126 41.9998 28.2274 41.9998C28.3454 41.9998 28.4611 41.968 28.5625 41.9077C28.6639 41.8474 28.7472 41.7609 28.8035 41.6573L31.4292 36.8357L36.5959 38.6929C36.714 38.7354 36.8418 38.7432 36.9641 38.7152C37.0865 38.6873 37.1982 38.6248 37.2861 38.5353C37.374 38.4457 37.4344 38.3328 37.4601 38.21C37.4857 38.0871 37.4754 37.9592 37.4307 37.842Z" fill="#F5DCED"></path><path d="M35.4283 11.9906C35.0333 11.6643 34.7388 11.2328 34.5789 10.7461C34.4189 10.2594 34.4 9.73737 34.5243 9.24036C34.6684 8.67216 34.6856 8.07917 34.5746 7.50357C34.4637 6.92798 34.2272 6.3839 33.8821 5.91002C33.5283 5.42326 33.0715 5.02051 32.5442 4.73045C32.0169 4.4404 31.4322 4.27018 30.8316 4.23193C30.315 4.19715 29.8182 4.01933 29.3968 3.71833C28.9754 3.41734 28.6461 3.00505 28.4456 2.52758C28.2212 1.98099 27.8803 1.48994 27.4466 1.08869C27.0128 0.687441 26.4968 0.385656 25.9344 0.204388C25.364 0.0178785 24.7598 -0.0419874 24.1639 0.0289637C23.568 0.0999147 22.9947 0.299976 22.484 0.615201C22.0387 0.88725 21.527 1.03119 21.0052 1.03119C20.4834 1.03119 19.9717 0.88725 19.5264 0.615201C19.0157 0.299963 18.4425 0.0998949 17.8465 0.0289436C17.2506 -0.0420077 16.6464 0.0178652 16.076 0.204388C15.5138 0.385804 14.998 0.687646 14.5644 1.08887C14.1309 1.4901 13.79 1.98105 13.5657 2.52751C13.3647 3.00587 13.0343 3.41877 12.6118 3.71992C12.1892 4.02106 11.6911 4.19854 11.1733 4.23245C10.5738 4.27131 9.99019 4.44183 9.46404 4.73187C8.93789 5.02191 8.48213 5.42435 8.12919 5.91055C7.78357 6.38556 7.547 6.93097 7.43633 7.50789C7.32567 8.08482 7.34363 8.67905 7.48895 9.24823C7.61177 9.74594 7.59112 10.2683 7.42939 10.7547C7.26765 11.2412 6.97144 11.6719 6.57506 11.9969C6.11623 12.373 5.74671 12.8464 5.49323 13.3828C5.23975 13.9192 5.10864 14.5052 5.10938 15.0985C5.11012 15.6917 5.24269 16.2774 5.49751 16.8132C5.75234 17.349 6.12303 17.8214 6.5828 18.1963C6.97771 18.5227 7.27218 18.9541 7.43215 19.4408C7.59212 19.9274 7.61106 20.4494 7.48679 20.9464C7.34264 21.5146 7.32545 22.1076 7.43643 22.6832C7.54742 23.2588 7.78385 23.8029 8.12893 24.2768C8.48277 24.7635 8.9396 25.1663 9.46687 25.4563C9.99414 25.7464 10.5789 25.9166 11.1794 25.9549C11.6961 25.9896 12.1929 26.1675 12.6143 26.4684C13.0357 26.7694 13.365 27.1817 13.5654 27.6592C13.7898 28.2057 14.1307 28.6968 14.5644 29.098C14.9981 29.4992 15.5141 29.801 16.0764 29.9823C16.6468 30.1688 17.251 30.2287 17.8469 30.1577C18.4429 30.0868 19.0161 29.8867 19.5268 29.5715C19.972 29.2996 20.4836 29.1558 21.0053 29.1558C21.5269 29.1558 22.0385 29.2996 22.4837 29.5715L22.4844 29.5718C22.995 29.8869 23.5682 30.0868 24.164 30.1578C24.7598 30.2287 25.3638 30.169 25.9342 29.9827C26.4966 29.8013 27.0126 29.4994 27.4464 29.0981C27.8802 28.6968 28.2212 28.2057 28.4458 27.6591C28.6466 27.1807 28.9768 26.7677 29.3993 26.4666C29.8218 26.1654 30.32 25.988 30.8377 25.9543C31.4373 25.9155 32.0209 25.7449 32.547 25.4549C33.0732 25.1649 33.5289 24.7624 33.8819 24.2762C34.2275 23.8012 34.4641 23.2558 34.5747 22.6789C34.6854 22.102 34.6674 21.5077 34.5221 20.9385C34.3993 20.4408 34.4199 19.9185 34.5817 19.4321C34.7434 18.9456 35.0396 18.515 35.436 18.1899C35.8948 17.8138 36.2644 17.3404 36.5178 16.804C36.7713 16.2676 36.9024 15.6816 36.9017 15.0883C36.901 14.4951 36.7684 13.9094 36.5136 13.3736C36.2587 12.8378 35.888 12.3656 35.4283 11.9906Z" fill="#CC52A3"></path><path d="M21 24.9375C26.4366 24.9375 30.8438 20.5303 30.8438 15.0938C30.8438 9.6572 26.4366 5.25 21 5.25C15.5634 5.25 11.1562 9.6572 11.1562 15.0938C11.1562 20.5303 15.5634 24.9375 21 24.9375Z" fill="#F5DCED"></path><path d="M26.7573 13.3637C26.7194 13.2472 26.6497 13.1437 26.556 13.0648C26.4624 12.9859 26.3485 12.9347 26.2273 12.917L23.0275 12.4521L21.5965 9.55278C21.5361 9.45045 21.4501 9.36563 21.3469 9.30671C21.2437 9.24779 21.1269 9.2168 21.0081 9.2168C20.8893 9.2168 20.7725 9.24779 20.6694 9.30671C20.5662 9.36563 20.4802 9.45045 20.4198 9.55278L18.9888 12.4521L15.7889 12.917C15.6677 12.9346 15.5537 12.9857 15.46 13.0646C15.3663 13.1435 15.2966 13.2471 15.2587 13.3636C15.2208 13.4801 15.2163 13.6049 15.2457 13.7238C15.2751 13.8428 15.3371 13.9511 15.4249 14.0366L17.741 16.2935L17.1943 19.4802C17.1737 19.6008 17.1872 19.7248 17.2333 19.8381C17.2794 19.9515 17.3563 20.0496 17.4553 20.1216C17.5543 20.1935 17.6714 20.2364 17.7934 20.2453C17.9154 20.2542 18.0375 20.2288 18.1459 20.172L21.0081 18.6676L23.8702 20.172C23.9786 20.2288 24.1007 20.2542 24.2227 20.2453C24.3448 20.2364 24.4619 20.1935 24.5608 20.1216C24.6598 20.0496 24.7367 19.9515 24.7828 19.8381C24.8289 19.7248 24.8424 19.6008 24.8218 19.4802L24.2751 16.2935L26.5912 14.0366C26.6789 13.9511 26.7409 13.8427 26.7702 13.7238C26.7996 13.6049 26.7951 13.4802 26.7573 13.3637Z" fill="#CC52A3"></path></svg> 