<?xml version="1.0" encoding="UTF-8"?> <svg xmlns="http://www.w3.org/2000/svg" width="50" height="50" viewBox="0 0 50 50" fill="none"><g clip-path="url(#clip0_11638_27965)"><path d="M18.75 18.75C18.3356 18.75 17.9382 18.5854 17.6451 18.2924C17.3521 17.9993 17.1875 17.6019 17.1875 17.1875V10.9375C17.1875 10.5231 17.3521 10.1257 17.6451 9.83265C17.9382 9.53962 18.3356 9.375 18.75 9.375C19.1644 9.375 19.5618 9.53962 19.8549 9.83265C20.1479 10.1257 20.3125 10.5231 20.3125 10.9375V17.1875C20.3125 17.6019 20.1479 17.9993 19.8549 18.2924C19.5618 18.5854 19.1644 18.75 18.75 18.75Z" fill="#269FBD"></path><path d="M49.8176 47.7066L35.7551 21.1441C35.6223 20.8932 35.4237 20.6832 35.1805 20.5367C34.9373 20.3901 34.6589 20.3127 34.375 20.3125C34.0912 20.3125 33.8128 20.3898 33.5697 20.5361C33.3265 20.6823 33.1278 20.892 32.9948 21.1427L26.5886 33.2208C26.4669 33.4499 26.4043 33.7056 26.4063 33.965C26.4083 34.2243 26.4748 34.4791 26.6 34.7063L34.5687 49.1906C34.7033 49.4357 34.9013 49.6401 35.142 49.7825C35.3826 49.9249 35.6571 50 35.9367 50H48.4367C48.7061 50 48.9709 49.9303 49.2054 49.7978C49.44 49.6652 49.6362 49.4743 49.7752 49.2435C49.9142 49.0127 49.9911 48.7499 49.9985 48.4806C50.006 48.2113 49.9437 47.9447 49.8176 47.7066Z" fill="#F1FCFF"></path><path d="M37.3067 47.6846L20.1192 16.4346C19.9844 16.1894 19.7862 15.985 19.5453 15.8425C19.3045 15.7001 19.0298 15.625 18.75 15.625C18.4702 15.625 18.1956 15.7001 17.9547 15.8425C17.7139 15.985 17.5157 16.1894 17.3809 16.4346L0.193397 47.6846C0.0625316 47.9225 -0.00405864 48.1905 0.000191414 48.462C0.00444147 48.7335 0.0793851 48.9993 0.217633 49.233C0.355881 49.4668 0.55266 49.6604 0.788568 49.7949C1.02448 49.9294 1.29137 50.0001 1.56293 50.0001H35.9379C36.2094 50 36.4762 49.9292 36.712 49.7946C36.9478 49.6601 37.1445 49.4664 37.2826 49.2327C37.4208 48.999 37.4957 48.7333 37.4999 48.4618C37.5041 48.1904 37.4375 47.9225 37.3067 47.6846Z" fill="#D4ECF2"></path><path d="M18.7523 29.6876C21.3924 29.6926 23.9656 28.8579 26.1 27.3043L20.1219 16.4346C19.9871 16.1894 19.7889 15.985 19.548 15.8425C19.3072 15.7001 19.0325 15.625 18.7527 15.625C18.4729 15.625 18.1983 15.7001 17.9574 15.8425C17.7166 15.985 17.5184 16.1894 17.3836 16.4346L11.4062 27.3024C13.5402 28.8561 16.1127 29.6913 18.7523 29.6876Z" fill="#269FBD"></path><path d="M31.2211 3.12415C29.2871 3.17277 27.3769 2.6893 25.6989 1.72649C23.5796 0.544063 21.1834 -0.0521783 18.757 -0.000851231C18.3423 -0.000652295 17.9445 0.163594 17.6505 0.456038C17.3564 0.748482 17.19 1.14538 17.1875 1.56009V12.5601C19.6412 12.2126 22.1411 12.6825 24.3011 13.8973C26.4205 15.0795 28.8167 15.6756 31.243 15.6241C31.6577 15.624 32.0555 15.4597 32.3495 15.1673C32.6436 14.8748 32.81 14.4779 32.8125 14.0632V4.68118C32.8105 4.47439 32.7677 4.27003 32.6865 4.0798C32.6054 3.88957 32.4876 3.71721 32.3397 3.57258C32.1919 3.42796 32.017 3.3139 31.8251 3.23696C31.6331 3.16001 31.4279 3.12167 31.2211 3.12415Z" fill="#269FBD"></path></g><defs><clipPath id="clip0_11638_27965"><rect width="50" height="50" fill="white"></rect></clipPath></defs></svg> 