<?xml version="1.0" encoding="UTF-8"?> <svg xmlns="http://www.w3.org/2000/svg" width="50" height="50" viewBox="0 0 50 50" fill="none"><path d="M27.8473 40.7543C27.7267 40.7449 27.6055 40.7633 27.4931 40.808C27.3807 40.8527 27.28 40.9226 27.1987 41.0123C26.2534 42.0728 25.4838 42.8967 25 43.4064C24.5156 42.8967 23.7466 42.0728 22.8013 41.0123C22.7197 40.9231 22.6189 40.8535 22.5066 40.8088C22.3942 40.7641 22.2732 40.7455 22.1527 40.7543C18.2419 41.084 14.0625 42.2498 14.0625 44.5325C14.0625 47.0975 19.5648 48.4387 25 48.4387C30.4352 48.4387 35.9375 47.0975 35.9375 44.5325C35.9375 42.2498 31.7581 41.084 27.8473 40.7543Z" fill="#A34282"></path><path d="M42.1875 18.75C42.1875 22.1406 40.0469 26.5 37.2969 30.6875C33.7996 35.8077 29.874 40.6218 25.5625 45.0781C25.4889 45.1524 25.4012 45.2113 25.3047 45.2516C25.2081 45.2918 25.1046 45.3125 25 45.3125C24.8954 45.3125 24.7919 45.2918 24.6953 45.2516C24.5988 45.2113 24.5111 45.1524 24.4375 45.0781C23.7656 44.3906 7.8125 28.0156 7.8125 18.75C7.8125 14.1916 9.62332 9.81988 12.8466 6.5966C16.0699 3.37332 20.4416 1.5625 25 1.5625C29.5584 1.5625 33.9301 3.37332 37.1534 6.5966C40.3767 9.81988 42.1875 14.1916 42.1875 18.75Z" fill="#FAEEF6"></path><path d="M32.8125 12.4844V24.2187C32.8127 24.7777 32.6126 25.3183 32.2486 25.7425C31.8846 26.1667 31.3807 26.4465 30.8281 26.5312C30.7092 26.5501 30.5891 26.5605 30.4688 26.5625H19.5313C19.2234 26.5629 18.9184 26.5026 18.6339 26.3849C18.3493 26.2673 18.0908 26.0947 17.8731 25.8769C17.6553 25.6592 17.4827 25.4007 17.3651 25.1161C17.2474 24.8316 17.1871 24.5266 17.1875 24.2187V12.4844L24.5938 7.92187C24.7154 7.84531 24.8562 7.80469 25 7.80469C25.1438 7.80469 25.2846 7.84531 25.4063 7.92187L32.8125 12.4844Z" fill="#CC52A3"></path><path d="M35.8287 15.25C35.7207 15.4279 35.5466 15.5557 35.3445 15.6055C35.1424 15.6552 34.9289 15.6229 34.7506 15.5156C32.2506 13.9844 34.1724 15.1719 25.0006 9.51562C20.8443 12.0781 18.9537 13.25 17.9224 13.875C16.6568 14.6562 16.6256 14.6719 15.2506 15.5156C15.0724 15.6221 14.8593 15.6538 14.6579 15.6036C14.4565 15.5535 14.2832 15.4256 14.1758 15.248C14.0684 15.0704 14.0357 14.8574 14.0848 14.6558C14.134 14.4541 14.261 14.2801 14.4381 14.1719C15.7974 13.3437 16.3287 13.0156 16.9537 12.625C17.9693 12 19.2349 11.2187 24.5943 7.92187C24.716 7.84531 24.8568 7.80469 25.0006 7.80469C25.1443 7.80469 25.2851 7.84531 25.4068 7.92187C34.2037 13.3437 32.0787 12.0312 35.5631 14.1719C35.74 14.2807 35.867 14.4548 35.9167 14.6565C35.9664 14.8582 35.9348 15.0714 35.8287 15.25Z" fill="#A34282"></path><path d="M17.9224 13.875C16.6568 14.6563 16.6256 14.6719 15.2506 15.5156C15.0724 15.6221 14.8593 15.6538 14.6579 15.6036C14.4565 15.5535 14.2832 15.4256 14.1758 15.248C14.0684 15.0704 14.0357 14.8575 14.0848 14.6558C14.134 14.4541 14.261 14.2802 14.4381 14.1719C15.7974 13.3437 16.3287 13.0156 16.9537 12.625C17.2662 13.0312 17.5943 13.4531 17.9224 13.875Z" fill="#A34282"></path><path d="M28.125 21.0938V26.5625H21.875V21.0938C21.8795 20.4736 22.1279 19.88 22.5665 19.4415C23.005 19.0029 23.5986 18.7545 24.2188 18.75H25.7813C26.0892 18.7496 26.3941 18.8099 26.6787 18.9276C26.9632 19.0452 27.2217 19.2178 27.4394 19.4356C27.6572 19.6533 27.8298 19.9118 27.9474 20.1964C28.0651 20.4809 28.1254 20.7859 28.125 21.0938Z" fill="#F5DCED"></path></svg> 