<?xml version="1.0" encoding="UTF-8"?> <svg xmlns="http://www.w3.org/2000/svg" width="50" height="50" viewBox="0 0 50 50" fill="none"><g clip-path="url(#clip0_11638_27944)"><path d="M26.5628 3.125C13.6394 3.125 3.12535 12.2367 3.12535 23.4375C3.14473 27.5218 4.53243 31.4817 7.06676 34.6847C5.08023 38.06 2.83876 41.2786 0.361915 44.3125C0.17185 44.5407 0.0507513 44.8183 0.0128071 45.1129C-0.0251371 45.4074 0.0216447 45.7067 0.147672 45.9756C0.273698 46.2445 0.473751 46.4719 0.72439 46.6312C0.97503 46.7905 1.26588 46.8751 1.56285 46.875C7.47624 46.7688 13.2818 45.2736 18.5108 42.5102C21.115 43.3355 23.831 43.7537 26.5628 43.75C39.4863 43.75 50.0003 34.6383 50.0003 23.4375C50.0003 12.2367 39.4863 3.125 26.5628 3.125Z" fill="#D4ECF2"></path><path d="M26.8828 26C28.2635 26 29.3828 24.8807 29.3828 23.5C29.3828 22.1193 28.2635 21 26.8828 21C25.5021 21 24.3828 22.1193 24.3828 23.5C24.3828 24.8807 25.5021 26 26.8828 26Z" fill="#269FBD"></path><path d="M36.2656 26C37.6463 26 38.7656 24.8807 38.7656 23.5C38.7656 22.1193 37.6463 21 36.2656 21C34.8849 21 33.7656 22.1193 33.7656 23.5C33.7656 24.8807 34.8849 26 36.2656 26Z" fill="#269FBD"></path><path d="M17.5 26C18.8807 26 20 24.8807 20 23.5C20 22.1193 18.8807 21 17.5 21C16.1193 21 15 22.1193 15 23.5C15 24.8807 16.1193 26 17.5 26Z" fill="#269FBD"></path></g><defs><clipPath id="clip0_11638_27944"><rect width="50" height="50" fill="white"></rect></clipPath></defs></svg> 