<?xml version="1.0" encoding="UTF-8"?> <svg xmlns="http://www.w3.org/2000/svg" width="32" height="33" viewBox="0 0 32 33" fill="none"><g clip-path="url(#clip0_11174_27549)"><path d="M17.0002 2.96094C8.72922 2.96094 2.00023 8.79244 2.00023 15.9609C2.01262 18.5749 2.90075 21.1092 4.52273 23.1591C3.25135 25.3193 1.81681 27.3793 0.231626 29.3209C0.109984 29.467 0.0324808 29.6447 0.00819653 29.8332C-0.0160878 30.0217 0.0138526 30.2132 0.0945098 30.3853C0.175167 30.5574 0.3032 30.703 0.46361 30.8049C0.624019 30.9069 0.81016 30.961 1.00023 30.9609C4.78479 30.893 8.50035 29.936 11.8469 28.1674C13.5136 28.6956 15.2519 28.9633 17.0002 28.9609C25.2712 28.9609 32.0002 23.1294 32.0002 15.9609C32.0002 8.79244 25.2712 2.96094 17.0002 2.96094Z" fill="#D4ECF2"></path><path d="M17 16.9609C17.5523 16.9609 18 16.5132 18 15.9609C18 15.4087 17.5523 14.9609 17 14.9609C16.4477 14.9609 16 15.4087 16 15.9609C16 16.5132 16.4477 16.9609 17 16.9609Z" fill="#269FBD"></path><path d="M23 16.9609C23.5523 16.9609 24 16.5132 24 15.9609C24 15.4087 23.5523 14.9609 23 14.9609C22.4477 14.9609 22 15.4087 22 15.9609C22 16.5132 22.4477 16.9609 23 16.9609Z" fill="#269FBD"></path><path d="M11 16.9609C11.5523 16.9609 12 16.5132 12 15.9609C12 15.4087 11.5523 14.9609 11 14.9609C10.4477 14.9609 10 15.4087 10 15.9609C10 16.5132 10.4477 16.9609 11 16.9609Z" fill="#269FBD"></path></g><defs><clipPath id="clip0_11174_27549"><rect width="32" height="32" fill="white" transform="translate(0 0.960938)"></rect></clipPath></defs></svg> 