<?xml version="1.0" encoding="UTF-8"?> <svg xmlns="http://www.w3.org/2000/svg" width="32" height="33" viewBox="0 0 32 33" fill="none"><path d="M16.0001 5.95898C13.0837 5.96229 10.2877 7.12228 8.22554 9.18446C6.16335 11.2466 5.00336 14.0426 5.00006 16.959C4.99485 18.5797 5.35121 20.1811 6.04318 21.6466C6.73515 23.1122 7.7453 24.4049 9.00006 25.4307V29.959C9.00093 30.7544 9.31728 31.5169 9.8797 32.0793C10.4421 32.6418 11.2047 32.9581 12.0001 32.959H20.0001C20.7954 32.9581 21.558 32.6418 22.1204 32.0793C22.6828 31.5169 22.9992 30.7544 23.0001 29.959V25.4307C24.2548 24.4049 25.265 23.1122 25.9569 21.6466C26.6489 20.1811 27.0053 18.5797 27.0001 16.959C26.9967 14.0426 25.8368 11.2466 23.7746 9.18446C21.7124 7.12228 18.9164 5.96229 16.0001 5.95898Z" fill="#F5DCED"></path><path d="M20 18.9584H19.0673C19.2469 17.7133 19.8218 16.5589 20.7073 15.6654C20.8895 15.4768 20.9903 15.2242 20.988 14.962C20.9857 14.6998 20.8805 14.449 20.6951 14.2636C20.5097 14.0782 20.2589 13.973 19.9967 13.9707C19.7345 13.9685 19.4819 14.0693 19.2933 14.2514C18.0328 15.5205 17.2409 17.1802 17.0476 18.9584H14.9524C14.7592 17.1802 13.9674 15.5205 12.707 14.2514C12.5184 14.0693 12.2658 13.9685 12.0036 13.9707C11.7414 13.973 11.4906 14.0782 11.3052 14.2636C11.1198 14.449 11.0146 14.6998 11.0123 14.962C11.01 15.2242 11.1108 15.4768 11.293 15.6654C12.1784 16.559 12.7532 17.7134 12.9327 18.9584H12C11.7348 18.9584 11.4804 19.0638 11.2929 19.2513C11.1054 19.4388 11 19.6932 11 19.9584C11 20.2236 11.1054 20.478 11.2929 20.6655C11.4804 20.8531 11.7348 20.9584 12 20.9584H13V27.9584C13 28.2236 13.1054 28.478 13.2929 28.6655C13.4804 28.8531 13.7348 28.9584 14 28.9584C14.2652 28.9584 14.5196 28.8531 14.7071 28.6655C14.8946 28.478 15 28.2236 15 27.9584V20.9584H17V27.9584C17 28.2236 17.1054 28.478 17.2929 28.6655C17.4804 28.8531 17.7348 28.9584 18 28.9584C18.2652 28.9584 18.5196 28.8531 18.7071 28.6655C18.8946 28.478 19 28.2236 19 27.9584V20.9584H20C20.2652 20.9584 20.5196 20.8531 20.7071 20.6655C20.8946 20.478 21 20.2236 21 19.9584C21 19.6932 20.8946 19.4388 20.7071 19.2513C20.5196 19.0638 20.2652 18.9584 20 18.9584Z" fill="#CC52A3"></path><path d="M16 4.95898C15.7348 4.95898 15.4804 4.85363 15.2929 4.66609C15.1054 4.47855 15 4.2242 15 3.95898V1.95898C15 1.69377 15.1054 1.43941 15.2929 1.25188C15.4804 1.06434 15.7348 0.958984 16 0.958984C16.2652 0.958984 16.5196 1.06434 16.7071 1.25188C16.8946 1.43941 17 1.69377 17 1.95898V3.95898C17 4.2242 16.8946 4.47855 16.7071 4.66609C16.5196 4.85363 16.2652 4.95898 16 4.95898Z" fill="#CC52A3"></path><path d="M9.50115 6.7003C9.3254 6.70061 9.15267 6.65455 9.00041 6.56676C8.84815 6.47897 8.72174 6.35256 8.63395 6.2003L7.63395 4.4689C7.50135 4.23917 7.46543 3.96617 7.5341 3.70996C7.60278 3.45375 7.77042 3.23531 8.00015 3.1027C8.22988 2.9701 8.50288 2.93418 8.7591 3.00285C9.01531 3.07153 9.23375 3.23917 9.36635 3.4689L10.3664 5.2003C10.4541 5.35226 10.5003 5.52463 10.5003 5.7001C10.5004 5.87556 10.4542 6.04795 10.3666 6.19995C10.2789 6.35194 10.1528 6.47819 10.0009 6.56602C9.84896 6.65385 9.67662 6.70016 9.50115 6.7003Z" fill="#CC52A3"></path><path d="M4.73837 11.4591C4.56315 11.4593 4.39101 11.4131 4.23937 11.3253L2.50797 10.3253C2.27824 10.1927 2.11059 9.97429 2.04192 9.71808C1.97324 9.46187 2.00916 9.18887 2.14177 8.95914C2.27437 8.72941 2.49281 8.56176 2.74902 8.49309C3.00524 8.42441 3.27824 8.46033 3.50797 8.59294L5.23937 9.59294C5.43017 9.70301 5.57929 9.873 5.66357 10.0765C5.74786 10.28 5.76259 10.5057 5.70547 10.7184C5.64836 10.9312 5.5226 11.1191 5.34773 11.253C5.17285 11.387 4.95864 11.4594 4.73837 11.4591Z" fill="#CC52A3"></path><path d="M3 17.959H1C0.734784 17.959 0.48043 17.8536 0.292893 17.6661C0.105357 17.4786 0 17.2242 0 16.959C0 16.6938 0.105357 16.4394 0.292893 16.2519C0.48043 16.0643 0.734784 15.959 1 15.959H3C3.26522 15.959 3.51957 16.0643 3.70711 16.2519C3.89464 16.4394 4 16.6938 4 16.959C4 17.2242 3.89464 17.4786 3.70711 17.6661C3.51957 17.8536 3.26522 17.959 3 17.959Z" fill="#CC52A3"></path><path d="M3.00882 25.4591C2.78857 25.4594 2.5744 25.3869 2.39958 25.2529C2.22475 25.1189 2.09905 24.931 2.04197 24.7183C1.9849 24.5055 1.99965 24.2799 2.08394 24.0764C2.16823 23.873 2.31734 23.703 2.50812 23.5929L4.23952 22.5929C4.35327 22.5273 4.47884 22.4847 4.60906 22.4675C4.73928 22.4504 4.8716 22.4591 4.99846 22.4931C5.12532 22.5271 5.24425 22.5857 5.34844 22.6657C5.45263 22.7457 5.54006 22.8454 5.60572 22.9591C5.67138 23.0729 5.71399 23.1985 5.73112 23.3287C5.74825 23.4589 5.73957 23.5912 5.70557 23.7181C5.67156 23.8449 5.6129 23.9639 5.53294 24.0681C5.45297 24.1723 5.35327 24.2597 5.23952 24.3253L3.50812 25.3253C3.35638 25.4131 3.18413 25.4593 3.00882 25.4591Z" fill="#CC52A3"></path><path d="M22.4992 6.7003C22.3237 6.70016 22.1514 6.65384 21.9995 6.56602C21.8476 6.47819 21.7214 6.35194 21.6338 6.19994C21.5461 6.04795 21.5 5.87556 21.5 5.7001C21.5 5.52463 21.5462 5.35226 21.634 5.2003L22.634 3.4689C22.6996 3.35515 22.7871 3.25545 22.8913 3.17548C22.9954 3.09552 23.1144 3.03686 23.2412 3.00285C23.3681 2.96885 23.5004 2.96016 23.6306 2.9773C23.7609 2.99443 23.8864 3.03704 24.0002 3.1027C24.1139 3.16836 24.2136 3.25579 24.2936 3.35998C24.3736 3.46417 24.4322 3.5831 24.4662 3.70996C24.5002 3.83682 24.5089 3.96914 24.4918 4.09936C24.4746 4.22958 24.432 4.35515 24.3664 4.4689L23.3664 6.2003C23.2786 6.35256 23.1522 6.47897 22.9999 6.56675C22.8477 6.65454 22.6749 6.70061 22.4992 6.7003Z" fill="#CC52A3"></path><path d="M27.2591 11.4591C27.0388 11.4594 26.8246 11.387 26.6498 11.253C26.4749 11.1191 26.3491 10.9312 26.292 10.7184C26.2349 10.5057 26.2496 10.28 26.3339 10.0765C26.4182 9.873 26.5673 9.70301 26.7581 9.59294L28.4895 8.59294C28.7192 8.46033 28.9922 8.42441 29.2485 8.49309C29.5047 8.56176 29.7231 8.72941 29.8557 8.95914C29.9883 9.18887 30.0242 9.46187 29.9556 9.71808C29.8869 9.97429 29.7192 10.1927 29.4895 10.3253L27.7581 11.3253C27.6065 11.4131 27.4343 11.4593 27.2591 11.4591Z" fill="#CC52A3"></path><path d="M31 17.959H29C28.7348 17.959 28.4804 17.8536 28.2929 17.6661C28.1054 17.4786 28 17.2242 28 16.959C28 16.6938 28.1054 16.4394 28.2929 16.2519C28.4804 16.0643 28.7348 15.959 29 15.959H31C31.2652 15.959 31.5196 16.0643 31.7071 16.2519C31.8946 16.4394 32 16.6938 32 16.959C32 17.2242 31.8946 17.4786 31.7071 17.6661C31.5196 17.8536 31.2652 17.959 31 17.959Z" fill="#CC52A3"></path><path d="M28.9885 25.4591C28.8132 25.4593 28.641 25.4131 28.4894 25.3253L26.758 24.3253C26.6442 24.2597 26.5445 24.1723 26.4645 24.0681C26.3846 23.9639 26.3259 23.8449 26.2919 23.7181C26.2579 23.5912 26.2492 23.4589 26.2664 23.3287C26.2835 23.1985 26.3261 23.0729 26.3918 22.9591C26.5244 22.7294 26.7428 22.5618 26.999 22.4931C27.1259 22.4591 27.2582 22.4504 27.3884 22.4675C27.5186 22.4847 27.6442 22.5273 27.758 22.5929L29.4894 23.5929C29.6802 23.703 29.8293 23.873 29.9136 24.0765C29.9978 24.28 30.0126 24.5056 29.9555 24.7184C29.8984 24.9311 29.7726 25.119 29.5978 25.253C29.4229 25.3869 29.2087 25.4594 28.9885 25.4591Z" fill="#CC52A3"></path><path d="M9 27.959V29.959C9.00087 30.7544 9.31722 31.5169 9.87964 32.0793C10.4421 32.6418 11.2046 32.9581 12 32.959H20C20.7954 32.9581 21.5579 32.6418 22.1204 32.0793C22.6828 31.5169 22.9991 30.7544 23 29.959V27.959H9Z" fill="#CC52A3"></path></svg> 