<?xml version="1.0" encoding="UTF-8"?> <svg xmlns="http://www.w3.org/2000/svg" width="32" height="33" viewBox="0 0 32 33" fill="none"><g clip-path="url(#clip0_11136_29248)"><path d="M12 11.9625C11.7348 11.9625 11.4804 11.8571 11.2929 11.6696C11.1054 11.4821 11 11.2277 11 10.9625V6.96282C11 6.69762 11.1054 6.44329 11.2929 6.25576C11.4804 6.06824 11.7348 5.96289 12 5.96289C12.2652 5.96289 12.5196 6.06824 12.7071 6.25576C12.8947 6.44329 13 6.69762 13 6.96282V10.9625C13 11.2277 12.8947 11.4821 12.7071 11.6696C12.5196 11.8571 12.2652 11.9625 12 11.9625Z" fill="#CC52A3"></path><path d="M31.8821 30.4938L22.8819 13.4951C22.7969 13.3345 22.6697 13.2001 22.5141 13.1063C22.3585 13.0126 22.1802 12.963 21.9985 12.9629C21.8169 12.9629 21.6388 13.0124 21.4831 13.106C21.3275 13.1995 21.2003 13.3337 21.1152 13.4942L17.0151 21.2236C16.9373 21.3702 16.8972 21.5339 16.8985 21.6998C16.8997 21.8658 16.9423 22.0289 17.0224 22.1742L22.1225 31.4436C22.2087 31.6004 22.3354 31.7312 22.4894 31.8223C22.6434 31.9134 22.8191 31.9615 22.9981 31.9615H30.9982C31.1707 31.9615 31.3401 31.9169 31.4902 31.8321C31.6403 31.7473 31.766 31.6251 31.8549 31.4774C31.9438 31.3297 31.9931 31.1615 31.9978 30.9892C32.0026 30.8169 31.9627 30.6462 31.8821 30.4938Z" fill="#F5DCED"></path><path d="M23.8768 30.4796L12.8766 10.481C12.7903 10.3241 12.6634 10.1932 12.5093 10.1021C12.3552 10.011 12.1794 9.96289 12.0003 9.96289C11.8212 9.96289 11.6454 10.011 11.4913 10.1021C11.3371 10.1932 11.2103 10.3241 11.124 10.481L0.123777 30.4796C0.0400211 30.6318 -0.00259759 30.8033 0.000122508 30.9771C0.00284261 31.1509 0.0508076 31.3209 0.139288 31.4705C0.227769 31.6201 0.35371 31.744 0.504695 31.8301C0.655679 31.9162 0.826494 31.9614 1.0003 31.9614H23.0008C23.1745 31.9613 23.3453 31.916 23.4962 31.8299C23.6471 31.7438 23.773 31.6198 23.8614 31.4703C23.9498 31.3207 23.9978 31.1507 24.0005 30.977C24.0032 30.8032 23.9605 30.6318 23.8768 30.4796Z" fill="#FAEEF6"></path><path d="M11.9985 18.9623C13.6881 18.9655 15.335 18.4314 16.7011 17.4371L12.875 10.481C12.7887 10.3241 12.6619 10.1932 12.5077 10.1021C12.3536 10.011 12.1778 9.96289 11.9987 9.96289C11.8197 9.96289 11.6439 10.011 11.4897 10.1021C11.3356 10.1932 11.2087 10.3241 11.1225 10.481L7.29688 17.4359C8.66263 18.4302 10.3091 18.9647 11.9985 18.9623Z" fill="#CC52A3"></path><path d="M19.9817 1.96275C18.7439 1.99387 17.5214 1.68447 16.4474 1.06831C15.091 0.311613 13.5574 -0.0699544 12.0045 -0.0371074C11.7391 -0.0369801 11.4845 0.0681303 11.2963 0.255281C11.1081 0.442432 11.0016 0.696425 11 0.961821V8.00132C12.5704 7.77894 14.1703 8.07967 15.5528 8.85706C16.9092 9.61366 18.4428 9.99512 19.9957 9.96218C20.2611 9.96205 20.5157 9.85694 20.7039 9.66979C20.8921 9.48264 20.9986 9.22865 21.0002 8.96325V2.95918C20.9989 2.82684 20.9715 2.69606 20.9196 2.57432C20.8677 2.45258 20.7923 2.34228 20.6977 2.24973C20.603 2.15717 20.4911 2.08418 20.3683 2.03494C20.2454 1.9857 20.114 1.96117 19.9817 1.96275Z" fill="#CC52A3"></path></g><defs><clipPath id="clip0_11136_29248"><rect width="32" height="32" fill="white" transform="translate(0 0.460938)"></rect></clipPath></defs></svg> 