<?xml version="1.0" encoding="UTF-8"?> <svg xmlns="http://www.w3.org/2000/svg" width="33" height="33" viewBox="0 0 33 33" fill="none"><path d="M8.69259 20.2012L8.68599 20.2069C7.03965 21.6265 5.83399 23.4877 5.21142 25.5705C4.58885 27.6534 4.57538 29.8709 5.17259 31.9612L10.1726 27.9612H22.1726L27.1726 31.9612C27.7698 29.8709 27.7563 27.6534 27.1338 25.5705C26.5112 23.4877 25.3055 21.6265 23.6592 20.2069L23.6526 20.2012H8.69259Z" fill="#CC52A3"></path><path d="M10.1711 27.9609L9.25252 24.0569C8.31957 20.0919 8.46952 15.949 9.68668 12.0617C10.9038 8.17449 13.1434 4.68586 16.1711 1.96094C19.1988 4.68586 21.4384 8.17449 22.6556 12.0617C23.8727 15.949 24.0227 20.0919 23.0897 24.0569L22.1711 27.9609H10.1711Z" fill="#F5DCED"></path><path d="M19.1719 27.9609L16.1719 31.9609L13.4219 27.9609L16.1719 21.9609L19.1719 27.9609Z" fill="#CC52A3"></path><path d="M16.1719 18.9609C18.381 18.9609 20.1719 17.1701 20.1719 14.9609C20.1719 12.7518 18.381 10.9609 16.1719 10.9609C13.9627 10.9609 12.1719 12.7518 12.1719 14.9609C12.1719 17.1701 13.9627 18.9609 16.1719 18.9609Z" fill="#CC52A3"></path><path d="M20.9129 7.96094C19.683 5.7072 18.0797 3.67842 16.1713 1.96094C14.2628 3.67842 12.6596 5.7072 11.4297 7.96094H20.9129Z" fill="#CC52A3"></path></svg> 