<?xml version="1.0" encoding="UTF-8"?> <svg xmlns="http://www.w3.org/2000/svg" width="33" height="32" viewBox="0 0 33 32" fill="none"><path d="M8.46922 27.3666C6.77584 26.7607 5.30141 25.7154 4.21825 24.3529C4.08419 24.1846 3.89699 24.0601 3.6832 23.9971C3.46942 23.9342 3.23991 23.9359 3.02726 24.0022C2.8146 24.0684 2.62959 24.1957 2.49849 24.3661C2.36739 24.5365 2.29684 24.7412 2.29688 24.9513V30.9613C2.29688 31.1382 2.34698 31.312 2.44206 31.4649C2.53714 31.6178 2.67379 31.7443 2.83806 31.8315C3.00234 31.9187 3.18835 31.9634 3.3771 31.9612C3.56585 31.9589 3.75059 31.9097 3.91244 31.8187L8.63776 29.1587C8.80941 29.0622 8.94864 28.9223 9.03951 28.7551C9.13038 28.5879 9.16924 28.4001 9.15164 28.2132C9.13404 28.0262 9.06068 27.8477 8.93997 27.698C8.81926 27.5484 8.65626 27.4334 8.46922 27.3666Z" fill="#269FBD"></path><path d="M20.7697 24.002C20.5571 23.9359 20.3277 23.9342 20.1141 23.9972C19.9004 24.0601 19.7132 24.1844 19.5791 24.3526C18.4955 25.715 17.0207 26.7602 15.3271 27.3662C15.1401 27.4331 14.9769 27.548 14.8562 27.6977C14.7356 27.8474 14.6623 28.026 14.6447 28.2129C14.6272 28.3998 14.6661 28.5876 14.757 28.7548C14.8479 28.9219 14.9872 29.0617 15.1588 29.1582L19.8842 31.8182C20.046 31.9093 20.2308 31.9585 20.4195 31.9608C20.6083 31.9631 20.7944 31.9184 20.9587 31.8312C21.123 31.744 21.2596 31.6175 21.3547 31.4646C21.4498 31.3117 21.4999 31.1379 21.4999 30.9609V24.951C21.4998 24.741 21.4292 24.5363 21.2981 24.366C21.1671 24.1957 20.9822 24.0683 20.7697 24.002Z" fill="#269FBD"></path><path d="M11.8973 29.9608C18.3775 29.9608 23.6306 25.036 23.6306 18.9609C23.6306 12.8858 18.3775 7.96094 11.8973 7.96094C5.41723 7.96094 0.164062 12.8858 0.164062 18.9609C0.164062 25.036 5.41723 29.9608 11.8973 29.9608Z" fill="#D4ECF2"></path><path d="M11.8963 25.9609C16.02 25.9609 19.363 22.8269 19.363 18.9609C19.363 15.0949 16.02 11.9609 11.8963 11.9609C7.77261 11.9609 4.42969 15.0949 4.42969 18.9609C4.42969 22.8269 7.77261 25.9609 11.8963 25.9609Z" fill="#269FBD"></path><path d="M11.8953 21.9609C13.6626 21.9609 15.0953 20.6178 15.0953 18.9609C15.0953 17.3041 13.6626 15.9609 11.8953 15.9609C10.128 15.9609 8.69531 17.3041 8.69531 18.9609C8.69531 20.6178 10.128 21.9609 11.8953 21.9609Z" fill="#269FBD"></path><path d="M11.8946 19.9583C11.6836 19.9583 11.4774 19.8996 11.3021 19.7898C11.1267 19.6799 10.99 19.5237 10.9093 19.341C10.8286 19.1583 10.8075 18.9573 10.8486 18.7633C10.8897 18.5694 10.9913 18.3912 11.1404 18.2514L21.8071 8.25141C22.0082 8.06926 22.2777 7.96846 22.5573 7.97074C22.837 7.97302 23.1046 8.07819 23.3023 8.26359C23.5001 8.449 23.6123 8.69981 23.6147 8.96201C23.6171 9.2242 23.5096 9.4768 23.3153 9.66541L12.6487 19.6654C12.5498 19.7584 12.4322 19.8321 12.3028 19.8824C12.1734 19.9327 12.0347 19.9585 11.8946 19.9583Z" fill="#D4ECF2"></path><path d="M32.0853 4.5779C32.0047 4.39513 31.868 4.23891 31.6926 4.12904C31.5172 4.01916 31.3109 3.96058 31.1 3.9607H27.9V0.960719C27.8999 0.76297 27.8373 0.569672 27.7201 0.405263C27.6029 0.240854 27.4364 0.112716 27.2415 0.037046C27.0466 -0.0386236 26.8322 -0.0584265 26.6253 -0.0198591C26.4184 0.0187082 26.2284 0.113914 26.0792 0.253723L21.8125 4.2537C21.7134 4.34651 21.6348 4.45673 21.5812 4.57804C21.5276 4.69935 21.5 4.82938 21.5 4.9607V8.96068C21.5 9.22589 21.6124 9.48024 21.8124 9.66778C22.0125 9.85531 22.2838 9.96067 22.5667 9.96067H26.8333C26.9734 9.96068 27.1121 9.93481 27.2415 9.88453C27.3709 9.83426 27.4884 9.76057 27.5874 9.66767L31.8541 5.66769C32.0034 5.52794 32.1052 5.34976 32.1463 5.15573C32.1875 4.96171 32.1663 4.7606 32.0853 4.5779Z" fill="#269FBD"></path></svg> 