<?xml version="1.0" encoding="UTF-8"?> <svg xmlns="http://www.w3.org/2000/svg" width="233" height="65" viewBox="0 0 233 65" fill="none"><g clip-path="url(#clip0_8542_28413)"><path d="M0 15.8242H13.862L21.9336 36.5973L30.11 15.8242H43.6069L23.2836 65.0008H9.70117L15.2644 51.9698L0 15.8242Z" fill="#5F01D1"></path><path d="M57.6673 14.9961C47.2521 14.9961 40.668 24.3923 40.668 33.7494C40.668 44.2789 47.8867 52.6269 57.4697 52.6269C64.6182 52.6269 67.3136 48.2457 67.3136 48.2457V51.6586H79.4039V15.8233H67.3136V19.081C67.3136 19.081 64.3065 14.9961 57.6673 14.9961ZM60.239 26.5122C65.0446 26.5122 67.5245 30.3373 67.5245 33.7888C67.5245 37.5054 64.8676 41.1527 60.239 41.1527C56.4027 41.1527 52.936 37.999 52.936 33.9469C52.936 29.8375 55.7245 26.5122 60.239 26.5122Z" fill="#5F01D1"></path><path d="M83.5684 51.6587V0H96.2141V19.2054C96.2141 19.2054 99.2177 15.0009 105.508 15.0009C113.203 15.0009 117.712 20.7682 117.712 29.0095V51.6587H105.159V32.1122C105.159 29.3231 103.838 26.6288 100.846 26.6288C97.8011 26.6288 96.2141 29.364 96.2141 32.1122V51.6587H83.5684Z" fill="#5F01D1"></path><path d="M139.272 15C127.344 15 120.242 24.1234 120.242 33.8981C120.242 45.022 128.841 52.6266 139.317 52.6266C149.47 52.6266 158.355 45.3671 158.355 34.0848C158.355 21.7398 149.052 15 139.272 15ZM139.386 26.6173C143.599 26.6173 146.514 30.1472 146.514 33.9115C146.514 37.1221 143.797 41.0821 139.386 41.0821C135.343 41.0821 132.309 37.82 132.309 33.8763C132.309 30.0773 134.831 26.6173 139.386 26.6173Z" fill="#5F01D1"></path><path d="M179.422 15C167.495 15 160.393 24.1234 160.393 33.8981C160.393 45.022 168.992 52.6266 179.467 52.6266C189.621 52.6266 198.505 45.3671 198.505 34.0848C198.505 21.7398 189.203 15 179.422 15ZM179.536 26.6173C183.749 26.6173 186.664 30.1472 186.664 33.9115C186.664 37.1221 183.948 41.0821 179.536 41.0821C175.493 41.0821 172.459 37.82 172.459 33.8763C172.459 30.0773 174.982 26.6173 179.536 26.6173Z" fill="#5F01D1"></path><path d="M208.483 52.4195C213.121 52.4195 216.88 48.6376 216.88 43.9725C216.88 39.3073 213.121 35.5254 208.483 35.5254C203.846 35.5254 200.086 39.3073 200.086 43.9725C200.086 48.6376 203.846 52.4195 208.483 52.4195Z" fill="#5F01D1"></path><path d="M219.641 32.4224H204.523L217.94 0H233.001L219.641 32.4224Z" fill="#5F01D1"></path></g><defs><clipPath id="clip0_8542_28413"><rect width="233" height="65" fill="white"></rect></clipPath></defs></svg> 